<svg xmlns="http://www.w3.org/2000/svg" width="19.306" height="20.958" viewBox="0 0 19.306 20.958"><defs><style>.a{fill:red;}</style></defs><path d="M19.621,13V11.118H18.176v2.168a.658.658,0,0,0,.217.506l1.951,1.951V16.9H4.445V15.743L6.4,13.792a.658.658,0,0,0,.217-.506V9.672a5.782,5.782,0,0,1,5.782-5.782,5.7,5.7,0,0,1,2.89.787V3.024a7.017,7.017,0,0,0-2.168-.578V1H11.672V2.445a7.335,7.335,0,0,0-6.5,7.227V13L3.216,14.948A.658.658,0,0,0,3,15.454v2.168a.679.679,0,0,0,.723.723H8.781a3.613,3.613,0,0,0,7.227,0h5.059a.679.679,0,0,0,.723-.723V15.454a.658.658,0,0,0-.217-.506Zm-7.227,7.516a2.168,2.168,0,0,1-2.168-2.168h4.336a2.168,2.168,0,0,1-2.168,2.168Z" transform="translate(-2.998 -1)"/><circle class="a" cx="2.809" cy="2.809" r="2.809" transform="translate(13.688 2.053)"/></svg>