<?xml version="1.0" encoding="UTF-8"?>
<svg width="13px" height="13px" viewBox="0 0 13 13" version="1.1" xmlns="http://www.w3.org/2000/svg" xmlns:xlink="http://www.w3.org/1999/xlink">
    <!-- Generator: Sketch 57.1 (83088) - https://sketch.com -->
    <title>ic_reset</title>
    <desc>Created with Sketch.</desc>
    <g id="Page-1" stroke="none" stroke-width="1" fill="none" fill-rule="evenodd">
        <g id="5" transform="translate(-365.000000, -1502.000000)" fill="#028FA0" fill-rule="nonzero">
            <g id="ic_reset" transform="translate(365.000000, 1502.000000)">
                <path d="M8.67176471,0 L4.20588235,0 C1.89647059,0 3.69482223e-13,1.68315789 3.69482223e-13,3.76315789 L3.69482223e-13,7.04736842 C3.69482223e-13,7.34842105 0.275294118,7.59473684 0.611764706,7.59473684 C0.948235294,7.59473684 1.22352941,7.34842105 1.22352941,7.04736842 L1.22352941,3.76315789 C1.22352941,2.29894737 2.55411765,1.10842105 4.19058824,1.10842105 L8.64117647,1.10842105 C10.3082353,1.10842105 11.6388235,2.29894737 11.6388235,3.76315789 L11.6388235,6.63684211 C11.6388235,8.10105263 10.3082353,9.29157895 8.67176471,9.29157895 L3.15058824,9.29157895 L5.00117647,7.63578947 C5.24588235,7.41684211 5.24588235,7.07473684 5.00117647,6.85578947 C4.75647059,6.63684211 4.37411765,6.63684211 4.12941176,6.85578947 L1.22352941,9.45578947 C0.978823529,9.67473684 0.978823529,10.0168421 1.22352941,10.2357895 L4.12941176,12.8357895 C4.25176471,12.9452632 4.40470588,13 4.57294118,13 C4.72588235,13 4.89411765,12.9452632 5.01647059,12.8357895 C5.26117647,12.6168421 5.26117647,12.2747368 5.01647059,12.0557895 L3.15058824,10.4 L8.67176471,10.4 C10.9964706,10.4 12.8776471,8.71684211 12.8776471,6.63684211 L12.8776471,3.76315789 C12.8776471,1.68315789 10.9811765,0 8.67176471,0 Z" id="Path"></path>
            </g>
        </g>
    </g>
</svg>