<?xml version="1.0" encoding="utf-8"?>
<!-- Generator: Adobe Illustrator 24.3.0, SVG Export Plug-In . SVG Version: 6.00 Build 0)  -->
<svg version="1.1" id="Layer_1" focusable="false" xmlns="http://www.w3.org/2000/svg" xmlns:xlink="http://www.w3.org/1999/xlink"
	 x="0px" y="0px" viewBox="0 0 32 32" style="enable-background:new 0 0 32 32;" xml:space="preserve">
<style type="text/css">
	.st0{fill:#028FA0;}
</style>
<path class="st0" d="M22,22v6H6V4h10V2H6C4.9,2,4,2.9,4,4v24c0,1.1,0.9,2,2,2h16c1.1,0,2-0.9,2-2v-6H22z"/>
<path class="st0" d="M29.5,5.8l-3.3-3.3c-0.6-0.6-1.6-0.6-2.2,0l-14,14V22h5.5l14-14C30.1,7.4,30.1,6.4,29.5,5.8L29.5,5.8z M14.7,20
	H12v-2.7l9.4-9.4l2.7,2.7L14.7,20z M25.6,9.1l-2.7-2.7l2.3-2.3l2.7,2.7L25.6,9.1z"/>
</svg>
