<?xml version="1.0" encoding="utf-8"?>
<!-- Generator: Adobe Illustrator 24.3.0, SVG Export Plug-In . SVG Version: 6.00 Build 0)  -->
<svg version="1.1"
	 id="svg2113" inkscape:version="0.92.0 r15299" sodipodi:docname="crowley.svg" xmlns:cc="http://creativecommons.org/ns#" xmlns:dc="http://purl.org/dc/elements/1.1/" xmlns:inkscape="http://www.inkscape.org/namespaces/inkscape" xmlns:rdf="http://www.w3.org/1999/02/22-rdf-syntax-ns#" xmlns:sodipodi="http://sodipodi.sourceforge.net/DTD/sodipodi-0.dtd" xmlns:svg="http://www.w3.org/2000/svg"
	 xmlns="http://www.w3.org/2000/svg" xmlns:xlink="http://www.w3.org/1999/xlink" x="0px" y="0px" viewBox="0 0 201.4 30.6"
	 style="enable-background:new 0 0 201.4 30.6;" xml:space="preserve">
<style type="text/css">
	.st0{fill:#6E7C7C;}
</style>
<sodipodi:namedview  bordercolor="#666666" borderopacity="1.0" fit-margin-bottom="0" fit-margin-left="0" fit-margin-right="0" fit-margin-top="0" id="base" inkscape:current-layer="layer1" inkscape:cx="100.69606" inkscape:cy="24.711705" inkscape:document-units="mm" inkscape:pageopacity="0.0" inkscape:pageshadow="2" inkscape:window-height="744" inkscape:window-maximized="1" inkscape:window-width="1280" inkscape:window-x="-4" inkscape:window-y="-4" inkscape:zoom="4.4539973" pagecolor="#ffffff" showgrid="false" units="px">
	</sodipodi:namedview>
<g id="layer1" transform="translate(-32.321788,-142.03044)" inkscape:groupmode="layer" inkscape:label="Layer 1">
	<g id="g2362" transform="translate(0.13229294,-0.13228745)">
		<path id="path1621" inkscape:connector-curvature="0" class="st0" d="M52,152.4c-0.5-1.7-1.4-5-6.4-5c-2.9,0-7.2,1.9-7.2,10.2
			c0,5.2,2.1,9.9,7.2,9.9c3.4,0,5.7-1.9,6.4-5.5h6.1c-1.2,6.3-5.3,10.7-12.6,10.7c-7.7,0-13.3-5.2-13.3-15.3
			c0-10.2,5.9-15.3,13.4-15.3c8.7,0,12.2,6,12.5,10.3H52z"/>
		<path id="path1625" inkscape:connector-curvature="0" class="st0" d="M66.4,155.7v-7.8h7.6c3.6,0,4.2,2.3,4.2,3.8
			c0,2.9-1.5,4-4.7,4H66.4z M60.4,172h5.9v-11.4h6.3c4.5,0,4.7,1.5,4.7,5.5c0,3,0.2,4.5,0.6,5.9h6.7v-0.8c-1.3-0.5-1.3-1.5-1.3-5.8
			c0-5.4-1.3-6.3-3.7-7.4c2.9-1,4.5-3.7,4.5-6.9c0-2.5-1.4-8.2-9.1-8.2H60.4L60.4,172z"/>
		<path id="path1629" inkscape:connector-curvature="0" class="st0" d="M92.1,157.5c0-8.1,4.6-10.2,7.9-10.2c3.3,0,7.9,2,7.9,10.2
			c0,8.1-4.6,10.2-7.9,10.2C96.8,167.6,92.1,165.6,92.1,157.5 M86.1,157.5c0,13.6,10.1,15.3,14,15.3c3.8,0,14-1.7,14-15.3
			c0-13.6-10.1-15.3-14-15.3C96.2,142.2,86.1,143.8,86.1,157.5"/>
		<path id="path1633" inkscape:connector-curvature="0" class="st0" d="M114.2,142.9h6.5c3.7,15.9,4.1,17.9,4.6,21.2h0.1
			c0.5-3,1-6,4-21.2h6.4c3.4,15.9,3.7,17.5,4.3,21.2h0.1c0.5-2.8,1-5.3,4.7-21.2h6.1l-8.2,29h-5.8c-3-14.2-3.5-17.1-4.5-22.7h-0.1
			c-0.9,5.6-1.4,7.7-4.5,22.7h-5.7L114.2,142.9z"/>
		<path id="path1637" inkscape:connector-curvature="0" class="st0" d="M159.7,166.7h14.4v5.3h-20.5v-29h6.1V166.7z"/>
		<path id="path1641" inkscape:connector-curvature="0" class="st0" d="M198.6,148.1h-15.4v6.1h14.2v5.1h-14.2v7.5h16.1v5.1h-22v-29
			h21.4L198.6,148.1z"/>
		<path id="path1645" inkscape:connector-curvature="0" class="st0" d="M217.4,172h-6.1v-11l-10-18.1h7.2l6,12.6l5.7-12.6h6.9
			l-9.7,18.2L217.4,172z"/>
		<path id="path1657" inkscape:connector-curvature="0" class="st0" d="M232.8,145.7c0,1.3-0.9,2.1-2,2.1v0c-1.1,0-2-0.8-2-2.1
			c0-1.3,0.9-2.1,2-2.1C231.9,143.6,232.8,144.4,232.8,145.7 M230.3,145.9h0.3l0.7,1.3h0.8l-0.8-1.3c0.4,0,0.7-0.2,0.7-0.8
			c0-0.7-0.5-0.9-1.2-0.9h-1.1v3h0.6L230.3,145.9z M230.3,145.4v-0.7h0.4c0.2,0,0.6,0,0.6,0.3c0,0.3-0.2,0.4-0.5,0.4L230.3,145.4z
			 M233.6,145.7c0-1.7-1.3-2.8-2.8-2.8c-1.5,0-2.8,1-2.8,2.8c0,1.7,1.3,2.8,2.8,2.8C232.3,148.5,233.6,147.4,233.6,145.7"/>
	</g>
</g>
</svg>
