<?xml version="1.0" encoding="UTF-8"?>
<svg width="27px" height="24px" viewBox="0 0 27 24" version="1.1" xmlns="http://www.w3.org/2000/svg" xmlns:xlink="http://www.w3.org/1999/xlink">
    <!-- Generator: Sketch 57.1 (83088) - https://sketch.com -->
    <title>ic_breakbulkA</title>
    <desc>Created with Sketch.</desc>
    <g id="ic_breakbulkA" stroke="none" stroke-width="1" fill="none" fill-rule="evenodd">
        <g id="noun_constructions_2221144" fill="#028FA0" fill-rule="nonzero">
            <g id="Group">
                <path d="M6.3,8.88888889 L9.45,8.88888889 C9.69852814,8.88888889 9.9,8.68990433 9.9,8.44444444 C9.9,8.19898456 9.69852814,8 9.45,8 L8.1,8 L8.1,5.33333333 C8.1,4.84241356 7.69705627,4.44444444 7.2,4.44444444 L6.3,4.44444444 C5.80294373,4.44444444 5.4,4.84241356 5.4,5.33333333 L5.4,8 C5.4,8.49091978 5.80294373,8.88888889 6.3,8.88888889 Z M6.3,5.33333333 L7.2,5.33333333 L7.2,8 L6.3,8 L6.3,5.33333333 Z" id="Shape"></path>
                <path d="M26.55,20.8888889 L25.65,20.8888889 C25.4014719,20.8888889 25.2,20.6899043 25.2,20.4444444 L25.2,11.5555556 C25.2,11.3100957 24.9985281,11.1111111 24.75,11.1111111 C24.5014719,11.1111111 24.3,11.3100957 24.3,11.5555556 L24.3,17.3333333 L23.4,17.3333333 L23.4,12 C23.3985122,10.7733097 22.3920239,9.77924716 21.15,9.77777778 L19.35,9.77777778 L19.35,4.44444444 C19.35,3.95352467 18.9470563,3.55555556 18.45,3.55555556 L18.45,2.66666667 L18.9,2.66666667 C19.1485281,2.66666667 19.35,2.46768211 19.35,2.22222222 C19.35,1.97676233 19.1485281,1.77777778 18.9,1.77777778 L18.45,1.77777778 C17.9529437,1.77777778 17.55,2.17574689 17.55,2.66666667 L17.55,3.55555556 C17.0529437,3.55555556 16.65,3.95352467 16.65,4.44444444 L16.65,9.77777778 L15.1938,9.77777778 L12.6738,0.655555556 C12.5672886,0.268859929 12.2119582,0.000373542438 11.8062,2.66453526e-13 L2.7,2.66453526e-13 C2.20294373,2.66453526e-13 1.8,0.397969111 1.8,0.888888889 L1.8,9.77777778 L1.35,9.77777778 C0.604415588,9.77777778 0,10.3747314 0,11.1111111 L0,19.1111111 C0,19.8474908 0.604415588,20.4444444 1.35,20.4444444 L2.00925,20.4444444 C3.0159994,22.3571301 5.01712945,23.5572113 7.199775,23.5572113 C9.38242055,23.5572113 11.3835506,22.3571301 12.3903,20.4444444 L15.75,20.4444444 C15.75,22.1626637 17.160303,23.5555556 18.9,23.5555556 C20.639697,23.5555556 22.05,22.1626637 22.05,20.4444444 L22.5,20.4444444 C22.9970563,20.4444444 23.4,20.0464753 23.4,19.5555556 L23.4,18.2222222 L24.3,18.2222222 L24.3,20.4444444 C24.3,21.1808241 24.9044156,21.7777778 25.65,21.7777778 L26.55,21.7777778 C26.7985281,21.7777778 27,21.5787932 27,21.3333333 C27,21.0878734 26.7985281,20.8888889 26.55,20.8888889 L26.55,20.8888889 Z M17.55,4.44444444 L18.45,4.44444444 L18.45,9.77777778 L17.55,9.77777778 L17.55,4.44444444 Z M16.2,10.6666667 L16.2,12 C16.2,12.2454599 16.4014719,12.4444444 16.65,12.4444444 C16.8985281,12.4444444 17.1,12.2454599 17.1,12 L17.1,10.6666667 L17.55,10.6666667 L17.55,12 C17.55,12.2454599 17.7514719,12.4444444 18,12.4444444 C18.2485281,12.4444444 18.45,12.2454599 18.45,12 L18.45,10.6666667 L18.9,10.6666667 L18.9,12 C18.9,12.2454599 19.1014719,12.4444444 19.35,12.4444444 C19.5985281,12.4444444 19.8,12.2454599 19.8,12 L19.8,10.6666667 L20.7,10.6666667 L20.7,13.3333333 L15.3,13.3333333 L15.3,10.6666667 L16.2,10.6666667 Z M11.8062,0.888888889 L14.26095,9.77777778 L12.6,9.77777778 L12.6,7.55555556 C12.5999745,7.43769119 12.5525472,7.32466344 12.46815,7.24133333 L11.4363,6.22222222 L12.01815,5.64755556 C12.1886875,5.47316494 12.1862486,5.19596232 12.0126684,5.02452508 C11.8390881,4.85308783 11.5584205,4.85067902 11.38185,5.01911111 L9.58185,6.79688889 C9.46486954,6.90847754 9.41795433,7.07372351 9.45913628,7.22911437 C9.50031823,7.38450522 9.62318846,7.50585854 9.7805217,7.54653207 C9.93785495,7.5872056 10.1051665,7.54086959 10.21815,7.42533333 L10.8,6.85066667 L11.7,7.73955556 L11.7,9.77777778 L4.5,9.77777778 L4.5,0.888888889 L11.8062,0.888888889 Z M7.2,22.6667625 C5.2114754,22.6690793 3.41500018,21.4946396 2.64035428,19.6858134 C1.86570838,17.8769872 2.26366081,15.7858256 3.6504,14.3782222 C3.6729,14.3551111 3.6954,14.3311111 3.71745,14.308 C3.80385,14.2235556 3.89745,14.1435556 3.98745,14.0648889 C4.01805,14.0395556 4.04775,14.0124444 4.07745,13.9875556 C4.1733,13.9106667 4.27275,13.8382222 4.37445,13.7684444 C4.40415,13.7475556 4.4334,13.7266667 4.46445,13.7066667 C4.56795,13.6386667 4.67505,13.5733333 4.78395,13.5146667 C4.8159,13.4968889 4.8474,13.4786667 4.8798,13.4617778 C4.986,13.4062222 5.0949,13.3551111 5.20515,13.3066667 C5.2461,13.2888889 5.2875,13.2706667 5.3289,13.2537778 C5.43015,13.2128889 5.53365,13.1764444 5.6376,13.1422222 C5.69475,13.1235556 5.7519,13.1053333 5.8095,13.0884444 C5.8995,13.0622222 5.99265,13.0395556 6.08535,13.0182222 C6.1605,13.0013333 6.23565,12.9853333 6.31035,12.9737778 C6.38505,12.9622222 6.47055,12.948 6.552,12.9373333 C6.642,12.9257778 6.7311,12.9165926 6.8193,12.9097778 C6.8949,12.904 6.9714,12.9004444 7.0479,12.8982222 C7.1379,12.8955556 7.23015,12.8946667 7.32195,12.8982222 C7.41375,12.9017778 7.4916,12.9044444 7.57575,12.9106667 C7.6509,12.9164444 7.72605,12.9226667 7.80075,12.932 C7.884,12.9417778 7.9659,12.9551111 8.0478,12.9693333 C8.1297,12.9835556 8.208,12.9968889 8.28675,13.0137778 C8.35155,13.0284444 8.41455,13.0457778 8.47845,13.0626667 C8.5743,13.0884444 8.6697,13.1142222 8.76285,13.1453333 C8.79795,13.1568889 8.8317,13.1706667 8.86635,13.1826667 C10.1258416,13.6377816 11.1489554,14.571138 11.7081,15.7751111 L11.71125,15.7808889 C11.76165,15.8902222 11.8053,16.0031111 11.84625,16.1164444 C11.86065,16.1555556 11.8764,16.1937778 11.89125,16.2333333 C11.9214,16.3222222 11.9466,16.4111111 11.97225,16.5035556 C11.99025,16.5702222 12.00915,16.6368889 12.02445,16.7048889 C12.03975,16.7728889 12.0555,16.8555556 12.06945,16.9315556 C12.0843,17.0155556 12.09825,17.1 12.1086,17.1853333 C12.1176,17.256 12.1239,17.3271111 12.1293,17.3982222 C12.13605,17.4795556 12.13965,17.5613333 12.1419,17.6435556 C12.14505,17.7542222 12.1419,17.8657778 12.13875,17.9737778 C12.1356,18.0542222 12.1329,18.1342222 12.12615,18.2137778 C12.1167,18.3217778 12.1005,18.4288889 12.08385,18.5355556 C12.07215,18.6115556 12.06225,18.6884444 12.04695,18.7635556 C12.02265,18.8813333 11.99025,18.9968889 11.95695,19.1124444 C11.9394,19.1737778 11.9259,19.2368889 11.90565,19.2977778 C11.2509888,21.3156684 9.3453943,22.6799297 7.2,22.6667625 L7.2,22.6667625 Z M18.9,22.6666667 C17.6579761,22.6651973 16.6514878,21.6711347 16.6499953,20.4444444 C16.6497296,20.3196668 16.6611786,20.1951333 16.6842,20.0724444 C16.8676223,19.0032291 17.8064775,18.2214682 18.9044845,18.2236652 C20.0024916,18.2258716 20.938125,19.0113912 21.11715,20.0813333 C21.1394568,20.2011051 21.150454,20.3226641 21.1500135,20.4444444 C21.1485122,21.6711347 20.1420239,22.6651973 18.9,22.6666667 Z M22.5,19.5555556 L21.9177,19.5555556 C21.91365,19.5417778 21.90645,19.5297778 21.90195,19.516 C21.8583349,19.3738089 21.8043435,19.2349266 21.7404,19.1004444 C21.7332,19.0844444 21.7242,19.0697778 21.71655,19.056 C21.648493,18.9184182 21.570125,18.7860499 21.4821,18.66 L21.47715,18.6533333 C21.3888349,18.5300476 21.2915264,18.413293 21.186,18.304 C21.1752,18.2928889 21.1653,18.2808889 21.1545,18.2697778 C21.0515314,18.1665233 20.9413071,18.0705809 20.82465,17.9826667 C20.80665,17.9688889 20.7891,17.9546667 20.77065,17.9413333 C20.6549261,17.8570381 20.5332681,17.7809937 20.4066,17.7137778 L20.34045,17.6791111 C20.211459,17.6134319 20.0779258,17.5568462 19.94085,17.5097778 C19.9188,17.5022222 19.89585,17.4955556 19.87425,17.4888889 C19.7310139,17.4423744 19.5845225,17.406278 19.43595,17.3808889 C19.41975,17.3782222 19.4031,17.3768889 19.38645,17.3742222 C19.0641479,17.3220765 18.7354021,17.3220765 18.4131,17.3742222 L18.3645,17.3808889 C18.2153822,17.4064876 18.0683076,17.4425795 17.9244,17.4888889 L17.8605,17.5093333 C17.7215866,17.5568745 17.5862493,17.614054 17.4555,17.6804444 L17.39565,17.7115556 C17.2662127,17.780451 17.1418545,17.8582736 17.0235,17.9444444 C17.0091,17.9546667 16.9956,17.9657778 16.98165,17.9764444 C16.8600304,18.0674895 16.7454159,18.167319 16.63875,18.2751111 C16.6338,18.28 16.62975,18.2853333 16.6248,18.2897778 C16.3991908,18.5222083 16.2118216,18.7880951 16.0695,19.0777778 L16.0632,19.0906667 C15.995063,19.2323608 15.9380453,19.3790143 15.89265,19.5293333 C15.8895,19.5391111 15.88455,19.5475556 15.8814,19.5573333 L12.76965,19.5573333 C12.8268,19.3826667 12.87405,19.2053333 12.91365,19.0271111 C12.9213,18.9928889 12.92535,18.9577778 12.9321,18.9231111 C12.96315,18.7693333 12.98925,18.6146667 13.0077,18.4586667 C13.0149,18.3964444 13.0185,18.3337778 13.0239,18.2715556 C13.0347,18.1413333 13.04235,18.0106667 13.0446,17.8791111 C13.0446,17.8457778 13.05,17.8128889 13.05,17.7795556 C13.05,17.7391111 13.0446,17.7 13.0437,17.6595556 C13.0437,17.6044444 13.0437,17.5502222 13.0437,17.4946667 C13.0437,17.4391111 13.03155,17.3835556 13.02705,17.3271111 C13.02075,17.2435556 13.0131,17.16 13.00275,17.0773333 C12.99015,16.9773333 12.9744,16.8782222 12.95775,16.7795556 C12.9411,16.688 12.92445,16.5968889 12.90375,16.5066667 C12.88575,16.4297778 12.86505,16.3542222 12.8439,16.2786667 C12.81375,16.1671111 12.7818,16.0564444 12.7449,15.9475556 C12.73095,15.9062222 12.71475,15.8666667 12.6999,15.8257778 C12.1038342,14.2007096 10.8048455,12.9229724 9.15705,12.3408889 C9.12285,12.3288889 9.08955,12.3155556 9.05535,12.304 C8.94015,12.2657778 8.8227,12.2333333 8.70435,12.2022222 C8.63325,12.1831111 8.5626,12.164 8.49015,12.1475556 C8.39475,12.1262222 8.29755,12.1088889 8.20035,12.0924444 C8.10315,12.076 8.01,12.0608889 7.91325,12.048 C7.82325,12.0373333 7.73685,12.0297778 7.64775,12.0231111 C7.59105,12.0191111 7.5357,12.0102222 7.479,12.0075556 C7.434,12.0053333 7.389,12.0075556 7.34085,12.0075556 C7.2927,12.0075556 7.24725,12 7.2,12 C7.146,12 7.0938,12.0066667 7.0398,12.008 C6.93585,12.0106667 6.83235,12.0155556 6.7293,12.0235556 C6.6393,12.0306667 6.55245,12.04 6.4647,12.0506667 C6.3495,12.0648889 6.23565,12.0817778 6.1218,12.1026667 C6.05205,12.1155556 5.9832,12.1297778 5.91435,12.1448889 C5.78505,12.1745185 5.65725,12.2071111 5.53095,12.2426667 C5.481,12.2573333 5.43195,12.2728889 5.3829,12.2871111 C5.2434,12.3315556 5.1057,12.3813333 4.97025,12.4368889 C4.93515,12.4511111 4.9005,12.4662222 4.86585,12.4813333 C4.72365,12.5422222 4.58415,12.608 4.44735,12.6808889 C4.4181,12.696 4.3902,12.7124444 4.3614,12.728 C4.2264,12.8031111 4.0914,12.8822222 3.96225,12.968 C3.9312,12.9884444 3.9015,13.0097778 3.87225,13.0306667 C3.74895,13.1155556 3.62745,13.2035556 3.51225,13.2973333 C3.4785,13.3244444 3.44655,13.3537778 3.41325,13.3813333 C3.32955,13.452 3.2436,13.5186667 3.1635,13.5946667 C3.13605,13.6204444 3.1122,13.6493333 3.0852,13.676 C3.0582,13.7026667 3.03795,13.7262222 3.01365,13.7511111 C1.94390275,14.8246202 1.34608686,16.2715624 1.35,17.7777778 C1.35,17.9653333 1.36215,18.1506667 1.3797,18.3355556 C1.38465,18.388 1.39185,18.44 1.39815,18.492 C1.41555,18.6345185 1.4385,18.7761481 1.467,18.9168889 C1.47645,18.9613333 1.4841,19.0057778 1.494,19.0528889 C1.5327,19.2222222 1.57635,19.3902222 1.629,19.5555556 L1.35,19.5555556 C1.10147186,19.5555556 0.9,19.356571 0.9,19.1111111 L0.9,11.1111111 C0.9,10.8656512 1.10147186,10.6666667 1.35,10.6666667 L2.25,10.6666667 C2.49852814,10.6666667 2.7,10.4676821 2.7,10.2222222 L2.7,0.888888889 L3.6,0.888888889 L3.6,9.77777778 C3.6,10.2686976 4.00294373,10.6666667 4.5,10.6666667 L14.4,10.6666667 L14.4,13.3333333 C14.4,13.8242531 14.8029437,14.2222222 15.3,14.2222222 L20.7,14.2222222 C21.1970563,14.2222222 21.6,13.8242531 21.6,13.3333333 L21.6,10.7484444 C22.1374579,10.9361131 22.4976369,11.4369843 22.5,12 L22.5,19.5555556 Z" id="Shape"></path>
                <path d="M7.2,15.1111111 C5.70883118,15.1111111 4.5,16.3050184 4.5,17.7777778 C4.5,19.2505371 5.70883118,20.4444444 7.2,20.4444444 C8.69116882,20.4444444 9.9,19.2505371 9.9,17.7777778 C9.89851168,16.3056277 8.69055191,15.1125811 7.2,15.1111111 L7.2,15.1111111 Z M7.2,19.5555556 C6.20588745,19.5555556 5.4,18.7596173 5.4,17.7777778 C5.4,16.7959382 6.20588745,16 7.2,16 C8.19411255,16 9,16.7959382 9,17.7777778 C9,18.7596173 8.19411255,19.5555556 7.2,19.5555556 Z" id="Shape"></path>
                <path d="M18.9,19.1111111 C18.1544156,19.1111111 17.55,19.7080648 17.55,20.4444444 C17.55,21.1808241 18.1544156,21.7777778 18.9,21.7777778 C19.6455844,21.7777778 20.25,21.1808241 20.25,20.4444444 C20.25,19.7080648 19.6455844,19.1111111 18.9,19.1111111 Z M18.9,20.8888889 C18.6514719,20.8888889 18.45,20.6899043 18.45,20.4444444 C18.45,20.1989846 18.6514719,20 18.9,20 C19.1485281,20 19.35,20.1989846 19.35,20.4444444 C19.35,20.6899043 19.1485281,20.8888889 18.9,20.8888889 Z" id="Shape"></path>
            </g>
        </g>
    </g>
</svg>