<?xml version="1.0" encoding="UTF-8"?>
<svg width="28px" height="24px" viewBox="0 0 28 24" version="1.1" xmlns="http://www.w3.org/2000/svg" xmlns:xlink="http://www.w3.org/1999/xlink">
    <!-- Generator: Sketch 57.1 (83088) - https://sketch.com -->
    <title>ic_container</title>
    <desc>Created with Sketch.</desc>
    <g id="ic_container" stroke="none" stroke-width="1" fill="none" fill-rule="evenodd">
        <g id="noun_container_3484381" fill="#101112" fill-rule="nonzero">
            <path d="M27.3469088,0.446666177 L27.3469088,0.441079174 C27.3469088,0.396971256 27.3395575,0.354627656 27.3272072,0.313754319 C27.3266191,0.311990002 27.3269132,0.309931633 27.3263251,0.308167316 C27.3233845,0.299345733 27.3175035,0.292582519 27.3142689,0.284054988 C27.3022127,0.253179446 27.2886863,0.223774167 27.270161,0.196427259 C27.2613394,0.183194883 27.2507535,0.172020878 27.2404617,0.159964714 C27.2228185,0.139086966 27.2042932,0.119679482 27.1831214,0.102330368 C27.1695949,0.0908623098 27.1557745,0.0814526207 27.1410718,0.0720429317 C27.1298978,0.0649856649 27.1210762,0.0555759759 27.1093141,0.0494008675 C27.097258,0.043225759 27.0840256,0.0411673895 27.0713813,0.0358744395 C27.0552084,0.0291112255 27.0393296,0.0232301698 27.0222745,0.0185253253 C26.9946335,0.010879953 26.9669926,0.00705726678 26.9387635,0.0049988973 C26.9275895,0.00441079174 26.9172977,0 26.9058296,0 L11.7359406,0 C11.6450783,0 11.5565684,0.0279350143 11.4821731,0.0802764096 L0.187311622,8.02852312 C0.1849592,8.03028744 0.183488936,8.03263986 0.181136514,8.03440418 C0.149084761,8.0579284 0.121149746,8.08556936 0.0967433654,8.11673895 C0.0923325737,8.12232596 0.0873336764,8.12732485 0.0832169374,8.13291186 C0.0602808204,8.16496361 0.0420495479,8.20024994 0.0282290671,8.23818275 C0.0252885393,8.24641623 0.022936117,8.25464971 0.0205836948,8.26288319 C0.0099977946,8.29846357 0.00294052782,8.33551422 0.00147026391,8.37432919 C0.00147026391,8.37815188 0.000294052782,8.38168051 0.000294052782,8.3855032 C0.000294052782,8.38667941 -3.37507799e-14,8.38785562 -3.37507799e-14,8.38903183 L-3.37507799e-14,10.5838418 L-3.37507799e-14,21.3638168 L-3.37507799e-14,23.5589208 C-3.37507799e-14,23.8026906 0.19760347,24 0.441079174,24 L15.6109682,24 C15.6524296,24 15.6915386,23.9923546 15.7294714,23.9817687 C15.737999,23.9794163 15.7462324,23.9767698 15.7544659,23.9741234 C15.7929868,23.960891 15.8294494,23.9438359 15.8620892,23.9208998 C15.8629714,23.9203117 15.8638536,23.9200176 15.8647357,23.9194295 L27.1595971,15.9714769 C27.2769242,15.888848 27.3469088,15.7544659 27.3469088,15.6106741 L27.3469088,13.4158641 L27.3469088,2.63588914 L27.3469088,0.446666177 C27.3469088,0.446960229 27.3469088,0.446960229 27.3469088,0.446666177 Z M9.98397412,20.9227376 L9.98397412,11.024921 L12.1358524,11.024921 L12.1358524,20.9227376 L9.98397412,20.9227376 Z M6.95023157,20.9227376 L6.95023157,11.024921 L9.10181578,11.024921 L9.10181578,20.9227376 L6.95023157,20.9227376 Z M3.9159009,20.9227376 L3.9159009,11.024921 L6.06777917,11.024921 L6.06777917,20.9227376 L3.9159009,20.9227376 Z M0.882158347,20.9227376 L0.882158347,11.024921 L3.03374256,11.024921 L3.03374256,20.9227376 L0.882158347,20.9227376 Z M17.2470779,8.89333235 C17.2467838,8.89362641 17.2464897,8.89362641 17.2461957,8.89392046 L16.0520473,9.73432331 L16.0520473,8.61809895 L26.4647504,1.29089172 L26.4647504,2.40711608 L17.2470779,8.89333235 Z M15.169889,10.1430567 L0.882158347,10.1430567 L0.882158347,8.830111 L15.169889,8.830111 L15.169889,10.1430567 Z M13.0180107,11.025215 L15.1695949,11.025215 L15.1695949,20.9230317 L13.0180107,20.9230317 L13.0180107,11.025215 Z M16.0520473,10.8129089 L17.0521209,10.1092406 L17.0521209,19.81063 L16.0520473,20.5142983 L16.0520473,10.8129089 Z M17.9342792,9.48849518 L18.9346468,8.78453282 L18.9346468,18.4859222 L17.9342792,19.1895905 L17.9342792,9.48849518 Z M19.8170992,8.16349335 L20.8171727,7.45982504 L20.8171727,17.1612144 L19.8170992,17.8648827 L19.8170992,8.16349335 Z M21.699331,6.83907961 L22.6996986,6.13511725 L22.6996986,15.8365067 L21.699331,16.540469 L21.699331,6.83907961 Z M23.5818569,5.51437183 L24.5819305,4.81070352 L24.5819305,14.5120929 L23.5818569,15.2157612 L23.5818569,5.51437183 Z M25.4643829,4.18966404 L26.4647504,3.48570168 L26.4647504,13.1870911 L25.4643829,13.8910534 L25.4643829,4.18966404 Z M11.8756157,0.882158347 L25.5126075,0.882158347 L17.8116592,6.30096302 L15.4712931,7.94795266 L1.83430126,7.94795266 L11.8756157,0.882158347 Z M0.882158347,21.804896 L15.169889,21.804896 L15.169889,23.1178417 L0.882158347,23.1178417 L0.882158347,21.804896 Z M26.4647504,15.3819011 L16.0520473,22.7091083 L16.0520473,21.5928839 L26.4647504,14.2656767 L26.4647504,15.3819011 Z" id="Shape"></path>
        </g>
    </g>
</svg>