<?xml version="1.0" encoding="utf-8"?>
<!-- Generator: Adobe Illustrator 24.3.0, SVG Export Plug-In . SVG Version: 6.00 Build 0)  -->
<svg version="1.1" id="Layer_1" xmlns="http://www.w3.org/2000/svg" xmlns:xlink="http://www.w3.org/1999/xlink" x="0px" y="0px"
	 viewBox="0 0 15 13" style="enable-background:new 0 0 15 13;" xml:space="preserve">
<style type="text/css">
	.st0{fill:#028FA0;}
</style>
<path id="home" class="st0" d="M7.8,0.1C7.6,0,7.4,0,7.2,0.1L0,5.7l0.6,0.8l0.9-0.7V12c0,0.6,0.4,1,1,1h10c0.6,0,1-0.4,1-1V5.8
	l0.9,0.7L15,5.7L7.8,0.1z M8.5,12h-2V8h2V12z M9.5,12L9.5,12V8c0-0.6-0.4-1-1-1h-2c-0.6,0-1,0.4-1,1v4h-3V5l5-3.9l5,3.9v7H9.5z"/>
</svg>
