<?xml version="1.0" encoding="utf-8"?>
<!-- Generator: Adobe Illustrator 24.3.0, SVG Export Plug-In . SVG Version: 6.00 Build 0)  -->
<svg version="1.1" id="Capa_1" xmlns="http://www.w3.org/2000/svg" xmlns:xlink="http://www.w3.org/1999/xlink" x="0px" y="0px"
	 viewBox="0 0 229 229" style="enable-background:new 0 0 229 229;" xml:space="preserve">
<style type="text/css">
	.st0{fill:#028FA0;}
</style>
<g>
	<path class="st0" d="M114.5,51.7c-32.7,0-59.2,26.6-59.2,59.2c0,13.4,4.4,26,12.7,36.5c1.6,2.1,3.4,4.1,5.2,6.2l0.1,0.1
		c5.6,6.5,11.3,13.1,13.5,21c0.5,1.8,0.6,5.3,0.5,7.9v4.5c0,4.1,3.4,7.5,7.5,7.5H134c4.1,0,7.5-3.4,7.5-7.5v-4.6
		c0-3.5,0.2-6,0.5-7.3c2.2-7.8,8.5-15.3,14.2-22l0.2-0.3c1.6-1.9,3.2-3.7,4.6-5.5c8.3-10.5,12.7-23.2,12.7-36.6
		C173.8,78.3,147.2,51.7,114.5,51.7z M149.3,138.3c-1.2,1.6-2.7,3.3-4.2,5.1l-0.3,0.4c-6.6,7.8-14.2,16.6-17.2,27.7
		c-0.4,1.6-0.9,3.9-1,8.4h-24.3c-0.1-4.8-0.6-7.2-1-8.9C98.1,159.7,90.6,151,84.6,144l-0.1-0.1c-1.7-2-3.3-3.8-4.7-5.7
		c-6.2-7.9-9.5-17.3-9.5-27.3c0-24.4,19.8-44.2,44.2-44.2c24.4,0,44.2,19.8,44.2,44.2C158.8,121,155.5,130.4,149.3,138.3z"/>
	<path class="st0" d="M134,196.9H94.7c-4.1,0-7.5,3.4-7.5,7.5s3.4,7.5,7.5,7.5H134c4.1,0,7.5-3.4,7.5-7.5S138.1,196.9,134,196.9z"/>
	<path class="st0" d="M124.2,214h-19.6c-4.1,0-7.5,3.4-7.5,7.5s3.4,7.5,7.5,7.5h19.6c4.1,0,7.5-3.4,7.5-7.5S128.3,214,124.2,214z"/>
	<path class="st0" d="M218,103.5h-25.9c-4.1,0-7.5,3.4-7.5,7.5s3.4,7.5,7.5,7.5H218c4.1,0,7.5-3.4,7.5-7.5S222.1,103.5,218,103.5z"
		/>
	<path class="st0" d="M44.4,111c0-4.1-3.4-7.5-7.5-7.5H11c-4.1,0-7.5,3.4-7.5,7.5s3.4,7.5,7.5,7.5h25.9
		C41,118.5,44.4,115.1,44.4,111z"/>
	<path class="st0" d="M114.5,40.9c4.1,0,7.5-3.4,7.5-7.5V7.5c0-4.1-3.4-7.5-7.5-7.5S107,3.4,107,7.5v25.9
		C107,37.5,110.4,40.9,114.5,40.9z"/>
	<path class="st0" d="M174.7,160.6c-2.9-2.9-7.7-2.9-10.6,0c-2.9,2.9-2.9,7.7,0,10.6l18.3,18.3c1.5,1.5,3.4,2.2,5.3,2.2
		c1.9,0,3.8-0.7,5.3-2.2c2.9-2.9,2.9-7.7,0-10.6L174.7,160.6z"/>
	<path class="st0" d="M54.3,61.4c1.5,1.5,3.4,2.2,5.3,2.2c1.9,0,3.8-0.7,5.3-2.2c2.9-2.9,2.9-7.7,0-10.6L46.6,32.5
		c-2.9-2.9-7.7-2.9-10.6,0c-2.9,2.9-2.9,7.7,0,10.6L54.3,61.4z"/>
	<path class="st0" d="M54.3,160.6L36,178.9c-2.9,2.9-2.9,7.7,0,10.6c1.5,1.5,3.4,2.2,5.3,2.2c1.9,0,3.8-0.7,5.3-2.2l18.3-18.3
		c2.9-2.9,2.9-7.7,0-10.6C62,157.6,57.3,157.6,54.3,160.6z"/>
	<path class="st0" d="M169.4,63.6c1.9,0,3.8-0.7,5.3-2.2L193,43.1c2.9-2.9,2.9-7.7,0-10.6c-2.9-2.9-7.7-2.9-10.6,0l-18.3,18.3
		c-2.9,2.9-2.9,7.7,0,10.6C165.6,62.9,167.5,63.6,169.4,63.6z"/>
</g>
</svg>
