<?xml version="1.0" encoding="utf-8"?>
<!-- Generator: Adobe Illustrator 24.3.0, SVG Export Plug-In . SVG Version: 6.00 Build 0)  -->
<svg version="1.1" id="icon" xmlns="http://www.w3.org/2000/svg" xmlns:xlink="http://www.w3.org/1999/xlink" x="0px" y="0px"
	 viewBox="0 0 32 32" style="enable-background:new 0 0 32 32;" xml:space="preserve">
<style type="text/css">
	.st0{fill:#028FA0;}
</style>
<g>
	<path class="st0" d="M16,18c-2.8,0-5-2.2-5-5s2.2-5,5-5s5,2.2,5,5C21,15.8,18.8,18,16,18z M16,10c-1.7,0-3,1.3-3,3s1.3,3,3,3
		s3-1.3,3-3C19,11.3,17.7,10,16,10z"/>
	<path class="st0" d="M16,30l-8.4-9.9c0-0.1-0.3-0.5-0.3-0.5C5.8,17.7,5,15.4,5,13C5,6.9,9.9,2,16,2s11,4.9,11,11
		c0,2.4-0.8,4.7-2.2,6.6l0,0c0,0-0.3,0.4-0.3,0.4L16,30z M8.8,18.4c0,0,0.2,0.3,0.3,0.4l6.9,8.1l6.9-8.1c0-0.1,0.3-0.4,0.3-0.4
		c1.2-1.6,1.8-3.4,1.8-5.4c0-5-4-9-9-9s-9,4-9,9C7,14.9,7.6,16.8,8.8,18.4z"/>
</g>
</svg>
