<?xml version="1.0" encoding="UTF-8"?>
<svg width="23px" height="13px" viewBox="0 0 23 13" version="1.1" xmlns="http://www.w3.org/2000/svg" xmlns:xlink="http://www.w3.org/1999/xlink">
    <!-- Generator: Sketch 57.1 (83088) - https://sketch.com -->
    <title>ic_findroute</title>
    <desc>Created with Sketch.</desc>
    <g id="ic_findroute" stroke="none" stroke-width="1" fill="none" fill-rule="evenodd">
        <g id="noun_route_1932839" fill="#000000" fill-rule="nonzero">
            <g id="Group" transform="translate(0.142857, 0.000000)">
                <path d="M4.56041667,0.139285714 C2.10833333,0.139285714 0.114583333,2.15892857 0.114583333,4.64285714 C0.114583333,6.45357143 2.36041667,9.54107143 3.68958333,11.1892857 C3.89583333,11.4446429 4.21666667,11.6071429 4.56041667,11.6071429 C4.90416667,11.6071429 5.20208333,11.4446429 5.43125,11.1892857 C6.7375,9.51785714 8.98333333,6.45357143 8.98333333,4.64285714 C8.98333333,2.15892857 6.98958333,0.139285714 4.56041667,0.139285714 Z M4.62916667,10.5392857 C4.60625,10.5625 4.58333333,10.5625 4.56041667,10.5625 C4.5375,10.5625 4.51458333,10.5625 4.49166667,10.5392857 C2.38333333,7.91607143 1.14583333,5.71071429 1.14583333,4.64285714 C1.14583333,2.73928571 2.68125,1.18392857 4.56041667,1.18392857 C6.43958333,1.18392857 7.975,2.73928571 7.975,4.64285714 C7.975,5.71071429 6.71458333,7.91607143 4.62916667,10.5392857 Z" id="Shape"></path>
                <path d="M4.56041667,2.39107143 C3.34583333,2.39107143 2.3375,3.38928571 2.3375,4.64285714 C2.3375,5.87321429 3.32291667,6.89464286 4.56041667,6.89464286 C5.775,6.89464286 6.78333333,5.89642857 6.78333333,4.64285714 C6.76041667,3.4125 5.775,2.39107143 4.56041667,2.39107143 Z M4.56041667,5.85 C3.89583333,5.85 3.36875,5.31607143 3.36875,4.64285714 C3.36875,3.96964286 3.89583333,3.43571429 4.56041667,3.43571429 C5.225,3.43571429 5.75208333,3.96964286 5.75208333,4.64285714 C5.75208333,5.29285714 5.20208333,5.85 4.56041667,5.85 Z" id="Shape"></path>
                <path d="M17.4395833,0.139285714 C14.9875,0.139285714 12.99375,2.15892857 12.99375,4.64285714 C12.99375,6.45357143 15.2395833,9.54107143 16.56875,11.1892857 C16.775,11.4446429 17.0958333,11.6071429 17.4395833,11.6071429 C17.4395833,11.6071429 17.4395833,11.6071429 17.4395833,11.6071429 C17.7833333,11.6071429 18.08125,11.4446429 18.3104167,11.1892857 C19.6395833,9.51785714 21.8854167,6.45357143 21.8854167,4.64285714 C21.8854167,2.15892857 19.8916667,0.139285714 17.4395833,0.139285714 Z M17.5083333,10.5392857 C17.4854167,10.5625 17.4625,10.5625 17.4395833,10.5625 C17.4166667,10.5625 17.39375,10.5625 17.3708333,10.5392857 C15.2854167,7.91607143 14.025,5.71071429 14.025,4.64285714 C14.025,2.73928571 15.5604167,1.18392857 17.4395833,1.18392857 C19.3416667,1.18392857 20.8541667,2.73928571 20.8541667,4.64285714 C20.8541667,5.71071429 19.6166667,7.91607143 17.5083333,10.5392857 Z" id="Shape"></path>
                <path d="M17.4395833,2.39107143 C16.225,2.39107143 15.2166667,3.38928571 15.2166667,4.64285714 C15.2166667,5.87321429 16.2020833,6.89464286 17.4395833,6.89464286 C18.6541667,6.89464286 19.6625,5.89642857 19.6625,4.64285714 C19.6625,3.4125 18.6770833,2.39107143 17.4395833,2.39107143 Z M17.4395833,5.85 C16.775,5.85 16.2479167,5.31607143 16.2479167,4.64285714 C16.2479167,3.96964286 16.775,3.43571429 17.4395833,3.43571429 C18.1041667,3.43571429 18.63125,3.96964286 18.63125,4.64285714 C18.63125,5.29285714 18.1041667,5.85 17.4395833,5.85 Z" id="Shape"></path>
                <path d="M13.7270833,9.47142857 C13.5208333,9.2625 13.2,9.2625 13.0166667,9.47142857 C12.8104167,9.68035714 12.8104167,10.0053571 13.0166667,10.1910714 L13.3833333,10.5625 L8.63958333,10.5625 L9.00625,10.1910714 C9.2125,9.98214286 9.2125,9.65714286 9.00625,9.47142857 C8.8,9.2625 8.47916667,9.2625 8.29583333,9.47142857 L7.05833333,10.725 C6.85208333,10.9339286 6.85208333,11.2589286 7.05833333,11.4446429 L8.29583333,12.6982143 C8.3875,12.7910714 8.525,12.8607143 8.6625,12.8607143 C8.8,12.8607143 8.91458333,12.8142857 9.02916667,12.6982143 C9.23541667,12.4892857 9.23541667,12.1642857 9.02916667,11.9785714 L8.63958333,11.6071429 L13.3604167,11.6071429 L12.99375,11.9785714 C12.7875,12.1875 12.7875,12.5125 12.99375,12.6982143 C13.0854167,12.7910714 13.2229167,12.8607143 13.3604167,12.8607143 C13.4979167,12.8607143 13.6125,12.8142857 13.7270833,12.6982143 L14.9645833,11.4446429 C15.1708333,11.2357143 15.1708333,10.9107143 14.9645833,10.725 L13.7270833,9.47142857 Z" id="Path"></path>
            </g>
        </g>
    </g>
</svg>