<?xml version="1.0" encoding="UTF-8"?>
<svg width="20px" height="15px" viewBox="0 0 20 15" version="1.1" xmlns="http://www.w3.org/2000/svg" xmlns:xlink="http://www.w3.org/1999/xlink">
    <!-- Generator: Sketch 57.1 (83088) - https://sketch.com -->
    <g id="ic_rail" stroke="none" stroke-width="1" fill="none" fill-rule="evenodd">
        <g id="Group-41" fill="#5F6364" fill-rule="nonzero">
            <path d="M2.66666667,14 L0.666666667,14 C0.298476833,14 0,14.2238576 0,14.5 C0,14.7761424 0.298476833,15 0.666666667,15 L19.3333333,15 C19.7015232,15 20,14.7761424 20,14.5 C20,14.2238576 19.7015232,14 19.3333333,14 L2.66666667,14 Z" id="Path"></path>
            <path d="M0.75,4 L2.25,4 C2.66421356,4 3,3.77614237 3,3.5 C3,3.22385763 2.66421356,3 2.25,3 L0.75,3 C0.335786438,3 0,3.22385763 0,3.5 C0,3.77614237 0.335786438,4 0.75,4 Z" id="Path"></path>
            <path d="M16,12.6666667 L19.3333333,12.6666667 C19.7015232,12.6666667 20,12.3681898 20,12 L20,9.33333333 C20,7.20733333 17.4666667,5.252 15.346,3.98666667 C14.6248567,3.55830527 13.80144,3.33258544 12.9626667,3.33333333 L12.4513333,3.33333333 L11.6513333,1.33333333 L12,1.33333333 C12.3681898,1.33333333 12.6666667,1.0348565 12.6666667,0.666666667 C12.6666667,0.298476833 12.3681898,0 12,0 L9.33333333,0 C8.9651435,0 8.66666667,0.298476833 8.66666667,0.666666667 C8.66666667,1.0348565 8.9651435,1.33333333 9.33333333,1.33333333 L10.2153333,1.33333333 L11.0153333,3.33333333 L4.72933333,3.33333333 C4.3611435,3.33333333 4.06266667,3.63181017 4.06266667,4 C4.06266667,4.36818983 4.3611435,4.66666667 4.72933333,4.66666667 L12.9626667,4.66666667 C13.0566667,4.66666667 13.1486667,4.67733333 13.2413333,4.68533333 C12.9147289,4.72731742 12.6693119,5.00405211 12.6666667,5.33333333 L12.6666667,8 C12.6666667,8.36818983 12.9651435,8.66666667 13.3333333,8.66666667 L18.5033333,8.66666667 C18.6002889,8.87626649 18.6557536,9.10265308 18.6666667,9.33333333 L18.6666667,11.3333333 L0.666666667,11.3333333 C0.298476833,11.3333333 0,11.6318102 0,12 C0,12.3681898 0.298476833,12.6666667 0.666666667,12.6666667 L1.33333333,12.6666667 C1.33333333,13.4030463 1.930287,14 2.66666667,14 C3.40304633,14 4,13.4030463 4,12.6666667 L9.33333333,12.6666667 C9.33333333,13.4030463 9.930287,14 10.6666667,14 C11.4030463,14 12,13.4030463 12,12.6666667 L13.3333333,12.6666667 C13.3333333,13.4030463 13.930287,14 14.6666667,14 C15.4030463,14 16,13.4030463 16,12.6666667 Z M14,6 L15.9833333,6 C16.5506373,6.39661467 17.0816104,6.84281059 17.57,7.33333333 L14,7.33333333 L14,6 Z" id="Shape"></path>
            <path d="M1.66666667,8.66666667 C1.29847683,8.66666667 1,8.9651435 1,9.33333333 C1,9.70152317 1.29847683,10 1.66666667,10 L10.3333333,10 C10.7015232,10 11,9.70152317 11,9.33333333 L11,6.66666667 C11,6.29847683 10.7015232,6 10.3333333,6 L1.66666667,6 C1.29847683,6 1,6.29847683 1,6.66666667 C1,7.0348565 1.29847683,7.33333333 1.66666667,7.33333333 L3,7.33333333 L3,8.66666667 L1.66666667,8.66666667 Z M9.66666667,8.66666667 L7.66666667,8.66666667 L7.66666667,7.33333333 L9.66666667,7.33333333 L9.66666667,8.66666667 Z M4.33333333,7.33333333 L6.33333333,7.33333333 L6.33333333,8.66666667 L4.33333333,8.66666667 L4.33333333,7.33333333 Z" id="Shape"></path>
        </g>
    </g>
</svg>