<?xml version="1.0" encoding="UTF-8"?>
<svg width="18px" height="11px" viewBox="0 0 18 11" version="1.1" xmlns="http://www.w3.org/2000/svg" xmlns:xlink="http://www.w3.org/1999/xlink">
    <!-- Generator: Sketch 57.1 (83088) - https://sketch.com -->
    <g id="ic_ship" stroke="none" stroke-width="1" fill="none" fill-rule="evenodd">
        <path d="M2.0811042,5.05405405 L1.1892123,5.05405405 C1.02501954,5.05405405 0.891915007,5.18715859 0.891915007,5.35135135 L0.891915007,7.43243243 L0.297320413,7.43243243 C0.203358359,7.43242591 0.11492377,7.47683935 0.0588186468,7.55221231 C0.00271352353,7.62758527 -0.014457508,7.72504493 0.0125096018,7.81505405 L0.904401494,10.788027 C0.94209507,10.9138383 1.0578758,11 1.1892123,11 L15.7567799,11 C15.893144,11 16.0120218,10.9072227 16.0451583,10.7749459 L16.1584285,10.3224595 C16.2689825,9.88117719 16.4771505,9.47032732 16.7675907,9.12018919 L17.7676988,7.92 C17.8126633,7.86675986 17.8374963,7.79941607 17.837861,7.72972973 L17.837861,7.13513514 C17.837861,6.97094237 17.7047564,6.83783784 17.5405637,6.83783784 L16.9459691,6.83783784 L16.9459691,6.24324324 C16.9459691,6.07905048 16.8128645,5.94594595 16.6486718,5.94594595 C16.484479,5.94594595 16.3513745,6.07905048 16.3513745,6.24324324 L16.3513745,6.83783784 L15.7567799,6.83783784 L15.7567799,6.54054054 C15.7567799,6.37634778 15.6236753,6.24324324 15.4594826,6.24324324 C15.2952898,6.24324324 15.1621853,6.37634778 15.1621853,6.54054054 L15.1621853,6.83783784 L14.2702934,6.83783784 C14.2115833,6.83793072 14.154199,6.85530111 14.1052934,6.88778378 L13.3784015,7.37297297 L13.3784015,5.94594595 C13.3784015,5.78175318 13.245297,5.64864865 13.0811042,5.64864865 L12.7838069,5.64864865 L12.7838069,4.16216216 C12.7838069,3.9979694 12.6507024,3.86486486 12.4865096,3.86486486 L7.13515825,3.86486486 C6.97096549,3.86486486 6.83786095,3.9979694 6.83786095,4.16216216 L6.83786095,5.64864865 L6.24326636,5.64864865 L6.24326636,5.35135135 C6.24326636,5.18715859 6.11016182,5.05405405 5.94596906,5.05405405 L5.05407717,5.05405405 L5.05407717,4.25135135 L5.51042852,3.56756757 L5.94596906,3.56756757 C6.0823332,3.56756398 6.20121095,3.47479032 6.23434744,3.34251351 L6.53164474,2.15332432 C6.55389672,2.06449713 6.53397235,1.9703716 6.47763608,1.89817987 C6.42129981,1.82598813 6.3348383,1.78378619 6.24326636,1.78378378 L4.45948257,1.78378378 L4.45948257,1.48648649 C4.45792135,1.1098746 4.21996526,0.774832435 3.86488798,0.649297297 L3.86488798,0.297297297 C3.86488798,0.133104534 3.73178345,0 3.56759068,0 C3.40339792,0 3.27029339,0.133104534 3.27029339,0.297297297 L3.27029339,0.649297297 C2.9152161,0.774832435 2.67726002,1.1098746 2.67569879,1.48648649 L2.67569879,1.78378378 L0.891915007,1.78378378 C0.800343061,1.78378619 0.713881555,1.82598813 0.657545288,1.89817987 C0.60120902,1.9703716 0.581284646,2.06449713 0.603536629,2.15332432 L0.900833926,3.34251351 C0.933970412,3.47479032 1.05284816,3.56756398 1.1892123,3.56756757 L1.62475284,3.56756757 L2.0811042,4.25135135 L2.0811042,5.05405405 Z M15.5245907,10.4054054 L1.41040149,10.4054054 L1.23202312,9.81081081 L15.6973204,9.81081081 C15.6527251,9.93119695 15.6145188,10.0538542 15.582861,10.1782703 L15.5245907,10.4054054 Z M14.3594826,7.43243243 L17.2432664,7.43243243 L17.2432664,7.62210811 L16.3121312,8.74054054 C16.1897842,8.88996742 16.0797227,9.04904455 15.9830231,9.21621622 L1.05364474,9.21621622 L0.69688798,8.02702703 L13.3784015,8.02702703 C13.4371116,8.02693415 13.4944959,8.00956376 13.5434015,7.97708108 L14.3594826,7.43243243 Z M8.02705014,6.24324324 L9.21623933,6.24324324 L9.21623933,7.43243243 L8.02705014,7.43243243 L8.02705014,6.24324324 Z M10.7027258,6.24324324 L11.0000231,6.24324324 L11.0000231,7.43243243 L9.81083393,7.43243243 L9.81083393,6.24324324 L10.7027258,6.24324324 Z M12.4865096,6.24324324 L12.7838069,6.24324324 L12.7838069,7.43243243 L11.5946177,7.43243243 L11.5946177,6.24324324 L12.4865096,6.24324324 Z M12.1892123,5.64864865 L11.0000231,5.64864865 L11.0000231,4.45945946 L12.1892123,4.45945946 L12.1892123,5.64864865 Z M10.4054285,5.64864865 L9.21623933,5.64864865 L9.21623933,4.45945946 L10.4054285,4.45945946 L10.4054285,5.64864865 Z M7.43245555,4.45945946 L8.62164474,4.45945946 L8.62164474,5.64864865 L7.43245555,5.64864865 L7.43245555,4.45945946 Z M7.13515825,6.24324324 L7.43245555,6.24324324 L7.43245555,7.43243243 L6.24326636,7.43243243 L6.24326636,6.24324324 L7.13515825,6.24324324 Z M5.64867176,5.94594595 L5.64867176,7.43243243 L1.4865096,7.43243243 L1.4865096,5.64864865 L5.64867176,5.64864865 L5.64867176,5.94594595 Z M3.27029339,1.48648649 C3.27029339,1.32229372 3.40339792,1.18918919 3.56759068,1.18918919 C3.73178345,1.18918919 3.86488798,1.32229372 3.86488798,1.48648649 L3.86488798,1.78378378 L3.27029339,1.78378378 L3.27029339,1.48648649 Z M1.27275284,2.37837838 L5.86242852,2.37837838 L5.71377987,2.97297297 L1.42140149,2.97297297 L1.27275284,2.37837838 Z M4.79572582,3.56756757 L4.50942852,3.99716216 C4.47694584,4.04606776 4.45957546,4.10345208 4.45948257,4.16216216 L4.45948257,5.05405405 L2.67569879,5.05405405 L2.67569879,4.16216216 C2.67560591,4.10345208 2.65823552,4.04606776 2.62575284,3.99716216 L2.33945555,3.56756757 L4.79572582,3.56756757 Z" id="Shape" stroke="#5F6364" stroke-width="0.4" fill="#5F6364" fill-rule="nonzero"></path>
    </g>
</svg>