<?xml version="1.0" encoding="UTF-8"?>
<svg width="20px" height="11px" viewBox="0 0 20 11" version="1.1" xmlns="http://www.w3.org/2000/svg" xmlns:xlink="http://www.w3.org/1999/xlink">
    <!-- Generator: Sketch 57.1 (83088) - https://sketch.com -->
    <g id="ic_truck" stroke="none" stroke-width="1" fill="none" fill-rule="evenodd">
        <path d="M0.476190476,9.56521739 L1.4952381,9.56521739 C1.70952381,10.3878261 2.44761905,11 3.33333333,11 C4.21904762,11 4.95714286,10.3878261 5.17142857,9.56521739 L13.8095238,9.56521739 L14.352381,9.56521739 C14.5666667,10.3878261 15.3047619,11 16.1904762,11 C17.0761905,11 17.8142857,10.3878261 18.0285714,9.56521739 L19.5238095,9.56521739 C19.7857143,9.56521739 20,9.35 20,9.08695652 L20,5.26086957 C20,5.13173913 19.947619,5.01217391 19.8619048,4.92130435 L17.9571429,3.00826087 C17.8666667,2.9173913 17.747619,2.86956522 17.6190476,2.86956522 L14.2857143,2.86956522 L14.2857143,0.47826087 C14.2857143,0.215217391 14.0714286,0 13.8095238,0 L0.476190476,0 C0.214285714,0 0,0.215217391 0,0.47826087 L0,9.08695652 C0,9.35 0.214285714,9.56521739 0.476190476,9.56521739 Z M16,10 C15.45,10 15,9.55 15,9 C15,8.45 15.45,8 16,8 C16.55,8 17,8.45 17,9 C17,9.55 16.55,10 16,10 Z M16,4 L17.295,4 L19,5.705 L19,6 L16,6 L16,4 Z M14,4 L15,4 L15,6.5 C15,6.775 15.225,7 15.5,7 L19,7 L19,9 L17.93,9 C17.705,8.14 16.93,7.5 16,7.5 C15.07,7.5 14.295,8.14 14.07,9 L14,9 L14,4 Z M3,10 C2.45,10 2,9.55 2,9 C2,8.45 2.45,8 3,8 C3.55,8 4,8.45 4,9 C4,9.55 3.55,10 3,10 Z M1,1 L13,1 L13,3.27272727 L13,6 L1,6 L1,1 Z M1,7 L3.30769231,7 L13,7 L13,8 L5.08923077,8 C4.88153846,7.42666667 4.16615385,7 3.30769231,7 C2.44923077,7 1.73384615,7.42666667 1.52615385,8 L1,8 L1,7 Z" id="Shape" stroke="#5F6364" stroke-width="0.4" fill="#5F6364" fill-rule="nonzero"></path>
    </g>
</svg>