<?xml version="1.0" encoding="UTF-8"?>
<svg width="44px" height="18px" viewBox="0 0 44 18" version="1.1" xmlns="http://www.w3.org/2000/svg" xmlns:xlink="http://www.w3.org/1999/xlink">
    <!-- Generator: Sketch 57.1 (83088) - https://sketch.com -->
    <title>ic_vehicles</title>
    <desc>Created with Sketch.</desc>
    <g id="ic_vehicles" stroke="none" stroke-width="1" fill="none" fill-rule="evenodd">
        <g id="noun_Wedding-Car_3488280" fill="#000000" fill-rule="nonzero">
            <path d="M43.0328571,12.0921429 L42.5057143,10.6907143 L42.5057143,8.51142857 C42.5200337,7.56427439 41.8443715,6.74694106 40.9114286,6.58285714 L34.4828571,5.46428571 C33.5507143,4.89857143 27.1992857,1.18928571 20.0507143,0.533571429 C12.9021429,-0.122142857 6.85285714,3.47785714 5.78571429,4.12071429 L1.60714286,4.39071429 C1.42952827,4.40136633 1.26427273,4.48515787 1.15071429,4.62214286 C1.03841006,4.758632 0.987257873,4.93533955 1.00928571,5.11071429 L1.37571429,8.235 L0.732857143,9.37928571 C0.655352581,9.50861443 0.625771528,9.66107063 0.649285714,9.81 L1.035,12.0921429 C1.08125481,12.3558813 1.2861422,12.5633298 1.54928571,12.6128571 L4.89857143,13.2557143 L5.13,13.2878571 C5.14843063,13.4649368 5.17632769,13.6409029 5.21357143,13.815 C5.54522638,15.2964285 6.70214294,16.4533451 8.18357143,16.785 C8.47639795,16.8540168 8.77629367,16.8885372 9.07714286,16.8878571 C10.8034742,16.9029916 12.337312,15.7891332 12.8571429,14.1428571 L31.2814286,14.1428571 C31.2814286,14.2392857 31.2814286,14.3357143 31.3264286,14.4321429 C31.6605339,15.9145465 32.8197346,17.0712435 34.3028571,17.4021429 C34.5956837,17.4711597 34.8955794,17.5056801 35.1964286,17.5050099 C37.1546199,17.5033852 38.8205926,16.0773562 39.1242857,14.1428571 L42.21,14.1428571 C42.5243595,14.1479847 42.7963067,13.9249881 42.8528571,13.6157143 L43.0714286,12.4328571 C43.0896558,12.3178882 43.0763245,12.2001275 43.0328571,12.0921429 Z M19.9671429,1.80642857 C25.2514286,2.295 30.2014286,4.59 32.5414286,5.82428571 L30.4778571,6.32571429 L18.8035714,5.27785714 L18.0835714,1.76142857 C18.7122193,1.75322466 19.3408797,1.77682625 19.9671429,1.83214286 L19.9671429,1.80642857 Z M16.7528571,1.80642857 L17.4664286,5.14285714 L8.17714286,4.30071429 C10.8719091,2.96462855 13.7858111,2.12617394 16.7785714,1.82571429 L16.7528571,1.80642857 Z M8.46,15.5314286 C7.47041129,15.3008515 6.69771991,14.5281601 6.46714286,13.5385714 C6.42657486,13.3138479 6.41362171,13.0850089 6.42857143,12.8571429 C6.43129702,12.8379534 6.43129702,12.8184751 6.42857143,12.7992857 C6.43167347,12.7629232 6.43167347,12.7263625 6.42857143,12.69 C6.48970127,11.9673416 6.83966203,11.2998668 7.39928571,10.8385714 C7.8781653,10.4478167 8.4783702,10.2363809 9.09642857,10.2407143 C9.52631124,10.2437731 9.95091665,10.335698 10.3435714,10.5107143 C10.8571852,10.7482508 11.2696064,11.1606719 11.5071429,11.6742857 C11.9709657,12.6374743 11.8436289,13.7810083 11.1792857,14.6185714 C10.5200975,15.4150577 9.46626087,15.7688279 8.46,15.5314286 Z M37.0992857,15.4607143 C36.0437376,16.4710888 34.3742919,16.4528389 33.3410836,15.4196306 C32.3078754,14.3864224 32.2896255,12.7169767 33.3,11.6614286 C33.8081919,11.1459809 34.5048047,10.8603697 35.2285714,10.8707143 C35.4447562,10.8714628 35.6602502,10.8951672 35.8714286,10.9414286 C36.8139732,11.1677096 37.5615957,11.8840826 37.8278901,12.816113 C38.0941845,13.7481434 37.8378719,14.7513551 37.1571429,15.4414286 L37.0992857,15.4607143 Z M41.67,12.8892857 L39.0985714,12.8892857 C39.0985714,12.8121429 39.0985714,12.7414286 39.0985714,12.6642857 C38.7669165,11.1828572 37.6099999,10.0259407 36.1285714,9.69428571 C34.7920271,9.3872977 33.3914625,9.78780579 32.4192857,10.755 C31.8358791,11.3224832 31.4428251,12.0569326 31.2942857,12.8571429 L13.05,12.8571429 C13.0460495,12.2577563 12.9145648,11.6660755 12.6642857,11.1214286 C12.3059979,10.3130502 11.659807,9.66685928 10.8514286,9.30857143 C9.44899194,8.63717478 7.78543715,8.8322985 6.57642857,9.81 C5.90000345,10.3636581 5.42541624,11.1252575 5.22642857,11.9764286 L5.09785714,11.9764286 L2.23071429,11.4235714 L1.96071429,9.81 L2.60357143,8.685 C2.67527428,8.56288904 2.70465206,8.42051979 2.68714286,8.28 L2.37857143,5.61857143 L6.01071429,5.38071429 L30.4392857,7.62428571 L30.5035714,7.62428571 L30.6514286,7.62428571 L34.2707143,6.75 L40.6607143,7.86214286 C40.9725488,7.91590332 41.198886,8.18859874 41.1942857,8.505 L41.1942857,10.8 C41.1936168,10.8767005 41.2066799,10.9529017 41.2328571,11.025 L41.7857143,12.375 L41.67,12.8892857 Z" id="Shape"></path>
            <path d="M24.8914286,8.94214286 L23.5028571,8.94214286 C23.1478169,8.94214286 22.86,9.2299598 22.86,9.585 C22.86,9.9400402 23.1478169,10.2278571 23.5028571,10.2278571 L24.8914286,10.2278571 C25.2464688,10.2278571 25.5342857,9.9400402 25.5342857,9.585 C25.5342857,9.2299598 25.2464688,8.94214286 24.8914286,8.94214286 Z" id="Path"></path>
            <path d="M18,8.56928571 L16.605,8.56928571 C16.2499598,8.56928571 15.9621429,8.85710266 15.9621429,9.21214286 C15.9621429,9.56718305 16.2499598,9.855 16.605,9.855 L18,9.855 C18.3550402,9.855 18.6428571,9.56718305 18.6428571,9.21214286 C18.6428571,8.85710266 18.3550402,8.56928571 18,8.56928571 Z" id="Path"></path>
        </g>
    </g>
</svg>