<?xml version="1.0" encoding="utf-8"?>
<!-- Generator: Adobe Illustrator 24.2.0, SVG Export Plug-In . SVG Version: 6.00 Build 0)  -->
<svg version="1.1" xmlns="http://www.w3.org/2000/svg" xmlns:xlink="http://www.w3.org/1999/xlink" x="0px" y="0px"
	 viewBox="0 0 534.2 370.3" style="enable-background:new 0 0 534.2 370.3;" xml:space="preserve">
<style type="text/css">
	.st0{fill:#EDEFF4;}
	.st1{fill:url(#XMLID_3_);}
	.st2{opacity:0.5;fill:url(#XMLID_4_);}
	.st3{fill:url(#XMLID_6_);}
	.st4{fill:#E8E8E8;}
	.st5{fill:url(#SVGID_1_);}
	.st6{opacity:0.5;}
	.st7{fill:url(#SVGID_2_);}
	.st8{fill:url(#SVGID_3_);}
	.st9{fill:url(#SVGID_4_);}
	.st10{fill:url(#XMLID_11_);}
	.st11{fill:#028FA0;}
	.st12{fill:url(#XMLID_19_);}
	.st13{fill:url(#XMLID_22_);}
	.st14{fill:none;stroke:#028FA0;stroke-width:2;stroke-miterlimit:10;}
	.st15{fill:url(#XMLID_39_);}
	.st16{fill:#028FA0;}
	.st17{fill:url(#XMLID_40_);}
	.st18{fill:url(#XMLID_44_);}
	.st19{fill:url(#XMLID_45_);}
	.st20{fill:url(#XMLID_46_);}
	.st21{fill:url(#XMLID_47_);}
	.st22{fill:none;stroke:url(#XMLID_48_);stroke-width:2.3;stroke-miterlimit:10;}
	.st23{opacity:0.7;}
	.st24{fill:url(#XMLID_49_);}
	.st25{fill:url(#XMLID_50_);}
	.st26{fill:url(#XMLID_51_);}
	.st27{fill:url(#XMLID_52_);}
	.st28{fill:url(#XMLID_53_);}
	.st29{fill:url(#XMLID_54_);}
	.st30{fill:url(#XMLID_55_);}
	.st31{fill:none;stroke:url(#XMLID_56_);stroke-width:2.3;stroke-miterlimit:10;}
	.st32{fill:url(#XMLID_57_);}
	.st33{fill:url(#XMLID_58_);}
	.st34{fill:url(#XMLID_59_);}
	.st35{fill:url(#XMLID_60_);}
	.st36{fill:url(#XMLID_61_);}
	.st37{fill:url(#XMLID_62_);}
	.st38{fill:url(#XMLID_63_);}
	.st39{fill:none;stroke:url(#XMLID_64_);stroke-width:2.3;stroke-miterlimit:10;}
	.st40{fill:none;stroke:#00AABE;stroke-miterlimit:10;}
	.st41{fill:none;stroke:#028FA0;stroke-miterlimit:10;}
	.st42{fill:url(#XMLID_65_);}
	.st43{fill:none;stroke:#F9962B;stroke-width:0.5661;stroke-linecap:round;stroke-miterlimit:10;}
	.st44{fill:url(#XMLID_66_);}
	.st45{fill:url(#XMLID_67_);}
	.st46{fill:url(#SVGID_5_);}
	.st47{fill:url(#SVGID_6_);}
	.st48{fill:none;stroke:url(#XMLID_68_);stroke-width:3;stroke-miterlimit:10;}
	.st49{fill:none;stroke:url(#XMLID_69_);stroke-width:3;stroke-miterlimit:10;}
	.st50{fill:url(#XMLID_70_);}
	.st51{fill:url(#XMLID_71_);}
	.st52{fill:url(#XMLID_72_);}
	.st53{fill:url(#XMLID_73_);}
	.st54{fill:url(#XMLID_74_);}
	.st55{fill:url(#XMLID_75_);}
	.st56{fill:url(#XMLID_76_);}
	.st57{fill:none;stroke:url(#XMLID_77_);stroke-miterlimit:10;}
	.st58{fill:url(#XMLID_78_);}
	.st59{fill:url(#XMLID_79_);}
	.st60{fill:url(#XMLID_80_);}
	.st61{fill:url(#XMLID_81_);}
	.st62{fill:url(#XMLID_82_);}
	.st63{fill:url(#XMLID_83_);}
	.st64{fill:url(#XMLID_84_);}
	.st65{fill:none;stroke:url(#XMLID_85_);stroke-miterlimit:10;}
	.st66{fill:url(#XMLID_88_);}
	.st67{fill:url(#XMLID_89_);}
	.st68{fill:url(#XMLID_90_);}
	.st69{fill:url(#XMLID_91_);}
	.st70{fill:url(#XMLID_92_);}
	.st71{fill:url(#XMLID_97_);}
	.st72{fill:url(#XMLID_98_);}
	.st73{fill:none;stroke:url(#XMLID_102_);stroke-miterlimit:10;}
	.st74{fill:none;stroke:url(#XMLID_103_);stroke-width:3;stroke-miterlimit:10;}
	.st75{fill:url(#XMLID_114_);}
	.st76{fill:url(#XMLID_116_);}
	.st77{fill:url(#XMLID_121_);}
	.st78{fill:url(#SVGID_7_);}
	.st79{fill:url(#SVGID_8_);}
	.st80{fill:url(#SVGID_9_);}
	.st81{fill:url(#SVGID_10_);}
	.st82{fill:url(#SVGID_11_);}
	.st83{fill:url(#SVGID_12_);}
	.st84{fill:url(#SVGID_13_);}
	.st85{fill:url(#SVGID_14_);}
	.st86{fill:url(#SVGID_15_);}
	.st87{fill:url(#SVGID_16_);}
	.st88{fill:url(#XMLID_239_);}
	.st89{fill:url(#XMLID_240_);}
	.st90{fill:url(#XMLID_241_);}
	.st91{fill:url(#XMLID_243_);}
	.st92{fill:#028FA0;}
	.st93{fill:url(#XMLID_244_);}
	.st94{fill:url(#XMLID_245_);}
	.st95{fill:#028FA0;}
	.st96{fill:url(#XMLID_246_);}
	.st97{fill:url(#XMLID_248_);}
	.st98{fill:url(#XMLID_249_);}
	.st99{fill:url(#XMLID_252_);}
	.st100{fill:url(#XMLID_253_);}
	.st101{fill:url(#XMLID_254_);}
	.st102{fill:#028FA0;}
	.st103{fill:url(#SVGID_17_);}
	.st104{fill:url(#XMLID_255_);}
	.st105{fill:url(#XMLID_256_);}
	.st106{fill:url(#XMLID_257_);}
	.st107{fill:#028FA0;}
	.st108{fill:url(#XMLID_258_);}
	.st109{fill:url(#XMLID_259_);}
	.st110{fill:url(#XMLID_260_);}
	.st111{fill:url(#SVGID_18_);}
	.st112{fill:url(#SVGID_19_);}
	.st113{fill:url(#SVGID_20_);}
	.st114{fill:url(#SVGID_21_);}
	.st115{fill:url(#SVGID_22_);}
</style>
<g id="BACKGROUND">
</g>
<g id="OBJECTS">
	<g id="XMLID_138_">
		<path id="XMLID_146_" class="st0" d="M343,24.9C337,14.2,323,12,313.2,9.3c-12.3-3.4-25.3-5.8-38-4.9
			c-10.5,0.7-22.8,2.9-29.5,13.5c-6.9,11-2.4,24.1,6.4,31.3c9.9,8.2,24.1,10.8,35.9,11.7c6.7,0.5,14.2,0.5,21.4-0.8
			c7.6,0,15.1-1.2,22-4.9C341.1,50.2,349.6,36.9,343,24.9z"/>
		<path id="XMLID_13_" class="st0" d="M474.9,19.6c0,0-59.7-56.1-117.9,26.8s-225.8-68-304,58.2c-61.4,98.9,9.4,271,204.1,252.9
			C436.8,340.8,552.2,121.6,474.9,19.6z"/>
		<g id="XMLID_155_">
			
				<linearGradient id="XMLID_3_" gradientUnits="userSpaceOnUse" x1="403.7609" y1="170.9251" x2="420.7098" y2="170.9251" gradientTransform="matrix(0.9905 0.1373 -0.1373 0.9905 27.8846 -49.6121)">
				<stop  offset="0" style="stop-color:#00AABE"/>
				<stop  offset="1" style="stop-color:#028FA0"/>
			</linearGradient>
			<path id="XMLID_149_" class="st1" d="M421.6,173.9c0,0-4.7-0.9-6.6-1.6s-1.5,1.5-0.3,1.8c1.3,0.3-10.1-1.9-10.2-0.4
				c-0.1,1.6,1.2,5.7,4.5,6.4c3.2,0.7,10.8,0.7,10.8,0.7L421.6,173.9z"/>
			
				<linearGradient id="XMLID_4_" gradientUnits="userSpaceOnUse" x1="403.7609" y1="170.9251" x2="420.7098" y2="170.9251" gradientTransform="matrix(0.9905 0.1373 -0.1373 0.9905 27.8846 -49.6121)">
				<stop  offset="0" style="stop-color:#00AABE"/>
				<stop  offset="1" style="stop-color:#028FA0"/>
			</linearGradient>
			<path id="XMLID_10_" class="st2" d="M421.6,173.9c0,0-4.7-0.9-6.6-1.6s-1.5,1.5-0.3,1.8c1.3,0.3-10.1-1.9-10.2-0.4
				c-0.1,1.6,1.2,5.7,4.5,6.4c3.2,0.7,10.8,0.7,10.8,0.7L421.6,173.9z"/>
		</g>
		
			<linearGradient id="XMLID_6_" gradientUnits="userSpaceOnUse" x1="388.4162" y1="166.7546" x2="463.0448" y2="166.7546" gradientTransform="matrix(0.486 -0.874 0.874 0.486 94.6973 460.0437)">
			<stop  offset="0" style="stop-color:#F4BA38"/>
			<stop  offset="0.2815" style="stop-color:#F6C23B"/>
			<stop  offset="0.7214" style="stop-color:#FBD843"/>
			<stop  offset="1" style="stop-color:#FFEA49"/>
		</linearGradient>
		<path id="XMLID_110_" class="st3" d="M483.7,136.9c0,0,3.3,24.7-13,36.5c-16.3,11.8-41.6,12.2-53.2,8.3l-0.7-9.7
			c0,0,26.3-7.3,32.9-18c6.7-10.7,9.6-26.2,16.1-27C472.3,126.2,479.9,128.9,483.7,136.9z"/>
		<g id="XMLID_538_">
			<g id="XMLID_280_">
				<path id="XMLID_281_" class="st4" d="M189.7,270h-10.3c-0.7-2.5-1.7-5-3-7.2l7.3-7.3l-14.1-14.1h0l-7.3,7.3
					c-2.3-1.3-4.7-2.3-7.2-3v-10.3h-19.9v10.3c-2.5,0.7-5,1.7-7.2,3l-7.3-7.3l-14.1,14.1l7.3,7.3c-1.3,2.3-2.3,4.7-3,7.2h-10.3v19.9
					h10.3c0.7,2.5,1.7,5,3,7.2l-7.3,7.3l14.1,14.1l7.3-7.3c2.3,1.3,4.7,2.3,7.2,3v10.3H155v-10.3c2.5-0.7,5-1.7,7.2-3l7.3,7.3h0
					l14.1-14.1l-7.3-7.3c1.3-2.3,2.3-4.7,3-7.2h10.3V270z M154.7,294.5c-16.5,9.3-33.4-7.6-24.1-24.1c1.1-2,2.8-3.7,4.9-4.9
					c16.5-9.3,33.4,7.6,24.1,24.1C158.4,291.6,156.7,293.3,154.7,294.5z"/>
			</g>
			<g id="XMLID_352_">
				<path id="XMLID_355_" class="st4" d="M189.7,270h-10.3c-0.7-2.5-1.7-5-3-7.2l7.3-7.3l-14.1-14.1h0l-7.3,7.3
					c-2.3-1.3-4.7-2.3-7.2-3v-10.3h-19.9v10.3c-2.5,0.7-5,1.7-7.2,3l-7.3-7.3l-14.1,14.1l7.3,7.3c-1.3,2.3-2.3,4.7-3,7.2h-10.3v19.9
					h10.3c0.7,2.5,1.7,5,3,7.2l-7.3,7.3l14.1,14.1l7.3-7.3c2.3,1.3,4.7,2.3,7.2,3v10.3H155v-10.3c2.5-0.7,5-1.7,7.2-3l7.3,7.3h0
					l14.1-14.1l-7.3-7.3c1.3-2.3,2.3-4.7,3-7.2h10.3V270z M154.7,294.5c-16.5,9.3-33.4-7.6-24.1-24.1c1.1-2,2.8-3.7,4.9-4.9
					c16.5-9.3,33.4,7.6,24.1,24.1C158.4,291.6,156.7,293.3,154.7,294.5z"/>
			</g>
			<g id="XMLID_534_">
				<path id="XMLID_535_" class="st4" d="M189.7,270h-10.3c-0.7-2.5-1.7-5-3-7.2l7.3-7.3l-14.1-14.1h0l-7.3,7.3
					c-2.3-1.3-4.7-2.3-7.2-3v-10.3h-19.9v10.3c-2.5,0.7-5,1.7-7.2,3l-7.3-7.3l-14.1,14.1l7.3,7.3c-1.3,2.3-2.3,4.7-3,7.2h-10.3v19.9
					h10.3c0.7,2.5,1.7,5,3,7.2l-7.3,7.3l14.1,14.1l7.3-7.3c2.3,1.3,4.7,2.3,7.2,3v10.3H155v-10.3c2.5-0.7,5-1.7,7.2-3l7.3,7.3h0
					l14.1-14.1l-7.3-7.3c1.3-2.3,2.3-4.7,3-7.2h10.3V270z M154.7,294.5c-16.5,9.3-33.4-7.6-24.1-24.1c1.1-2,2.8-3.7,4.9-4.9
					c16.5-9.3,33.4,7.6,24.1,24.1C158.4,291.6,156.7,293.3,154.7,294.5z"/>
			</g>
		</g>
		<g id="XMLID_540_">
			<g id="XMLID_551_">
				<path id="XMLID_552_" class="st4" d="M68.2,244h-6.8c-0.5-1.7-1.1-3.3-2-4.8l4.8-4.8l-9.3-9.3l0,0l-4.8,4.8
					c-1.5-0.8-3.1-1.5-4.8-2v-6.8H32.3v6.8c-1.7,0.5-3.3,1.1-4.8,2l-4.8-4.8l-9.3,9.3l4.8,4.8c-0.8,1.5-1.5,3.1-2,4.8H9.5v13.1h6.8
					c0.5,1.7,1.1,3.3,2,4.8l-4.8,4.8l9.3,9.3l4.8-4.8c1.5,0.8,3.1,1.5,4.8,2v6.8h13.1v-6.8c1.7-0.5,3.3-1.1,4.8-2L55,276h0l9.3-9.3
					l-4.8-4.8c0.8-1.5,1.5-3.1,2-4.8h6.8V244z M45.2,260.1c-10.9,6.1-22-5-15.9-15.9c0.8-1.3,1.9-2.4,3.2-3.2
					c10.9-6.1,22,5,15.9,15.9C47.7,258.3,46.6,259.4,45.2,260.1z"/>
			</g>
			<g id="XMLID_547_">
				<path id="XMLID_548_" class="st4" d="M68.2,244h-6.8c-0.5-1.7-1.1-3.3-2-4.8l4.8-4.8l-9.3-9.3l0,0l-4.8,4.8
					c-1.5-0.8-3.1-1.5-4.8-2v-6.8H32.3v6.8c-1.7,0.5-3.3,1.1-4.8,2l-4.8-4.8l-9.3,9.3l4.8,4.8c-0.8,1.5-1.5,3.1-2,4.8H9.5v13.1h6.8
					c0.5,1.7,1.1,3.3,2,4.8l-4.8,4.8l9.3,9.3l4.8-4.8c1.5,0.8,3.1,1.5,4.8,2v6.8h13.1v-6.8c1.7-0.5,3.3-1.1,4.8-2L55,276h0l9.3-9.3
					l-4.8-4.8c0.8-1.5,1.5-3.1,2-4.8h6.8V244z M45.2,260.1c-10.9,6.1-22-5-15.9-15.9c0.8-1.3,1.9-2.4,3.2-3.2
					c10.9-6.1,22,5,15.9,15.9C47.7,258.3,46.6,259.4,45.2,260.1z"/>
			</g>
			<g id="XMLID_541_">
				<path id="XMLID_542_" class="st4" d="M68.2,244h-6.8c-0.5-1.7-1.1-3.3-2-4.8l4.8-4.8l-9.3-9.3l0,0l-4.8,4.8
					c-1.5-0.8-3.1-1.5-4.8-2v-6.8H32.3v6.8c-1.7,0.5-3.3,1.1-4.8,2l-4.8-4.8l-9.3,9.3l4.8,4.8c-0.8,1.5-1.5,3.1-2,4.8H9.5v13.1h6.8
					c0.5,1.7,1.1,3.3,2,4.8l-4.8,4.8l9.3,9.3l4.8-4.8c1.5,0.8,3.1,1.5,4.8,2v6.8h13.1v-6.8c1.7-0.5,3.3-1.1,4.8-2L55,276h0l9.3-9.3
					l-4.8-4.8c0.8-1.5,1.5-3.1,2-4.8h6.8V244z M45.2,260.1c-10.9,6.1-22-5-15.9-15.9c0.8-1.3,1.9-2.4,3.2-3.2
					c10.9-6.1,22,5,15.9,15.9C47.7,258.3,46.6,259.4,45.2,260.1z"/>
			</g>
		</g>
		<g id="XMLID_33_">
			<g id="XMLID_30_">
				
					<linearGradient id="SVGID_1_" gradientUnits="userSpaceOnUse" x1="63.2678" y1="297.5175" x2="120.8046" y2="99.335" gradientTransform="matrix(0.9155 -0.4024 0.4024 0.9155 -60.0831 89.6152)">
					<stop  offset="0.3237" style="stop-color:#028FA0"/>
					<stop  offset="1" style="stop-color:#028FA0"/>
				</linearGradient>
				<path class="st5" d="M143.1,227.1c-12.2-0.2-23.9,27.8-23.6,52.2l-8.2-33.8c1.5-5.4,4.9-13.7,12.3-23.5
					c11.5-15.2,21.1-33.4,8.9-33.7c-11.4-0.2-22.5,24.4-23.5,47.7l-10.5-43.3c1.2-3.3,3.3-7.8,7.2-13c7.3-9.6,13.3-21.1,5.6-21.2
					c-6.7-0.1-13.1,13.2-14.6,26.8l-3.4-14c-0.3-4.5-0.8-11,0.6-18c3.1-16.3,3-32.3-5.5-29.1c-8.5,3.3-7.9,30.8,1.8,49.8l1.8,7.2
					c-6.8-13.9-21.7-26.5-28.5-22.8c-6.8,3.7,3.9,11.1,14.7,16.3c8.3,3.9,12.8,8.4,14.8,10.9l8.3,34.1c-10.9-22-34.3-41.8-45.1-35.9
					c-10.7,5.8,6.1,17.6,23.4,25.8c13,6.2,20.2,13.3,23.4,17.2l9.9,40.9c-11.1-21.5-34.4-41.2-44.4-34.7c-7.8,5,1.8,14.4,21.1,23.8
					c13.2,6.4,21.4,14.5,25.3,19l4.7,19.3c1.4,0,2.6-0.2,3.5-0.9l-1.9-7.7c1.1-5.1,4.3-14.5,12.9-25.9
					C145.8,245.6,155.3,227.4,143.1,227.1z"/>
			</g>
			<g id="XMLID_31_" class="st6">
				
					<linearGradient id="SVGID_2_" gradientUnits="userSpaceOnUse" x1="63.2678" y1="297.5175" x2="120.8046" y2="99.335" gradientTransform="matrix(0.9155 -0.4024 0.4024 0.9155 -60.0831 89.6152)">
					<stop  offset="0.3237" style="stop-color:#028FA0"/>
					<stop  offset="1" style="stop-color:#028FA0"/>
				</linearGradient>
				<path class="st7" d="M143.1,227.1c-12.2-0.2-23.9,27.8-23.6,52.2l-8.2-33.8c1.5-5.4,4.9-13.7,12.3-23.5
					c11.5-15.2,21.1-33.4,8.9-33.7c-11.4-0.2-22.5,24.4-23.5,47.7l-10.5-43.3c1.2-3.3,3.3-7.8,7.2-13c7.3-9.6,13.3-21.1,5.6-21.2
					c-6.7-0.1-13.1,13.2-14.6,26.8l-3.4-14c-0.3-4.5-0.8-11,0.6-18c3.1-16.3,3-32.3-5.5-29.1c-8.5,3.3-7.9,30.8,1.8,49.8l1.8,7.2
					c-6.8-13.9-21.7-26.5-28.5-22.8c-6.8,3.7,3.9,11.1,14.7,16.3c8.3,3.9,12.8,8.4,14.8,10.9l8.3,34.1c-10.9-22-34.3-41.8-45.1-35.9
					c-10.7,5.8,6.1,17.6,23.4,25.8c13,6.2,20.2,13.3,23.4,17.2l9.9,40.9c-11.1-21.5-34.4-41.2-44.4-34.7c-7.8,5,1.8,14.4,21.1,23.8
					c13.2,6.4,21.4,14.5,25.3,19l4.7,19.3c1.4,0,2.6-0.2,3.5-0.9l-1.9-7.7c1.1-5.1,4.3-14.5,12.9-25.9
					C145.8,245.6,155.3,227.4,143.1,227.1z"/>
			</g>
		</g>
		<g id="XMLID_594_">
			<g id="XMLID_605_">
				
					<linearGradient id="SVGID_3_" gradientUnits="userSpaceOnUse" x1="399.0202" y1="459.6572" x2="441.3757" y2="313.7658" gradientTransform="matrix(-0.9155 -0.4024 -0.4024 0.9155 923.022 89.6152)">
					<stop  offset="0" style="stop-color:#F4BA38"/>
					<stop  offset="1" style="stop-color:#FFD349"/>
				</linearGradient>
				<path class="st8" d="M353.9,269.3c9-0.2,17.6,20.4,17.4,38.4l6-24.8c-1.1-4-3.6-10.1-9.1-17.3c-8.5-11.2-15.5-24.6-6.6-24.8
					c8.4-0.2,16.5,18,17.3,35.1l7.7-31.9c-0.8-2.4-2.4-5.8-5.3-9.5c-5.4-7-9.8-15.5-4.1-15.6c4.9-0.1,9.7,9.7,10.7,19.7l2.5-10.3
					c0.2-3.3,0.6-8.1-0.4-13.3c-2.3-12-2.2-23.8,4-21.4c6.3,2.4,5.8,22.7-1.3,36.6l-1.3,5.3c5-10.2,15.9-19.5,21-16.8
					c5,2.7-2.9,8.2-10.8,12c-6.1,2.9-9.4,6.2-10.9,8l-6.1,25.1c8-16.2,25.3-30.8,33.2-26.5c7.9,4.3-4.5,13-17.2,19
					c-9.6,4.6-14.8,9.8-17.3,12.7l-7.3,30.1c8.2-15.8,25.3-30.3,32.7-25.5c5.7,3.7-1.3,10.6-15.6,17.5c-9.7,4.7-15.7,10.6-18.6,14
					l-3.4,14.2c-1,0-1.9-0.2-2.6-0.6l1.4-5.6c-0.8-3.7-3.2-10.7-9.5-19C352,282.9,344.9,269.5,353.9,269.3z"/>
			</g>
			<g id="XMLID_600_" class="st6">
				
					<linearGradient id="SVGID_4_" gradientUnits="userSpaceOnUse" x1="399.0202" y1="459.6572" x2="441.3757" y2="313.7658" gradientTransform="matrix(-0.9155 -0.4024 -0.4024 0.9155 923.022 89.6152)">
					<stop  offset="0" style="stop-color:#F4BA38"/>
					<stop  offset="1" style="stop-color:#FFD349"/>
				</linearGradient>
				<path class="st9" d="M353.9,269.3c9-0.2,17.6,20.4,17.4,38.4l6-24.8c-1.1-4-3.6-10.1-9.1-17.3c-8.5-11.2-15.5-24.6-6.6-24.8
					c8.4-0.2,16.5,18,17.3,35.1l7.7-31.9c-0.8-2.4-2.4-5.8-5.3-9.5c-5.4-7-9.8-15.5-4.1-15.6c4.9-0.1,9.7,9.7,10.7,19.7l2.5-10.3
					c0.2-3.3,0.6-8.1-0.4-13.3c-2.3-12-2.2-23.8,4-21.4c6.3,2.4,5.8,22.7-1.3,36.6l-1.3,5.3c5-10.2,15.9-19.5,21-16.8
					c5,2.7-2.9,8.2-10.8,12c-6.1,2.9-9.4,6.2-10.9,8l-6.1,25.1c8-16.2,25.3-30.8,33.2-26.5c7.9,4.3-4.5,13-17.2,19
					c-9.6,4.6-14.8,9.8-17.3,12.7l-7.3,30.1c8.2-15.8,25.3-30.3,32.7-25.5c5.7,3.7-1.3,10.6-15.6,17.5c-9.7,4.7-15.7,10.6-18.6,14
					l-3.4,14.2c-1,0-1.9-0.2-2.6-0.6l1.4-5.6c-0.8-3.7-3.2-10.7-9.5-19C352,282.9,344.9,269.5,353.9,269.3z"/>
			</g>
		</g>
		<g id="XMLID_135_">
			<linearGradient id="XMLID_11_" gradientUnits="userSpaceOnUse" x1="42.0129" y1="264.7447" x2="113.7299" y2="264.7447">
				<stop  offset="0" style="stop-color:#028FA0"/>
				<stop  offset="1" style="stop-color:#028FA0"/>
			</linearGradient>
			<path id="XMLID_8_" class="st10" d="M113.6,304.5c0,0-78.7,3.5-71.1-79.4C42.5,225.1,117.2,217.6,113.6,304.5z"/>
			<g id="XMLID_23_">
				<g>
					<path class="st11" d="M47.4,231.7c17.8,16.1,34.1,33.9,48.5,53.2c4,5.4,7.9,10.8,11.6,16.4c0.7,1.1,2.4,0.1,1.7-1
						c-13.4-20-28.6-38.7-45.6-55.8c-4.8-4.9-9.8-9.6-14.9-14.2C47.9,229.4,46.4,230.8,47.4,231.7L47.4,231.7z"/>
				</g>
			</g>
			<g id="XMLID_139_">
				<g>
					<path class="st11" d="M96.7,269c1.5,5.1,1.5,10.4,0,15.5c-0.4,1.2,1.6,1.8,1.9,0.5c1.6-5.4,1.7-11.2,0-16.6
						C98.2,267.3,96.3,267.8,96.7,269L96.7,269z"/>
				</g>
			</g>
			<g id="XMLID_140_">
				<g>
					<path class="st11" d="M57.8,273.8c9.8,3.4,20.2,4.4,30.5,2.9c1.3-0.2,0.7-2.1-0.5-1.9c-9.9,1.4-20,0.4-29.4-2.9
						C57.1,271.4,56.6,273.4,57.8,273.8L57.8,273.8z"/>
				</g>
			</g>
			<g id="XMLID_141_">
				<g>
					<path class="st11" d="M78,241.3c1.8,7.7,2.7,15.5,2.7,23.4c0,1.3,2,1.3,2,0c0-8-1-16-2.8-23.9C79.6,239.6,77.7,240.1,78,241.3
						L78,241.3z"/>
				</g>
			</g>
			<g id="XMLID_143_">
				<g>
					<path class="st11" d="M49.7,250.3c6.4,1.3,12.8,2.2,19.3,2.6c1.3,0.1,1.3-1.9,0-2c-6.3-0.4-12.6-1.3-18.8-2.5
						C49,248.1,48.5,250,49.7,250.3L49.7,250.3z"/>
				</g>
			</g>
		</g>
		<g id="XMLID_117_">
			
				<linearGradient id="XMLID_19_" gradientUnits="userSpaceOnUse" x1="463.2459" y1="300.258" x2="498.9016" y2="300.258" gradientTransform="matrix(-1 0 0 1 868.4236 0)">
				<stop  offset="0" style="stop-color:#028FA0"/>
				<stop  offset="1" style="stop-color:#028FA0"/>
			</linearGradient>
			<path id="XMLID_753_" class="st12" d="M369.6,320c0,0,39.1,1.7,35.3-39.5C404.9,280.6,367.8,276.8,369.6,320z"/>
			<g id="XMLID_746_">
				<g>
					<path class="st11" d="M401.4,282.8c-11.4,10.3-21.5,22.1-30.1,34.9c-0.7,1.1,1,2.1,1.7,1c8.5-12.7,18.5-24.3,29.8-34.5
						C403.8,283.3,402.4,281.9,401.4,282.8L401.4,282.8z"/>
				</g>
			</g>
			<g id="XMLID_735_">
				<g>
					<path class="st11" d="M376.6,302c-0.8,2.8-0.8,5.7,0,8.5c0.4,1.2,2.3,0.7,1.9-0.5c-0.7-2.4-0.8-5,0-7.4
						C378.9,301.3,376.9,300.8,376.6,302L376.6,302z"/>
				</g>
			</g>
			<g id="XMLID_610_">
				<g>
					<path class="st11" d="M396.9,303.3c-4.6,1.6-9.5,2.1-14.4,1.5c-0.5-0.1-1.1,0.1-1.2,0.7c-0.1,0.5,0.2,1.2,0.7,1.2
						c5.2,0.7,10.5,0.3,15.4-1.5C398.7,304.8,398.2,302.9,396.9,303.3L396.9,303.3z"/>
				</g>
			</g>
			<g id="XMLID_300_">
				<g>
					<path class="st11" d="M385.9,288.2c-0.9,3.9-1.4,8-1.4,12c0,1.3,2,1.3,2,0c0-3.9,0.5-7.7,1.3-11.5
						C388.1,287.5,386.1,287,385.9,288.2L385.9,288.2z"/>
				</g>
			</g>
			<g id="XMLID_118_">
				<g>
					<path class="st11" d="M400.9,291.6c-3,0.6-6.1,1-9.2,1.2c-0.5,0-1,0.4-1,1c0,0.5,0.5,1,1,1c3.3-0.2,6.5-0.7,9.7-1.3
						c0.5-0.1,0.8-0.7,0.7-1.2C402,291.8,401.5,291.5,400.9,291.6L400.9,291.6z"/>
				</g>
			</g>
		</g>
		<g id="XMLID_156_">
			
				<linearGradient id="XMLID_22_" gradientUnits="userSpaceOnUse" x1="25.3543" y1="261.7215" x2="78.9991" y2="261.7215" gradientTransform="matrix(0.8477 -0.5305 0.5305 0.8477 -133.4581 98.853)">
				<stop  offset="0" style="stop-color:#028FA0"/>
				<stop  offset="1" style="stop-color:#028FA0"/>
			</linearGradient>
			<path id="XMLID_461_" class="st13" d="M88.1,304.1c0,0-48.5,33.4-76.6-22.2C11.5,281.9,55.9,247.6,88.1,304.1z"/>
			<g id="XMLID_339_">
				<g>
					<path class="st11" d="M17.1,284.4c17.6,3.1,34.8,7.9,51.5,14.3c4.8,1.8,9.5,3.8,14.2,5.9c1.2,0.5,2.2-1.2,1-1.7
						c-16.4-7.4-33.5-13.2-51-17.3c-5-1.2-10-2.2-15.1-3.1C16.3,282.3,15.8,284.2,17.1,284.4L17.1,284.4z"/>
				</g>
			</g>
			<g id="XMLID_329_">
				<g>
					<path class="st11" d="M63,288.4c2.9,2.6,5.1,6,6.1,9.7c0.3,1.2,2.3,0.7,1.9-0.5c-1.1-4.1-3.4-7.8-6.6-10.6
						C63.5,286.2,62.1,287.6,63,288.4L63,288.4z"/>
				</g>
			</g>
			<g id="XMLID_291_">
				<g>
					<path class="st11" d="M40.5,307c7.6-1.7,14.6-5.3,20.6-10.3c1-0.8-0.4-2.2-1.4-1.4c-5.7,4.8-12.5,8.1-19.7,9.8
						C38.7,305.3,39.3,307.3,40.5,307L40.5,307z"/>
				</g>
			</g>
			<g id="XMLID_250_">
				<g>
					<path class="st11" d="M40.2,278.3c4.1,4.1,7.8,8.7,11,13.7c0.7,1.1,2.4,0.1,1.7-1c-3.2-5.1-7-9.8-11.3-14.1
						C40.7,276,39.3,277.4,40.2,278.3L40.2,278.3z"/>
				</g>
			</g>
			<g id="XMLID_158_">
				<g>
					<path class="st11" d="M26.1,295.3c4.6-1.7,9-3.7,13.3-6c1.1-0.6,0.1-2.3-1-1.7c-4.1,2.2-8.4,4.2-12.8,5.8
						C24.4,293.8,24.9,295.7,26.1,295.3L26.1,295.3z"/>
				</g>
			</g>
		</g>
		<g id="XMLID_113_">
			<line id="XMLID_108_" class="st14" x1="224.2" y1="60.4" x2="224.2" y2="40.2"/>
			<line id="XMLID_112_" class="st14" x1="224.2" y1="32.7" x2="224.2" y2="0"/>
		</g>
		<g id="XMLID_217_">
			<g id="XMLID_163_">
				<g id="XMLID_93_">
					<g id="XMLID_28_">
						<g id="XMLID_17_">
							<linearGradient id="XMLID_39_" gradientUnits="userSpaceOnUse" x1="234.7231" y1="241.7746" x2="216.3218" y2="120.6322">
								<stop  offset="0" style="stop-color:#F4BA38"/>
								<stop  offset="1" style="stop-color:#FFD349"/>
							</linearGradient>
							<path id="XMLID_86_" class="st15" d="M228.8,261.4c5.7,0.3,56.7-3.2,56.7-55.2c0-33.7-24.7-34-29.3-80.1h-26.9h-1.1h-26.9
								c-4.6,46.1-28,46.5-28,80.1C173.3,258.2,223.1,261.7,228.8,261.4z"/>
							<path id="XMLID_99_" class="st16" d="M205.7,90.4H252c2.3,0,4.2,1.9,4.2,4.2v31.5h-54.7V94.5
								C201.6,92.2,203.4,90.4,205.7,90.4z"/>
							<g id="XMLID_18_">
								<linearGradient id="XMLID_40_" gradientUnits="userSpaceOnUse" x1="197.4625" y1="116.5465" x2="260.0675" y2="116.5465">
									<stop  offset="0" style="stop-color:#028FA0"/>
									<stop  offset="0.2704" style="stop-color:#028FA0"/>
									<stop  offset="0.5844" style="stop-color:#028FA0"/>
									<stop  offset="0.8388" style="stop-color:#028FA0"/>
									<stop  offset="1" style="stop-color:#028FA0"/>
								</linearGradient>
								<path id="XMLID_35_" class="st17" d="M199.4,111.7h58.7c1.1,0,1.9,0.9,1.9,1.9v5.8c0,1.1-0.9,1.9-1.9,1.9h-58.7
									c-1.1,0-1.9-0.9-1.9-1.9v-5.8C197.5,112.6,198.3,111.7,199.4,111.7z"/>
								<linearGradient id="XMLID_44_" gradientUnits="userSpaceOnUse" x1="197.4625" y1="104.0035" x2="260.0675" y2="104.0035">
									<stop  offset="0" style="stop-color:#028FA0"/>
									<stop  offset="0.2704" style="stop-color:#028FA0"/>
									<stop  offset="0.5844" style="stop-color:#028FA0"/>
									<stop  offset="0.8388" style="stop-color:#028FA0"/>
									<stop  offset="1" style="stop-color:#028FA0"/>
								</linearGradient>
								<path id="XMLID_21_" class="st18" d="M199.4,99.1h58.7c1.1,0,1.9,0.9,1.9,1.9v5.8c0,1.1-0.9,1.9-1.9,1.9h-58.7
									c-1.1,0-1.9-0.9-1.9-1.9v-5.8C197.5,100,198.3,99.1,199.4,99.1z"/>
								<path id="XMLID_20_" class="st16" d="M215.9,80.3h25.7c2.2,0,4,1.8,4,4v6h-33.7v-6C211.9,82.1,213.7,80.3,215.9,80.3z"/>
							</g>
						</g>
						
							<radialGradient id="XMLID_45_" cx="682.6707" cy="253.4626" r="8.3128" gradientTransform="matrix(-0.9091 -9.590000e-02 0.1049 -0.9945 798.2584 568.598)" gradientUnits="userSpaceOnUse">
							<stop  offset="0.2894" style="stop-color:#FFFFFF;stop-opacity:0.6"/>
							<stop  offset="0.995" style="stop-color:#FFFFFF;stop-opacity:0"/>
						</radialGradient>
						<path id="XMLID_16_" class="st19" d="M200.8,246.7c0.3-2.4,2.2-4.2,4.4-3.9c2.2,0.2,3.8,2.4,3.5,4.8c-0.3,2.4-2.2,4.2-4.4,3.9
							C202.1,251.3,200.5,249.1,200.8,246.7z"/>
						
							<radialGradient id="XMLID_46_" cx="595.696" cy="284.5857" r="53.4554" gradientTransform="matrix(-1 0 0 -1 863.2309 523.7879)" gradientUnits="userSpaceOnUse">
							<stop  offset="0.2894" style="stop-color:#FFFFFF;stop-opacity:0.6"/>
							<stop  offset="0.995" style="stop-color:#FFFFFF;stop-opacity:0"/>
						</radialGradient>
						<path id="XMLID_24_" class="st20" d="M240,218.9c1-9.4,8.8-16.3,17.4-15.4c8.6,0.9,14.8,9.3,13.8,18.7
							c-1,9.4-8.8,16.3-17.4,15.4C245.1,236.7,239,228.3,240,218.9z"/>
						<g id="XMLID_25_">
							
								<radialGradient id="XMLID_47_" cx="665.0188" cy="276.8295" r="73.3235" gradientTransform="matrix(-1 0 0 -1 863.2309 523.7879)" gradientUnits="userSpaceOnUse">
								<stop  offset="0.2894" style="stop-color:#FFFFFF;stop-opacity:0.6"/>
								<stop  offset="0.995" style="stop-color:#FFFFFF;stop-opacity:0"/>
							</radialGradient>
							<path id="XMLID_26_" class="st21" d="M199.3,237.6c-14.7-11.9-13.1-31.7-11.3-48.6c0.5-4.8-7-4.8-7.5,0
								c-1.9,18.9-2.8,40.7,13.5,53.9C197.8,245.9,203.1,240.6,199.3,237.6L199.3,237.6z"/>
						</g>
					</g>
					
						<radialGradient id="XMLID_48_" cx="228.765" cy="47.9125" r="29.2705" gradientTransform="matrix(1 0 0 1.2453 0 106.3546)" gradientUnits="userSpaceOnUse">
						<stop  offset="2.424240e-02" style="stop-color:#FFFFFF"/>
						<stop  offset="8.048561e-02" style="stop-color:#DFC9BD"/>
						<stop  offset="0.1334" style="stop-color:#C49C87"/>
						<stop  offset="0.1726" style="stop-color:#B48065"/>
						<stop  offset="0.1939" style="stop-color:#AE7658"/>
						<stop  offset="0.2561" style="stop-color:#94654B"/>
						<stop  offset="0.3792" style="stop-color:#684934"/>
						<stop  offset="0.5038" style="stop-color:#443121"/>
						<stop  offset="0.6283" style="stop-color:#281E13"/>
						<stop  offset="0.7525" style="stop-color:#141108"/>
						<stop  offset="0.8764" style="stop-color:#080902"/>
						<stop  offset="1" style="stop-color:#040600"/>
					</radialGradient>
					<path id="XMLID_15_" class="st22" d="M220.6,126.1v59c0,0,0.9,17.9-11.6,18.5c-12.4,0.6-1.2-21,16.2-21
						c17.4,0,29.9,3.4,28.3,16c-1.5,12.7-14.4,4.3-14.4-18.3s0-54.2,0-54.2"/>
				</g>
				<g id="XMLID_122_">
					<line id="XMLID_130_" class="st14" x1="239.9" y1="13.3" x2="239.9" y2="30.6"/>
					<line id="XMLID_124_" class="st14" x1="239.9" y1="37.1" x2="239.9" y2="65.3"/>
					<line id="XMLID_132_" class="st14" x1="208.7" y1="36.9" x2="208.7" y2="65.1"/>
					<line id="XMLID_125_" class="st14" x1="208.7" y1="10.8" x2="208.7" y2="24.9"/>
				</g>
				<line id="XMLID_115_" class="st14" x1="256.2" y1="51" x2="256.2" y2="76.3"/>
				<line id="XMLID_126_" class="st14" x1="197.5" y1="71.1" x2="197.5" y2="85.3"/>
			</g>
			<g id="XMLID_144_">
				<path id="XMLID_154_" class="st14" d="M161.6,233.8c-3.9-9-6.1-18.9-6.1-29.3c0-13.3,3.5-25.7,9.7-36.5"/>
				<path id="XMLID_160_" class="st14" d="M301.3,193.9c0.5,3.5,0.8,7.1,0.8,10.7c0,20.2-8.2,38.5-21.4,51.8"/>
			</g>
			<g id="XMLID_145_">
				<path id="XMLID_161_" class="st14" d="M162.9,212.9c-1.2-8.6-0.6-17.5,1.9-26.4c3.2-11.3,9.2-21,17-28.7"/>
				<path id="XMLID_157_" class="st14" d="M304.5,232.7c-0.8,3-1.8,6-3,9c-6.9,16.5-19.8,28.6-35.1,34.9"/>
			</g>
			<path id="XMLID_168_" class="st14" d="M202.4,269.3c0,2.8-2.2,5-5,5c-2.8,0-5-2.2-5-5c0-2.8,2.2-5,5-5
				C200.2,264.3,202.4,266.5,202.4,269.3z"/>
			<path id="XMLID_347_" class="st14" d="M289,164.8c0,1.9-1.6,3.5-3.5,3.5c-1.9,0-3.5-1.6-3.5-3.5c0-1.9,1.6-3.5,3.5-3.5
				C287.4,161.3,289,162.9,289,164.8z"/>
		</g>
		<g id="XMLID_210_">
			<g id="XMLID_170_" class="st23">
				
					<image style="overflow:visible;" width="704" height="330" xlink:href="B54D566C3FFA9647.png"  transform="matrix(0.24 0 0 0.24 0 283.4697)">
				</image>
			</g>
			<g id="XMLID_171_">
				<g id="XMLID_177_">
					<g id="XMLID_186_">
						
							<linearGradient id="XMLID_49_" gradientUnits="userSpaceOnUse" x1="116.1747" y1="965.4603" x2="157.3658" y2="965.4603" gradientTransform="matrix(-0.2594 -0.9658 -0.9658 0.2594 1071.5989 184.8264)">
							<stop  offset="0" style="stop-color:#F4BA38"/>
							<stop  offset="1" style="stop-color:#FFD349"/>
						</linearGradient>
						<path id="XMLID_209_" class="st24" d="M127.6,296.5c0.7,2,4.3,20.4-14.2,25.4c-11.9,3.2-14.4-5.5-31.2-2.7l-2.6-9.5l-0.1-0.4
							l-2.6-9.5c15.9-6,13.8-14.4,25.7-17.6C121.2,277.1,127.2,294.5,127.6,296.5z"/>
						
							<linearGradient id="XMLID_50_" gradientUnits="userSpaceOnUse" x1="725.5445" y1="-480.9069" x2="725.8998" y2="-463.4948" gradientTransform="matrix(0.2594 0.9658 0.9658 -0.2594 342.3902 -512.609)">
							<stop  offset="0" style="stop-color:#028FA0"/>
							<stop  offset="1" style="stop-color:#028FA0"/>
						</linearGradient>
						<path id="XMLID_208_" class="st25" d="M65.5,307.2l3,11.3c0.6,2.2,2.9,3.6,5.1,3l8.6-2.3L77,299.8l-8.6,2.3
							C66.2,302.7,64.9,305,65.5,307.2z"/>
						<path id="XMLID_207_" class="st16" d="M65.5,307.2l3,11.3c0.6,2.2,2.9,3.6,5.1,3l8.6-2.3L77,299.8l-8.6,2.3
							C66.2,302.7,64.9,305,65.5,307.2z"/>
						<g id="XMLID_187_">
							
								<linearGradient id="XMLID_51_" gradientUnits="userSpaceOnUse" x1="125.5104" y1="993.7965" x2="148.4917" y2="993.7965" gradientTransform="matrix(-0.2594 -0.9658 -0.9658 0.2594 1071.5989 184.8264)">
								<stop  offset="0" style="stop-color:#028FA0"/>
								<stop  offset="0.2704" style="stop-color:#028FA0"/>
								<stop  offset="0.5844" style="stop-color:#028FA0"/>
								<stop  offset="0.8388" style="stop-color:#028FA0"/>
								<stop  offset="1" style="stop-color:#028FA0"/>
							</linearGradient>
							<path id="XMLID_190_" class="st26" d="M72,301.4l5,18.7c0.3,1,1.2,1.5,2.2,1.3l0,0c1-0.3,1.5-1.2,1.3-2.2l-5-18.7
								c-0.3-1-1.2-1.5-2.2-1.3l0,0C72.3,299.5,71.8,300.4,72,301.4z"/>
							
								<linearGradient id="XMLID_52_" gradientUnits="userSpaceOnUse" x1="125.5103" y1="998.4008" x2="148.4917" y2="998.4008" gradientTransform="matrix(-0.2594 -0.9658 -0.9658 0.2594 1071.5989 184.8264)">
								<stop  offset="0" style="stop-color:#028FA0"/>
								<stop  offset="0.2704" style="stop-color:#028FA0"/>
								<stop  offset="0.5844" style="stop-color:#028FA0"/>
								<stop  offset="0.8388" style="stop-color:#028FA0"/>
								<stop  offset="1" style="stop-color:#028FA0"/>
							</linearGradient>
							<path id="XMLID_189_" class="st27" d="M67.6,302.6l5,18.7c0.3,1,1.2,1.5,2.2,1.3l0,0c1-0.3,1.5-1.2,1.3-2.2l-5-18.7
								c-0.3-1-1.2-1.5-2.2-1.3l0,0C67.9,300.7,67.3,301.6,67.6,302.6z"/>
							<path id="XMLID_188_" class="st16" d="M62.8,311.3l1.3,4.8c0.5,2,2.5,3.1,4.5,2.6l0,0l-3.2-11.9l0,0
								C63.4,307.4,62.2,309.4,62.8,311.3z"/>
						</g>
					</g>
					
						<radialGradient id="XMLID_53_" cx="202.2088" cy="975.2293" r="3.0517" gradientTransform="matrix(-0.3285 -0.8531 -0.9332 0.3593 1098.1152 110.8991)" gradientUnits="userSpaceOnUse">
						<stop  offset="0.2894" style="stop-color:#FFFFFF;stop-opacity:0.6"/>
						<stop  offset="0.995" style="stop-color:#FFFFFF;stop-opacity:0"/>
					</radialGradient>
					<path id="XMLID_185_" class="st28" d="M119.7,288c-0.8,0.3-1.3,1.2-1,1.9c0.3,0.8,1.2,1.1,2,0.8c0.8-0.3,1.3-1.2,1-1.9
						C121.5,288,120.6,287.7,119.7,288z"/>
					
						<radialGradient id="XMLID_54_" cx="122.7692" cy="948.7714" r="19.6228" gradientTransform="matrix(-0.2594 -0.9658 -0.9658 0.2594 1071.5989 184.8264)" gradientUnits="userSpaceOnUse">
						<stop  offset="0.2894" style="stop-color:#FFFFFF;stop-opacity:0.6"/>
						<stop  offset="0.995" style="stop-color:#FFFFFF;stop-opacity:0"/>
					</radialGradient>
					<path id="XMLID_184_" class="st29" d="M113.6,304.5c-3.3,1.3-5,4.7-3.8,7.6c1.1,3,4.7,4.4,8,3.1c3.3-1.3,5-4.7,3.8-7.6
						C120.4,304.7,116.9,303.3,113.6,304.5z"/>
					<g id="XMLID_178_">
						
							<radialGradient id="XMLID_55_" cx="148.2166" cy="945.9242" r="26.916" gradientTransform="matrix(-0.2594 -0.9658 -0.9658 0.2594 1071.5989 184.8264)" gradientUnits="userSpaceOnUse">
							<stop  offset="0.2894" style="stop-color:#FFFFFF;stop-opacity:0.6"/>
							<stop  offset="0.995" style="stop-color:#FFFFFF;stop-opacity:0"/>
						</radialGradient>
						<path id="XMLID_182_" class="st30" d="M116.4,288.3c-5.6-4.1-12.5-1.6-18.3,0.6c-1.7,0.6-2.4-2-0.7-2.7
							c6.5-2.5,14.2-4.9,20.4-0.3C119.1,287,117.8,289.4,116.4,288.3L116.4,288.3z"/>
					</g>
				</g>
				
					<radialGradient id="XMLID_56_" cx="725.483" cy="-448.1871" r="11.2719" gradientTransform="matrix(0.2594 0.9658 1.2027 -0.323 445.074 -539.9631)" gradientUnits="userSpaceOnUse">
					<stop  offset="2.424240e-02" style="stop-color:#FFFFFF"/>
					<stop  offset="8.048561e-02" style="stop-color:#DFC9BD"/>
					<stop  offset="0.1334" style="stop-color:#C49C87"/>
					<stop  offset="0.1726" style="stop-color:#B48065"/>
					<stop  offset="0.1939" style="stop-color:#AE7658"/>
					<stop  offset="0.2561" style="stop-color:#94654B"/>
					<stop  offset="0.3792" style="stop-color:#684934"/>
					<stop  offset="0.5038" style="stop-color:#443121"/>
					<stop  offset="0.6283" style="stop-color:#281E13"/>
					<stop  offset="0.7525" style="stop-color:#141108"/>
					<stop  offset="0.8764" style="stop-color:#080902"/>
					<stop  offset="1" style="stop-color:#040600"/>
				</radialGradient>
				<path id="XMLID_174_" class="st31" d="M78.8,306.5l20.9-5.6c0,0,6.4-1.4,5.5-5.9c-1-4.5-7.5,1.6-5.9,7.8c1.7,6.2,4,10.3,8.4,8.5
					c4.3-1.7,0.2-5.5-7.9-3.4c-8,2.2-19.2,5.2-19.2,5.2"/>
			</g>
		</g>
		<g id="XMLID_212_">
			<g id="XMLID_211_" class="st23">
				
					<image style="overflow:visible;" width="781" height="336" xlink:href="B54D566C3FFA9645.png"  transform="matrix(0.24 0 0 0.24 112.08 289.7097)">
				</image>
			</g>
			<g id="XMLID_191_">
				<g id="XMLID_193_">
					<g id="XMLID_198_">
						
							<linearGradient id="XMLID_57_" gradientUnits="userSpaceOnUse" x1="-308.5847" y1="-40.8833" x2="-257.1817" y2="-40.8833" gradientTransform="matrix(0.26 -0.9656 0.9656 0.26 302.8294 45.1971)">
							<stop  offset="0" style="stop-color:#F4BA38"/>
							<stop  offset="1" style="stop-color:#FFD349"/>
						</linearGradient>
						<path id="XMLID_206_" class="st32" d="M159.9,299.4c-0.8,2.5-5.3,25.5,17.7,31.7c14.9,4,18-6.9,38.9-3.4l3.2-11.9l0.1-0.5
							l3.2-11.9c-19.9-7.5-17.2-17.9-32.1-21.9C168,275.2,160.5,296.8,159.9,299.4z"/>
						
							<linearGradient id="XMLID_58_" gradientUnits="userSpaceOnUse" x1="1145.5975" y1="516.6334" x2="1146.0416" y2="538.3898" gradientTransform="matrix(-0.26 0.9656 -0.9656 -0.26 1033.3789 -652.0013)">
							<stop  offset="0" style="stop-color:#028FA0"/>
							<stop  offset="1" style="stop-color:#028FA0"/>
						</linearGradient>
						<path id="XMLID_205_" class="st33" d="M237.8,311.8l-4.3,16.1c-0.6,2.2-2.9,3.6-5.1,3l-11.8-3.2l6.5-24.2l11.8,3.2
							C237,307.2,238.4,309.5,237.8,311.8z"/>
						<path id="XMLID_204_" class="st16" d="M237.8,311.8l-4.3,16.1c-0.6,2.2-2.9,3.6-5.1,3l-11.8-3.2l6.5-24.2l11.8,3.2
							C237,307.2,238.4,309.5,237.8,311.8z"/>
						<g id="XMLID_199_">
							
								<linearGradient id="XMLID_59_" gradientUnits="userSpaceOnUse" x1="-296.9353" y1="-5.522" x2="-268.2562" y2="-5.522" gradientTransform="matrix(0.26 -0.9656 0.9656 0.26 302.8294 45.1971)">
								<stop  offset="0" style="stop-color:#028FA0"/>
								<stop  offset="0.2704" style="stop-color:#028FA0"/>
								<stop  offset="0.5844" style="stop-color:#028FA0"/>
								<stop  offset="0.8388" style="stop-color:#028FA0"/>
								<stop  offset="1" style="stop-color:#028FA0"/>
							</linearGradient>
							<path id="XMLID_203_" class="st34" d="M229.5,304.8l-6.7,24.8c-0.2,0.8-1,1.3-1.8,1l-1.4-0.4c-0.8-0.2-1.3-1-1-1.8l6.7-24.8
								c0.2-0.8,1-1.3,1.8-1l1.4,0.4C229.3,303.2,229.7,304,229.5,304.8z"/>
							
								<linearGradient id="XMLID_60_" gradientUnits="userSpaceOnUse" x1="-296.9353" y1="0.2239" x2="-268.2562" y2="0.2239" gradientTransform="matrix(0.26 -0.9656 0.9656 0.26 302.8294 45.1971)">
								<stop  offset="0" style="stop-color:#028FA0"/>
								<stop  offset="0.2704" style="stop-color:#028FA0"/>
								<stop  offset="0.5844" style="stop-color:#028FA0"/>
								<stop  offset="0.8388" style="stop-color:#028FA0"/>
								<stop  offset="1" style="stop-color:#028FA0"/>
							</linearGradient>
							<path id="XMLID_202_" class="st35" d="M235.1,306.3l-6.7,24.8c-0.2,0.8-1,1.3-1.8,1l-1.4-0.4c-0.8-0.2-1.3-1-1-1.8l6.7-24.8
								c0.2-0.8,1-1.3,1.8-1l1.4,0.4C234.8,304.7,235.3,305.5,235.1,306.3z"/>
							<path id="XMLID_201_" class="st16" d="M241.3,316.5l-2.4,9c-0.4,1.6-2.1,2.6-3.8,2.2l-1.5-0.4l4-14.9l1.5,0.4
								C240.7,313.1,241.7,314.8,241.3,316.5z"/>
						</g>
					</g>
					
						<radialGradient id="XMLID_61_" cx="-368.2807" cy="12.8312" r="3.8079" gradientTransform="matrix(0.329 -0.8529 0.933 0.3599 276.6373 -28.9632)" gradientUnits="userSpaceOnUse">
						<stop  offset="0.2894" style="stop-color:#FFFFFF;stop-opacity:0.6"/>
						<stop  offset="0.995" style="stop-color:#FFFFFF;stop-opacity:0"/>
					</radialGradient>
					<path id="XMLID_197_" class="st36" d="M169.8,288.7c1,0.4,1.6,1.5,1.2,2.4c-0.4,0.9-1.5,1.4-2.5,1c-1-0.4-1.6-1.5-1.2-2.4
						C167.6,288.8,168.7,288.3,169.8,288.7z"/>
					
						<radialGradient id="XMLID_62_" cx="-300.3553" cy="-61.7098" r="24.4874" gradientTransform="matrix(0.26 -0.9656 0.9656 0.26 302.8294 45.1971)" gradientUnits="userSpaceOnUse">
						<stop  offset="0.2894" style="stop-color:#FFFFFF;stop-opacity:0.6"/>
						<stop  offset="0.995" style="stop-color:#FFFFFF;stop-opacity:0"/>
					</radialGradient>
					<path id="XMLID_196_" class="st37" d="M177.4,309.4c4.1,1.6,6.2,5.8,4.8,9.5c-1.4,3.7-5.9,5.4-9.9,3.9
						c-4.1-1.6-6.2-5.8-4.8-9.5C168.9,309.6,173.4,307.8,177.4,309.4z"/>
					<g id="XMLID_194_">
						
							<radialGradient id="XMLID_63_" cx="-268.5989" cy="-65.2625" r="33.5889" gradientTransform="matrix(0.26 -0.9656 0.9656 0.26 302.8294 45.1971)" gradientUnits="userSpaceOnUse">
							<stop  offset="0.2894" style="stop-color:#FFFFFF;stop-opacity:0.6"/>
							<stop  offset="0.995" style="stop-color:#FFFFFF;stop-opacity:0"/>
						</radialGradient>
						<path id="XMLID_195_" class="st38" d="M174,289.2c7-5.1,15.6-2,22.8,0.8c2.1,0.8,2.9-2.5,0.9-3.3c-8.1-3.1-17.7-6.1-25.4-0.4
							C170.5,287.5,172.2,290.5,174,289.2L174,289.2z"/>
					</g>
				</g>
				
					<radialGradient id="XMLID_64_" cx="1145.8381" cy="358.173" r="13.859" gradientTransform="matrix(-0.26 0.9656 -1.2025 -0.3238 930.3849 -679.8029)" gradientUnits="userSpaceOnUse">
					<stop  offset="2.424240e-02" style="stop-color:#FFFFFF"/>
					<stop  offset="8.048561e-02" style="stop-color:#DFC9BD"/>
					<stop  offset="0.1334" style="stop-color:#C49C87"/>
					<stop  offset="0.1726" style="stop-color:#B48065"/>
					<stop  offset="0.1939" style="stop-color:#AE7658"/>
					<stop  offset="0.2561" style="stop-color:#94654B"/>
					<stop  offset="0.3792" style="stop-color:#684934"/>
					<stop  offset="0.5038" style="stop-color:#443121"/>
					<stop  offset="0.6283" style="stop-color:#281E13"/>
					<stop  offset="0.7525" style="stop-color:#141108"/>
					<stop  offset="0.8764" style="stop-color:#080902"/>
					<stop  offset="1" style="stop-color:#040600"/>
				</radialGradient>
				<path id="XMLID_192_" class="st39" d="M220.8,311.9l-26.1-7c0,0-8-1.8-6.8-7.3c1.2-5.6,9.4,2,7.3,9.7c-2.1,7.7-5,12.8-10.5,10.6
					c-5.4-2.2-0.2-6.9,9.8-4.2c10,2.7,24,6.5,24,6.5"/>
			</g>
		</g>
		<g id="XMLID_358_">
			<line id="XMLID_332_" class="st40" x1="80.6" y1="286.2" x2="80.6" y2="291.4"/>
			<line id="XMLID_357_" class="st40" x1="78.2" y1="288.8" x2="82.9" y2="288.8"/>
		</g>
		<g id="XMLID_450_">
			<line id="XMLID_463_" class="st41" x1="271.3" y1="134.9" x2="271.3" y2="140.1"/>
			<line id="XMLID_458_" class="st41" x1="269" y1="137.5" x2="273.6" y2="137.5"/>
		</g>
		<g id="XMLID_5_">
			<line id="XMLID_27_" class="st41" x1="159.2" y1="114.2" x2="159.2" y2="119.4"/>
			<line id="XMLID_12_" class="st41" x1="156.8" y1="116.8" x2="161.5" y2="116.8"/>
		</g>
		<g id="XMLID_464_">
			<line id="XMLID_466_" class="st41" x1="231.6" y1="273.4" x2="231.6" y2="281.7"/>
			<line id="XMLID_465_" class="st41" x1="227.9" y1="277.5" x2="235.4" y2="277.5"/>
		</g>
		<g id="XMLID_34_">
			<linearGradient id="XMLID_65_" gradientUnits="userSpaceOnUse" x1="262.9687" y1="326.1417" x2="267.5707" y2="309.7638">
				<stop  offset="0" style="stop-color:#F4A238"/>
				<stop  offset="1" style="stop-color:#FFC949"/>
			</linearGradient>
			<path id="XMLID_279_" class="st42" d="M260.6,322.5c0,0,0.5-16.5,6.2-17.7c5.7-1.2,6.5,10.3,0,21.7L260.6,322.5z"/>
			<path id="XMLID_104_" class="st43" d="M267.4,309.1c0,0-1.1,4-3.9,15.3"/>
			<linearGradient id="XMLID_66_" gradientUnits="userSpaceOnUse" x1="262.1673" y1="326.6921" x2="256.4824" y2="314.9163">
				<stop  offset="0" style="stop-color:#F4BA38"/>
				<stop  offset="1" style="stop-color:#FFD349"/>
			</linearGradient>
			<path id="XMLID_101_" class="st44" d="M258.6,326.4c0,0-8.7-8.4-5.4-12.5c3.2-4.1,11.4,3,13.5,12.5H258.6z"/>
			<path id="XMLID_100_" class="st43" d="M255.6,316.2c0,0,4.2,3.9,6.4,8.9"/>
			<linearGradient id="XMLID_67_" gradientUnits="userSpaceOnUse" x1="269.2536" y1="327.4643" x2="271.2839" y2="319.8845">
				<stop  offset="0" style="stop-color:#F4BA38"/>
				<stop  offset="1" style="stop-color:#FFD349"/>
			</linearGradient>
			<path id="XMLID_94_" class="st45" d="M265.9,326.4c0,0,2.2-9.5,6.7-8.7c4.5,0.8,0,8.7,0,8.7L265.9,326.4z"/>
			<line id="XMLID_42_" class="st43" x1="271.8" y1="319.6" x2="270.3" y2="325.1"/>
		</g>
		<g id="XMLID_133_">
			<g id="XMLID_128_" class="st23">
				
					<image style="overflow:visible;" width="763" height="330" xlink:href="B54D566C3FFA964B.png"  transform="matrix(0.24 0 0 0.24 246 281.3097)">
				</image>
			</g>
			<g id="XMLID_449_">
				<g id="XMLID_601_">
					
						<linearGradient id="SVGID_5_" gradientUnits="userSpaceOnUse" x1="259.4809" y1="211.9439" x2="273.9343" y2="162.1599" gradientTransform="matrix(-1 0 0 1 627.7787 0)">
						<stop  offset="0.3237" style="stop-color:#028FA0"/>
						<stop  offset="1" style="stop-color:#028FA0"/>
					</linearGradient>
					<path class="st46" d="M344.1,208.4c1-4.4,4.4-7.7,7.4-11.1c10.9-12.4,17.2-28,23.3-43.3c-16.2,13.2-27.6,32.3-31.3,52.9"/>
					<g>
						<linearGradient id="SVGID_6_" gradientUnits="userSpaceOnUse" x1="350.3398" y1="210.1746" x2="367.4256" y2="151.3235">
							<stop  offset="0.3237" style="stop-color:#028FA0"/>
							<stop  offset="1" style="stop-color:#028FA0"/>
						</linearGradient>
						<path class="st47" d="M345.4,208.7c2.2-5.4,6.4-9.1,9.9-13.6c3.1-3.9,5.8-8,8.2-12.3c5.1-9.1,8.9-18.8,12.8-28.4
							c0.6-1.5-1.5-2.3-2.5-1.4c-16.3,13.5-27.6,32.8-31.7,53.6c-0.4,1.8,2.4,2.6,2.8,0.8c3.9-20.7,14.8-38.8,31-52.2
							c-0.8-0.5-1.6-1-2.5-1.4c-4.2,10.5-8.4,21-14.2,30.6c-2.8,4.7-6.1,9.1-9.7,13.2c-2.8,3.2-5.8,6.4-6.6,10.7
							C342.5,209.7,344.7,210.3,345.4,208.7L345.4,208.7z"/>
					</g>
				</g>
				<g id="XMLID_445_">
					<g>
						<path class="st11" d="M345.5,205.1c0.4-4.1,3.2-8,5.3-11.4c2.1-3.4,4.4-6.8,6.6-10.2c4.5-6.8,8.9-13.6,12.1-21.1
							c0.3-0.7-0.8-1.4-1.1-0.6c-3.3,7.8-8,14.8-12.6,21.8c-2.3,3.5-4.6,7-6.8,10.6c-2,3.4-4.4,6.9-4.8,10.9
							C344.2,205.9,345.4,205.9,345.5,205.1L345.5,205.1z"/>
					</g>
				</g>
				
					<linearGradient id="XMLID_68_" gradientUnits="userSpaceOnUse" x1="241.1675" y1="231.1294" x2="274.4279" y2="231.1294" gradientTransform="matrix(-0.9978 -6.680000e-02 -6.680000e-02 0.9978 641.226 26.7886)">
					<stop  offset="0.3237" style="stop-color:#028FA0"/>
					<stop  offset="1" style="stop-color:#028FA0"/>
				</linearGradient>
				<path id="XMLID_560_" class="st48" d="M387.8,191.5c0,0-37.4,15.7-37.1,98.7"/>
				
					<linearGradient id="XMLID_69_" gradientUnits="userSpaceOnUse" x1="270.7999" y1="260.1021" x2="303.2202" y2="260.1021" gradientTransform="matrix(-0.9978 -6.680000e-02 -6.680000e-02 0.9978 641.226 26.7886)">
					<stop  offset="0.3237" style="stop-color:#028FA0"/>
					<stop  offset="1" style="stop-color:#028FA0"/>
				</linearGradient>
				<path id="XMLID_559_" class="st49" d="M349.4,305.5c0,0,10.3-72.4-25.6-75.4"/>
				<g id="XMLID_219_">
					<g id="XMLID_274_">
						<g id="XMLID_284_">
							
								<linearGradient id="XMLID_70_" gradientUnits="userSpaceOnUse" x1="-69.1963" y1="603.0805" x2="-50.0777" y2="603.0805" gradientTransform="matrix(0.2199 -0.9755 0.9755 0.2199 -272.2604 33.8082)">
								<stop  offset="0" style="stop-color:#F4BA38"/>
								<stop  offset="1" style="stop-color:#FFD349"/>
							</linearGradient>
							<path id="XMLID_348_" class="st50" d="M291.7,222c-0.3,0.9-1.6,9.5,7.1,11.5c5.6,1.3,6.6-2.8,14.4-1.9l1-4.5l0-0.2l1-4.5
								c-7.5-2.5-6.7-6.4-12.3-7.7C294.3,212.9,291.9,221,291.7,222z"/>
							
								<linearGradient id="XMLID_71_" gradientUnits="userSpaceOnUse" x1="923.615" y1="-97.4796" x2="923.7787" y2="-89.4534" gradientTransform="matrix(-0.2199 0.9755 -0.9755 -0.2199 428.4953 -694.0637)">
								<stop  offset="0" style="stop-color:#028FA0"/>
								<stop  offset="1" style="stop-color:#028FA0"/>
							</linearGradient>
							<path id="XMLID_343_" class="st51" d="M320.3,227.8L320,229c-0.5,2.2-2.7,3.6-4.8,3.1l-2-0.4l2-9.1l2,0.4
								C319.4,223.4,320.8,225.6,320.3,227.8z"/>
							<path id="XMLID_306_" class="st16" d="M320.8,225.3l-1.4,6.1c-0.2,0.8-1,1.3-1.8,1.2l-4.4-1l2-9.1l4.4,1
								C320.5,223.7,321,224.5,320.8,225.3z"/>
							<g id="XMLID_287_">
								
									<linearGradient id="XMLID_72_" gradientUnits="userSpaceOnUse" x1="-64.8627" y1="616.2325" x2="-54.196" y2="616.2325" gradientTransform="matrix(0.2199 -0.9755 0.9755 0.2199 -272.2604 33.8082)">
									<stop  offset="0" style="stop-color:#028FA0"/>
									<stop  offset="0.2704" style="stop-color:#028FA0"/>
									<stop  offset="0.5844" style="stop-color:#028FA0"/>
									<stop  offset="0.8388" style="stop-color:#028FA0"/>
									<stop  offset="1" style="stop-color:#028FA0"/>
								</linearGradient>
								<path id="XMLID_304_" class="st52" d="M317.6,223.2l-2,8.8c-0.1,0.4-0.5,0.7-1,0.6l0,0c-0.4-0.1-0.7-0.5-0.6-1l2-8.8
									c0.1-0.4,0.5-0.7,1-0.6l0,0C317.4,222.3,317.7,222.7,317.6,223.2z"/>
								
									<linearGradient id="XMLID_73_" gradientUnits="userSpaceOnUse" x1="-64.8626" y1="618.3696" x2="-54.1959" y2="618.3696" gradientTransform="matrix(0.2199 -0.9755 0.9755 0.2199 -272.2604 33.8082)">
									<stop  offset="0" style="stop-color:#028FA0"/>
									<stop  offset="0.2704" style="stop-color:#028FA0"/>
									<stop  offset="0.5844" style="stop-color:#028FA0"/>
									<stop  offset="0.8388" style="stop-color:#028FA0"/>
									<stop  offset="1" style="stop-color:#028FA0"/>
								</linearGradient>
								<path id="XMLID_303_" class="st53" d="M319.7,223.6l-2,8.8c-0.1,0.4-0.5,0.7-1,0.6l0,0c-0.4-0.1-0.7-0.5-0.6-1l2-8.8
									c0.1-0.4,0.5-0.7,1-0.6l0,0C319.5,222.8,319.8,223.2,319.7,223.6z"/>
								<path id="XMLID_302_" class="st16" d="M322.1,227.6l-0.5,2.3c-0.2,0.9-1.1,1.5-2,1.3l0,0l1.3-5.6l0,0
									C321.7,225.8,322.3,226.7,322.1,227.6z"/>
							</g>
						</g>
						
							<radialGradient id="XMLID_74_" cx="-58.6189" cy="646.9336" r="1.4163" gradientTransform="matrix(0.2935 -0.8658 0.9471 0.321 -301.1605 -40.1463)" gradientUnits="userSpaceOnUse">
							<stop  offset="0.2894" style="stop-color:#FFFFFF;stop-opacity:0.6"/>
							<stop  offset="0.995" style="stop-color:#FFFFFF;stop-opacity:0"/>
						</radialGradient>
						<path id="XMLID_282_" class="st54" d="M295.2,217.9c0.4,0.1,0.6,0.5,0.5,0.9c-0.1,0.4-0.5,0.5-0.9,0.4
							c-0.4-0.1-0.6-0.5-0.5-0.9C294.4,217.9,294.8,217.7,295.2,217.9z"/>
						
							<radialGradient id="XMLID_75_" cx="-66.1356" cy="595.3346" r="9.1077" gradientTransform="matrix(0.2199 -0.9755 0.9755 0.2199 -272.2604 33.8082)" gradientUnits="userSpaceOnUse">
							<stop  offset="0.2894" style="stop-color:#FFFFFF;stop-opacity:0.6"/>
							<stop  offset="0.995" style="stop-color:#FFFFFF;stop-opacity:0"/>
						</radialGradient>
						<path id="XMLID_278_" class="st55" d="M298.4,225.4c1.5,0.5,2.4,2.1,1.9,3.5c-0.5,1.4-2.1,2.1-3.6,1.6
							c-1.5-0.5-2.4-2.1-1.9-3.5C295.2,225.6,296.8,224.9,298.4,225.4z"/>
						<g id="XMLID_275_">
							
								<radialGradient id="XMLID_76_" cx="-54.3243" cy="594.0127" r="12.4929" gradientTransform="matrix(0.2199 -0.9755 0.9755 0.2199 -272.2604 33.8082)" gradientUnits="userSpaceOnUse">
								<stop  offset="0.2894" style="stop-color:#FFFFFF;stop-opacity:0.6"/>
								<stop  offset="0.995" style="stop-color:#FFFFFF;stop-opacity:0"/>
							</radialGradient>
							<path id="XMLID_277_" class="st56" d="M296.8,218c2.5-2,5.7-1,8.5-0.1c0.8,0.3,1.1-1,0.3-1.2c-3.1-1-6.7-2-9.5,0.2
								C295.5,217.4,296.1,218.5,296.8,218L296.8,218z"/>
						</g>
					</g>
					
						<radialGradient id="XMLID_77_" cx="923.2563" cy="-153.4946" r="5.207" gradientTransform="matrix(-0.2199 0.9755 -1.218 -0.2745 323.1865 -717.3351)" gradientUnits="userSpaceOnUse">
						<stop  offset="2.424240e-02" style="stop-color:#FFFFFF"/>
						<stop  offset="8.048561e-02" style="stop-color:#DFC9BD"/>
						<stop  offset="0.1334" style="stop-color:#C49C87"/>
						<stop  offset="0.1726" style="stop-color:#B48065"/>
						<stop  offset="0.1939" style="stop-color:#AE7658"/>
						<stop  offset="0.2561" style="stop-color:#94654B"/>
						<stop  offset="0.3792" style="stop-color:#684934"/>
						<stop  offset="0.5038" style="stop-color:#443121"/>
						<stop  offset="0.6283" style="stop-color:#281E13"/>
						<stop  offset="0.7525" style="stop-color:#141108"/>
						<stop  offset="0.8764" style="stop-color:#080902"/>
						<stop  offset="1" style="stop-color:#040600"/>
					</radialGradient>
					<path id="XMLID_221_" class="st57" d="M314.5,225.7l-9.8-2.2c0,0-3-0.5-2.6-2.6c0.4-2.1,3.5,0.6,2.9,3.5
						c-0.7,2.9-1.7,4.8-3.7,4.1c-2.1-0.7-0.2-2.6,3.6-1.7c3.8,0.8,9,2,9,2"/>
				</g>
				<g id="XMLID_576_">
					<g id="XMLID_578_">
						<g id="XMLID_583_">
							
								<linearGradient id="XMLID_78_" gradientUnits="userSpaceOnUse" x1="156.5452" y1="451.7577" x2="175.6638" y2="451.7577" gradientTransform="matrix(0.8953 0.4454 -0.4454 0.8953 408.4531 -345.0963)">
								<stop  offset="0" style="stop-color:#F4BA38"/>
								<stop  offset="1" style="stop-color:#FFD349"/>
							</linearGradient>
							<path id="XMLID_590_" class="st58" d="M361.2,123.1c-0.8-0.5-8.9-3.8-12.8,4.1c-2.6,5.1,1.2,7.1-1.6,14.4l4.1,2l0.2,0.1
								l4.1,2c4.2-6.7,7.8-5,10.4-10.1C369.4,127.8,362.1,123.5,361.2,123.1z"/>
							
								<linearGradient id="XMLID_79_" gradientUnits="userSpaceOnUse" x1="698.2859" y1="53.6275" x2="698.4497" y2="61.6536" gradientTransform="matrix(-0.8953 -0.4454 0.4454 -0.8953 949.4232 508.5322)">
								<stop  offset="0" style="stop-color:#028FA0"/>
								<stop  offset="1" style="stop-color:#028FA0"/>
							</linearGradient>
							<path id="XMLID_589_" class="st59" d="M348.7,149.4l-1.1-0.5c-2-1-2.8-3.4-1.8-5.4l0.9-1.8l8.3,4.1l-0.9,1.8
								C353.2,149.6,350.7,150.4,348.7,149.4z"/>
							<path id="XMLID_588_" class="st16" d="M351.7,150.9l-7-3.5c-0.4-0.2-0.5-0.7-0.3-1l2.4-4.8l8.3,4.1l-2.4,4.8
								C352.5,150.9,352,151.1,351.7,150.9z"/>
							<g id="XMLID_584_">
								
									<linearGradient id="XMLID_80_" gradientUnits="userSpaceOnUse" x1="160.8791" y1="464.9098" x2="171.5458" y2="464.9098" gradientTransform="matrix(0.8953 0.4454 -0.4454 0.8953 408.4531 -345.0963)">
									<stop  offset="0" style="stop-color:#028FA0"/>
									<stop  offset="0.2704" style="stop-color:#028FA0"/>
									<stop  offset="0.5844" style="stop-color:#028FA0"/>
									<stop  offset="0.8388" style="stop-color:#028FA0"/>
									<stop  offset="1" style="stop-color:#028FA0"/>
								</linearGradient>
								<path id="XMLID_587_" class="st60" d="M353.9,147.9l-8.1-4c-0.4-0.2-0.6-0.7-0.4-1.1l0,0c0.2-0.4,0.7-0.6,1.1-0.4l8.1,4
									c0.4,0.2,0.6,0.7,0.4,1.1l0,0C354.8,148,354.3,148.1,353.9,147.9z"/>
								
									<linearGradient id="XMLID_81_" gradientUnits="userSpaceOnUse" x1="160.8792" y1="467.0468" x2="171.5459" y2="467.0468" gradientTransform="matrix(0.8953 0.4454 -0.4454 0.8953 408.4531 -345.0963)">
									<stop  offset="0" style="stop-color:#028FA0"/>
									<stop  offset="0.2704" style="stop-color:#028FA0"/>
									<stop  offset="0.5844" style="stop-color:#028FA0"/>
									<stop  offset="0.8388" style="stop-color:#028FA0"/>
									<stop  offset="1" style="stop-color:#028FA0"/>
								</linearGradient>
								<path id="XMLID_586_" class="st61" d="M352.9,149.8l-8.1-4c-0.4-0.2-0.6-0.7-0.4-1.1l0,0c0.2-0.4,0.7-0.6,1.1-0.4l8.1,4
									c0.4,0.2,0.6,0.7,0.4,1.1l0,0C353.8,149.9,353.3,150,352.9,149.8z"/>
								<path id="XMLID_585_" class="st16" d="M348.5,151.2l-2.1-1c-0.8-0.4-1.2-1.4-0.8-2.3l0,0l5.1,2.6l0,0
									C350.4,151.3,349.3,151.6,348.5,151.2z"/>
							</g>
						</g>
						
							<radialGradient id="XMLID_82_" cx="169.6456" cy="472.9265" r="1.4163" gradientTransform="matrix(0.7713 0.4908 -0.5369 0.8437 487.2085 -355.7598)" gradientUnits="userSpaceOnUse">
							<stop  offset="0.2894" style="stop-color:#FFFFFF;stop-opacity:0.6"/>
							<stop  offset="0.995" style="stop-color:#FFFFFF;stop-opacity:0"/>
						</radialGradient>
						<path id="XMLID_582_" class="st62" d="M364.3,127.4c-0.2,0.3-0.7,0.5-1,0.3c-0.3-0.2-0.4-0.6-0.2-1c0.2-0.3,0.7-0.5,1-0.3
							C364.5,126.6,364.6,127.1,364.3,127.4z"/>
						
							<radialGradient id="XMLID_83_" cx="159.6059" cy="444.0117" r="9.1078" gradientTransform="matrix(0.8953 0.4454 -0.4454 0.8953 408.4531 -345.0963)" gradientUnits="userSpaceOnUse">
							<stop  offset="0.2894" style="stop-color:#FFFFFF;stop-opacity:0.6"/>
							<stop  offset="0.995" style="stop-color:#FFFFFF;stop-opacity:0"/>
						</radialGradient>
						<path id="XMLID_581_" class="st63" d="M356.3,128.7c-0.9,1.4-2.6,1.8-3.8,1c-1.2-0.8-1.6-2.5-0.7-3.9c0.9-1.4,2.6-1.8,3.8-1
							C356.8,125.6,357.1,127.3,356.3,128.7z"/>
						<g id="XMLID_579_">
							
								<radialGradient id="XMLID_84_" cx="171.4171" cy="442.6897" r="12.493" gradientTransform="matrix(0.8953 0.4454 -0.4454 0.8953 408.4531 -345.0963)" gradientUnits="userSpaceOnUse">
								<stop  offset="0.2894" style="stop-color:#FFFFFF;stop-opacity:0.6"/>
								<stop  offset="0.995" style="stop-color:#FFFFFF;stop-opacity:0"/>
							</radialGradient>
							<path id="XMLID_580_" class="st64" d="M363.9,128.9c1.3,2.9-0.4,5.8-2,8.3c-0.4,0.7,0.7,1.3,1.1,0.6c1.7-2.7,3.5-6,2-9.2
								C364.7,127.8,363.5,128.2,363.9,128.9L363.9,128.9z"/>
						</g>
					</g>
					
						<radialGradient id="XMLID_85_" cx="697.4139" cy="-32.4118" r="5.2069" gradientTransform="matrix(-0.8953 -0.4454 0.556 -1.118 996.736 411.2646)" gradientUnits="userSpaceOnUse">
						<stop  offset="2.424240e-02" style="stop-color:#FFFFFF"/>
						<stop  offset="8.048561e-02" style="stop-color:#DFC9BD"/>
						<stop  offset="0.1334" style="stop-color:#C49C87"/>
						<stop  offset="0.1726" style="stop-color:#B48065"/>
						<stop  offset="0.1939" style="stop-color:#AE7658"/>
						<stop  offset="0.2561" style="stop-color:#94654B"/>
						<stop  offset="0.3792" style="stop-color:#684934"/>
						<stop  offset="0.5038" style="stop-color:#443121"/>
						<stop  offset="0.6283" style="stop-color:#281E13"/>
						<stop  offset="0.7525" style="stop-color:#141108"/>
						<stop  offset="0.8764" style="stop-color:#080902"/>
						<stop  offset="1" style="stop-color:#040600"/>
					</radialGradient>
					<path id="XMLID_577_" class="st65" d="M352.2,144.3l4.5-9c0,0,1.2-2.8,3.2-1.9c1.9,0.9-1.4,3.3-4.1,2c-2.7-1.3-4.3-2.8-3.1-4.6
						c1.2-1.8,2.5,0.4,0.8,3.9c-1.7,3.5-4.1,8.3-4.1,8.3"/>
				</g>
				<g id="XMLID_558_">
					<g id="XMLID_562_">
						<g id="XMLID_567_">
							
								<linearGradient id="XMLID_88_" gradientUnits="userSpaceOnUse" x1="126.242" y1="410.4641" x2="145.0172" y2="410.4641" gradientTransform="matrix(0.5661 0.8243 -0.8243 0.5661 665.0393 -164.5943)">
								<stop  offset="0" style="stop-color:#F4BA38"/>
								<stop  offset="1" style="stop-color:#FFD349"/>
							</linearGradient>
							<path id="XMLID_574_" class="st66" d="M412.9,173.2c-0.5-0.8-5.8-7.5-13-2.6c-4.6,3.2-2.3,6.6-8.3,11.6l2.5,3.7l0.1,0.2
								l2.5,3.7c6.8-3.7,9.1-0.5,13.7-3.7C417.7,181.2,413.5,174,412.9,173.2z"/>
							
								<linearGradient id="XMLID_89_" gradientUnits="userSpaceOnUse" x1="727.8834" y1="96.2758" x2="728.0443" y2="104.1582" gradientTransform="matrix(-0.5661 -0.8243 0.8243 -0.5661 721.7457 844.2015)">
								<stop  offset="0" style="stop-color:#028FA0"/>
								<stop  offset="1" style="stop-color:#028FA0"/>
							</linearGradient>
							<path id="XMLID_573_" class="st67" d="M389.6,189.9l-0.7-1c-1.2-1.8-0.8-4.3,1-5.5l1.6-1.1l5.2,7.5l-1.6,1.1
								C393.3,192.2,390.8,191.7,389.6,189.9z"/>
							<path id="XMLID_572_" class="st16" d="M390.7,191.5l-2.8-4.1c-0.7-0.9-0.4-2.2,0.5-2.9l3.2-2.2l5.2,7.5l-3.2,2.2
								C392.6,192.7,391.3,192.4,390.7,191.5z"/>
							<g id="XMLID_568_">
								
									<linearGradient id="XMLID_90_" gradientUnits="userSpaceOnUse" x1="130.4972" y1="423.38" x2="140.9723" y2="423.38" gradientTransform="matrix(0.5661 0.8243 -0.8243 0.5661 665.0393 -164.5943)">
									<stop  offset="0" style="stop-color:#028FA0"/>
									<stop  offset="0.2704" style="stop-color:#028FA0"/>
									<stop  offset="0.5844" style="stop-color:#028FA0"/>
									<stop  offset="0.8388" style="stop-color:#028FA0"/>
									<stop  offset="1" style="stop-color:#028FA0"/>
								</linearGradient>
								<path id="XMLID_571_" class="st68" d="M394.7,191.1l-5-7.3c-0.3-0.4-0.2-0.9,0.2-1.1l0,0c0.4-0.3,0.9-0.2,1.1,0.2l5,7.3
									c0.3,0.4,0.2,0.9-0.2,1.1l0,0C395.5,191.5,395,191.4,394.7,191.1z"/>
								
									<linearGradient id="XMLID_91_" gradientUnits="userSpaceOnUse" x1="130.4971" y1="425.4788" x2="140.9723" y2="425.4788" gradientTransform="matrix(0.5661 0.8243 -0.8243 0.5661 665.0393 -164.5943)">
									<stop  offset="0" style="stop-color:#028FA0"/>
									<stop  offset="0.2704" style="stop-color:#028FA0"/>
									<stop  offset="0.5844" style="stop-color:#028FA0"/>
									<stop  offset="0.8388" style="stop-color:#028FA0"/>
									<stop  offset="1" style="stop-color:#028FA0"/>
								</linearGradient>
								<path id="XMLID_570_" class="st69" d="M393,192.3l-5-7.3c-0.3-0.4-0.2-0.9,0.2-1.1l0,0c0.4-0.3,0.9-0.2,1.1,0.2l5,7.3
									c0.3,0.4,0.2,0.9-0.2,1.1l0,0C393.8,192.7,393.2,192.6,393,192.3z"/>
								<path id="XMLID_569_" class="st16" d="M388.5,191.3l-1.3-1.9c-0.5-0.8-0.3-1.8,0.4-2.3l0,0l3.2,4.6l0,0
									C390.1,192.3,389.1,192.1,388.5,191.3z"/>
							</g>
						</g>
						
							<radialGradient id="XMLID_92_" cx="131.6708" cy="434.5694" r="1.3909" gradientTransform="matrix(0.4356 0.8038 -0.8792 0.4765 738.4807 -135.2993)" gradientUnits="userSpaceOnUse">
							<stop  offset="0.2894" style="stop-color:#FFFFFF;stop-opacity:0.6"/>
							<stop  offset="0.995" style="stop-color:#FFFFFF;stop-opacity:0"/>
						</radialGradient>
						<path id="XMLID_566_" class="st70" d="M413.5,178.5c-0.4,0.2-0.8,0.1-1-0.2c-0.2-0.3,0-0.7,0.3-0.9c0.4-0.2,0.8-0.1,1,0.2
							C414,177.9,413.8,178.3,413.5,178.5z"/>
						
							<radialGradient id="XMLID_97_" cx="129.2478" cy="402.8572" r="8.9441" gradientTransform="matrix(0.5661 0.8243 -0.8243 0.5661 665.0393 -164.5943)" gradientUnits="userSpaceOnUse">
							<stop  offset="0.2894" style="stop-color:#FFFFFF;stop-opacity:0.6"/>
							<stop  offset="0.995" style="stop-color:#FFFFFF;stop-opacity:0"/>
						</radialGradient>
						<path id="XMLID_565_" class="st71" d="M405.9,175.7c-1.4,0.8-3.1,0.3-3.8-0.9c-0.7-1.3-0.1-2.9,1.3-3.7
							c1.4-0.8,3.1-0.3,3.8,0.9C407.9,173.3,407.3,175,405.9,175.7z"/>
						<g id="XMLID_563_">
							
								<radialGradient id="XMLID_98_" cx="140.847" cy="401.5594" r="12.2685" gradientTransform="matrix(0.5661 0.8243 -0.8243 0.5661 665.0393 -164.5943)" gradientUnits="userSpaceOnUse">
								<stop  offset="0.2894" style="stop-color:#FFFFFF;stop-opacity:0.6"/>
								<stop  offset="0.995" style="stop-color:#FFFFFF;stop-opacity:0"/>
							</radialGradient>
							<path id="XMLID_564_" class="st72" d="M412.4,179.6c-0.2,3.2-3.1,4.8-5.6,6.2c-0.7,0.4,0,1.4,0.7,1c2.8-1.5,5.9-3.5,6.1-7
								C413.7,179,412.4,178.8,412.4,179.6L412.4,179.6z"/>
						</g>
					</g>
					
						<radialGradient id="XMLID_102_" cx="728.1751" cy="1.8807" r="5.12" gradientTransform="matrix(-0.5661 -0.8243 1.0292 -0.7068 810.7769 783.3077)" gradientUnits="userSpaceOnUse">
						<stop  offset="2.424240e-02" style="stop-color:#FFFFFF"/>
						<stop  offset="8.048561e-02" style="stop-color:#DFC9BD"/>
						<stop  offset="0.1334" style="stop-color:#C49C87"/>
						<stop  offset="0.1726" style="stop-color:#B48065"/>
						<stop  offset="0.1939" style="stop-color:#AE7658"/>
						<stop  offset="0.2561" style="stop-color:#94654B"/>
						<stop  offset="0.3792" style="stop-color:#684934"/>
						<stop  offset="0.5038" style="stop-color:#443121"/>
						<stop  offset="0.6283" style="stop-color:#281E13"/>
						<stop  offset="0.7525" style="stop-color:#141108"/>
						<stop  offset="0.8764" style="stop-color:#080902"/>
						<stop  offset="1" style="stop-color:#040600"/>
					</radialGradient>
					<path id="XMLID_561_" class="st73" d="M395,187.2l8.1-5.6c0,0,2.4-1.8,3.7-0.2c1.3,1.7-2.8,2.1-4.4-0.3
						c-1.7-2.4-2.4-4.4-0.5-5.4c1.9-1,2,1.6-1.2,3.7c-3.1,2.1-7.5,5.1-7.5,5.1"/>
				</g>
				
					<linearGradient id="XMLID_103_" gradientUnits="userSpaceOnUse" x1="275.8977" y1="210.7448" x2="286.5714" y2="210.7448" gradientTransform="matrix(-1 0 0 1 627.7787 0)">
					<stop  offset="0.3237" style="stop-color:#028FA0"/>
					<stop  offset="1" style="stop-color:#028FA0"/>
				</linearGradient>
				<path id="XMLID_575_" class="st74" d="M346.2,152.5c-8.7,27,1,87.4,4.1,116.8"/>
				
					<linearGradient id="XMLID_114_" gradientUnits="userSpaceOnUse" x1="269.3552" y1="148.644" x2="287.5744" y2="148.644" gradientTransform="matrix(-1 0 0 1 627.7787 0)">
					<stop  offset="0.3237" style="stop-color:#028FA0"/>
					<stop  offset="1" style="stop-color:#028FA0"/>
				</linearGradient>
				<path id="XMLID_213_" class="st75" d="M346.3,155.7c0,0,15.6-3.2,11.4-7.7c-4.2-4.5-8.3,3.2-8.3,3.2s4.6-6.5,0.8-7.4
					c-3.8-1-4.9,6.7-4.9,6.7s0.9-9.7-2.9-8.8C338.6,142.5,339.6,152.7,346.3,155.7z"/>
				
					<linearGradient id="XMLID_116_" gradientUnits="userSpaceOnUse" x1="463.7464" y1="316.0832" x2="481.9653" y2="316.0832" gradientTransform="matrix(0.1362 0.9907 0.9907 -0.1362 -57.857 -197.6201)">
					<stop  offset="0.3237" style="stop-color:#028FA0"/>
					<stop  offset="1" style="stop-color:#028FA0"/>
				</linearGradient>
				<path id="XMLID_592_" class="st76" d="M327.1,229.8c0,0-5.3-15-9.2-10.3c-3.9,4.7,4.3,7.7,4.3,7.7s-7-3.7-7.5,0.3
					c-0.4,3.9,7.3,3.9,7.3,3.9s-9.8,0.4-8.3,4.1C315.1,239.2,325,236.9,327.1,229.8z"/>
				
					<linearGradient id="XMLID_121_" gradientUnits="userSpaceOnUse" x1="262.7036" y1="209.2053" x2="280.9228" y2="209.2053" gradientTransform="matrix(-0.849 -0.5284 -0.5284 0.849 732.3731 155.6542)">
					<stop  offset="0.3237" style="stop-color:#028FA0"/>
					<stop  offset="1" style="stop-color:#028FA0"/>
				</linearGradient>
				<path id="XMLID_593_" class="st77" d="M384.8,194.1c0,0,14.9,5.5,13.8-0.5c-1.1-6.1-8.7-1.6-8.7-1.6s7.3-3.1,4.6-5.9
					c-2.7-2.8-7.7,3.1-7.7,3.1s5.9-7.8,2.2-9C385.2,178.8,380.7,187.9,384.8,194.1z"/>
				<g id="XMLID_595_">
					
						<linearGradient id="SVGID_7_" gradientUnits="userSpaceOnUse" x1="250.479" y1="264.8072" x2="262.8616" y2="222.1562" gradientTransform="matrix(-1 0 0 1 627.7787 0)">
						<stop  offset="0.3237" style="stop-color:#028FA0"/>
						<stop  offset="1" style="stop-color:#028FA0"/>
					</linearGradient>
					<path class="st78" d="M352.5,262.9c9.5-3.7,14.7-13.7,18.5-23.1c3.8-9.4,7.6-19.7,16-25.3c-6.8,0.2-12.8,4.9-16.4,10.6
						c-3.7,5.7-5.5,12.4-7.6,18.8s-4.9,13-9.8,17.6"/>
					<g>
						<linearGradient id="SVGID_8_" gradientUnits="userSpaceOnUse" x1="361.8505" y1="265.7323" x2="377.5947" y2="211.5023">
							<stop  offset="0.3237" style="stop-color:#028FA0"/>
							<stop  offset="1" style="stop-color:#028FA0"/>
						</linearGradient>
						<path class="st79" d="M352.9,264.2c20.7-8.7,18-36.2,34.8-48.5c1-0.7,0.8-2.7-0.7-2.6c-9.4,0.8-16.1,7.7-20,15.8
							c-5.1,10.7-6.6,22.7-14.6,31.9c-0.8,1,0.4,2.3,1.4,1.4c13.8-12.2,10.5-44.9,33.1-46.4c-0.2-0.9-0.5-1.7-0.7-2.6
							c-16.9,12-14.5,39.9-34.4,48.5C350.4,262.4,351.5,264.8,352.9,264.2L352.9,264.2z"/>
					</g>
				</g>
				<g id="XMLID_596_">
					
						<linearGradient id="SVGID_9_" gradientUnits="userSpaceOnUse" x1="270.4271" y1="228.2654" x2="270.4271" y2="228.2654" gradientTransform="matrix(-1 0 0 1 627.7787 0)">
						<stop  offset="0.3237" style="stop-color:#028FA0"/>
						<stop  offset="1" style="stop-color:#028FA0"/>
					</linearGradient>
					<path class="st80" d="M357.4,228.3"/>
					<g>
						<linearGradient id="SVGID_10_" gradientUnits="userSpaceOnUse" x1="357.3481" y1="228.2775" x2="357.3551" y2="228.2533">
							<stop  offset="0.3237" style="stop-color:#028FA0"/>
							<stop  offset="1" style="stop-color:#028FA0"/>
						</linearGradient>
						<path class="st81" d="M357.4,228.3C357.4,228.3,357.4,228.3,357.4,228.3C357.3,228.3,357.3,228.3,357.4,228.3L357.4,228.3z"/>
					</g>
				</g>
				<g id="XMLID_597_">
					
						<linearGradient id="SVGID_11_" gradientUnits="userSpaceOnUse" x1="254.0473" y1="240.231" x2="274.3445" y2="170.3183" gradientTransform="matrix(-1 0 0 1 627.7787 0)">
						<stop  offset="0.3237" style="stop-color:#028FA0"/>
						<stop  offset="1" style="stop-color:#028FA0"/>
					</linearGradient>
					<path class="st82" d="M358.6,229.7c4.5-10.3,8.2-21.1,9.4-32.3c1.3-11.2,0-22.8-5.1-32.9c-7.2,12.2-9.4,27.3-6,41.1
						c1.8,7.2,5.1,14.8,2.4,21.7"/>
					<g>
						<linearGradient id="SVGID_12_" gradientUnits="userSpaceOnUse" x1="351.6418" y1="227.6895" x2="369.4903" y2="166.2114">
							<stop  offset="0.3237" style="stop-color:#028FA0"/>
							<stop  offset="1" style="stop-color:#028FA0"/>
						</linearGradient>
						<path class="st83" d="M359.1,230c10.4-20.2,15.3-44.8,5.1-66.1c-0.5-1-2-0.9-2.4,0c-5.2,9-8,19.2-7.8,29.7
							c0.1,5.1,0.9,10.1,2.3,15.1c1.8,6.6,2.7,12,2,18.8c-0.1,1.3,1.8,1.7,2.3,0.6c4.8-8.6-2-20.1-3.2-29c-1.5-11.7,1-23.5,6.9-33.7
							c-0.8,0-1.6,0-2.4,0c10.2,21.1,3.5,43.4-3.6,64.3C357.9,230.2,358.8,230.6,359.1,230L359.1,230z"/>
					</g>
				</g>
				<g id="XMLID_598_">
					
						<linearGradient id="SVGID_13_" gradientUnits="userSpaceOnUse" x1="283.8142" y1="244.7053" x2="305.3199" y2="170.63" gradientTransform="matrix(-1 0 0 1 627.7787 0)">
						<stop  offset="0.3237" style="stop-color:#028FA0"/>
						<stop  offset="1" style="stop-color:#028FA0"/>
					</linearGradient>
					<path class="st84" d="M345.7,228.4c-7.1-10.7-7.7-24.3-11.9-36.4c-3-8.8-7.9-16.9-14.3-23.6c1.8,11.2,2.3,22.7,5.6,33.5
						c3.3,10.9,9.8,21.4,20.1,26.2"/>
					<g>
						<linearGradient id="SVGID_14_" gradientUnits="userSpaceOnUse" x1="325.2884" y1="222.6028" x2="339.4592" y2="173.7922">
							<stop  offset="0.3237" style="stop-color:#028FA0"/>
							<stop  offset="1" style="stop-color:#028FA0"/>
						</linearGradient>
						<path class="st85" d="M346.6,227.9c-2.4-5.6-4.8-10.8-6.3-16.8c-1.4-5.5-2.4-11.1-4-16.5c-3-10.3-8.4-19.5-15.7-27.4
							c-1.2-1.3-2.9,0.1-2.7,1.6c2,13.2,2.5,26.9,7.7,39.3c3.3,8.1,10,19,19.2,21.3c1.2,0.3,2.4-1.3,1.3-2.3
							c-3.8-3.1-7.9-5.4-11.1-9.3c-3.4-4.2-5.9-9.2-7.7-14.3c-4-11.4-4.5-23.8-6.3-35.7c-0.9,0.5-1.8,1.1-2.7,1.6
							c8.3,9.1,13.3,19.6,16.3,31.5c2.3,9.3,3.7,20.8,10.2,28.3C345.8,230.2,347.1,228.9,346.6,227.9L346.6,227.9z"/>
					</g>
				</g>
				<g id="XMLID_599_">
					
						<linearGradient id="SVGID_15_" gradientUnits="userSpaceOnUse" x1="295.7704" y1="269.2622" x2="305.1365" y2="237.001" gradientTransform="matrix(-1 0 0 1 627.7787 0)">
						<stop  offset="0.3237" style="stop-color:#028FA0"/>
						<stop  offset="1" style="stop-color:#028FA0"/>
					</linearGradient>
					<path class="st86" d="M346.4,258.2c-0.9-5.1-5.7-8.7-10.6-10.2c-5-1.4-10.2-1.2-15.4-1.8c-5.1-0.5-10.6-2-13.9-5.9
						c0.2,6.5,5.2,12.1,11.2,14.6c6,2.5,12.7,2.3,19.1,1.3c3.2-0.5,6.8-1.1,9.3,1"/>
					<g>
						<linearGradient id="SVGID_16_" gradientUnits="userSpaceOnUse" x1="323.9084" y1="257.0515" x2="327.2732" y2="245.4614">
							<stop  offset="0.3237" style="stop-color:#028FA0"/>
							<stop  offset="1" style="stop-color:#028FA0"/>
						</linearGradient>
						<path class="st87" d="M347.4,257.9c-3.1-18.4-30.1-8.3-40-18.6c-0.9-0.9-2.7-0.3-2.6,1.1c0.6,7.2,5.3,13.1,11.9,16
							c3.7,1.7,7.9,2.3,12,2.3c5,0,12.1-2.8,16.4,0.1c1.8,1.2,3.4-1.7,1.7-2.8c-5.4-3.7-12.9-0.4-18.9-0.5
							c-9.1-0.2-19.1-4.8-19.9-14.9c-0.9,0.4-1.7,0.7-2.6,1.1c4.2,4.4,9.9,5.9,15.8,6.4c9,0.8,20.7,0.1,24.1,10.7
							C345.7,259.9,347.7,259.3,347.4,257.9L347.4,257.9z"/>
					</g>
				</g>
				<g id="XMLID_557_">
					
						<linearGradient id="XMLID_239_" gradientUnits="userSpaceOnUse" x1="248.4109" y1="297.9578" x2="309.6228" y2="297.9578" gradientTransform="matrix(-1 0 0 1 627.7787 0)">
						<stop  offset="0.3237" style="stop-color:#028FA0"/>
						<stop  offset="1" style="stop-color:#028FA0"/>
					</linearGradient>
					<polygon id="XMLID_555_" class="st88" points="379.4,275 371.2,320.9 325.3,320.9 318.2,279.4 					"/>
					
						<linearGradient id="XMLID_240_" gradientUnits="userSpaceOnUse" x1="245.2901" y1="274.7797" x2="312.7436" y2="274.7797" gradientTransform="matrix(-1 0 0 1 627.7787 0)">
						<stop  offset="0.3237" style="stop-color:#028FA0"/>
						<stop  offset="1" style="stop-color:#028FA0"/>
					</linearGradient>
					<path id="XMLID_539_" class="st89" d="M315.7,283.3h66.1c0.4,0,0.7-0.3,0.7-0.7v-15.7c0-0.4-0.3-0.7-0.7-0.7h-66.1
						c-0.4,0-0.7,0.3-0.7,0.7v15.7C315,283,315.3,283.3,315.7,283.3z"/>
					
						<linearGradient id="XMLID_241_" gradientUnits="userSpaceOnUse" x1="245.2901" y1="274.7797" x2="312.7436" y2="274.7797" gradientTransform="matrix(-1 0 0 1 627.7787 0)">
						<stop  offset="0.3237" style="stop-color:#028FA0"/>
						<stop  offset="1" style="stop-color:#028FA0"/>
					</linearGradient>
					<path id="XMLID_556_" class="st90" d="M315.7,283.3h66.1c0.4,0,0.7-0.3,0.7-0.7v-15.7c0-0.4-0.3-0.7-0.7-0.7h-66.1
						c-0.4,0-0.7,0.3-0.7,0.7v15.7C315,283,315.3,283.3,315.7,283.3z"/>
				</g>
				<g id="XMLID_351_">
					<g>
						<path class="st11" d="M343.1,255c-2.5-5-8.7-5.5-13.6-4.9c-5.4,0.7-13.1,2.6-16.7-2.9c-0.4-0.7-1.5,0-1.1,0.6
							c3,4.6,8.9,4.8,13.8,4.1c5.4-0.7,13.5-2.4,16.5,3.7C342.4,256.4,343.5,255.8,343.1,255L343.1,255z"/>
					</g>
				</g>
				<g id="XMLID_444_">
					<g>
						<path class="st11" d="M347.1,228.3c-3.6-1.6-6.2-4.6-8.4-7.7c-2.4-3.4-4.7-7-6.5-10.7c-3.7-7.9-4.4-16.8-5-25.4
							c-0.1-0.8-1.3-0.8-1.2,0c0.7,8.8,1.4,17.9,5.2,26.1c1.9,4,4.4,7.8,6.9,11.4c2.2,3.1,4.9,6,8.4,7.5
							C347.2,229.7,347.8,228.6,347.1,228.3L347.1,228.3z"/>
					</g>
				</g>
				<g id="XMLID_447_">
					<g>
						<path class="st11" d="M359.8,225.3c3.2-13.4,4.1-27.3,2.7-40.9c-0.1-0.8-1.3-0.8-1.2,0c1.4,13.6,0.5,27.3-2.7,40.6
							C358.4,225.7,359.6,226.1,359.8,225.3L359.8,225.3z"/>
					</g>
				</g>
				<g id="XMLID_448_">
					<g>
						<path class="st11" d="M351.1,263c3.3-2.4,6.7-4.8,9.3-8c2.6-3.2,3.9-6.9,5.2-10.7c1.5-4.3,3.2-8.4,5.4-12.4c1.1-2,2.3-4,3.4-6
							c1-1.8,2.1-4,4.1-4.7c0.8-0.3,0.4-1.5-0.3-1.2c-1.6,0.5-2.7,1.8-3.6,3.2c-1.2,1.9-2.3,3.8-3.4,5.8c-2.2,3.9-4.3,8-5.8,12.2
							c-1.5,4.2-2.6,8.6-5.2,12.2c-2.6,3.6-6.2,6.2-9.7,8.7C349.8,262.4,350.4,263.5,351.1,263L351.1,263z"/>
					</g>
				</g>
			</g>
		</g>
		<g id="XMLID_242_">
			
				<linearGradient id="XMLID_243_" gradientUnits="userSpaceOnUse" x1="470.3327" y1="300.6259" x2="480.6619" y2="300.6259" gradientTransform="matrix(0.9971 7.670000e-02 -7.670000e-02 0.9971 14.4186 -34.1358)">
				<stop  offset="0" style="stop-color:#00AABE"/>
				<stop  offset="1" style="stop-color:#028FA0"/>
			</linearGradient>
			<polygon id="XMLID_251_" class="st91" points="471.1,296.7 468.7,308 459.8,308.3 461.2,295.1 			"/>
			<path id="XMLID_247_" class="st92" d="M468.7,308l-0.5,7.5c0,0-12.9,1.2-14.9,1.2c-9.3,0.3,6.6-8.5,6.6-8.5L468.7,308z"/>
		</g>
		<g id="XMLID_200_">
			
				<linearGradient id="XMLID_244_" gradientUnits="userSpaceOnUse" x1="525.0085" y1="294.3632" x2="539.5079" y2="294.3632" gradientTransform="matrix(0.9971 7.670000e-02 -7.670000e-02 0.9971 14.4186 -34.1358)">
				<stop  offset="0" style="stop-color:#00AABE"/>
				<stop  offset="1" style="stop-color:#028FA0"/>
			</linearGradient>
			<polygon id="XMLID_214_" class="st93" points="523.9,292.2 529.7,302.3 523.2,308.3 515.5,297.6 			"/>
			<path id="XMLID_694_" class="st92" d="M529.7,302.3l4.6,5.9c0,0-8.9,9.5-10.3,10.8c-6.7,6.5-0.7-10.7-0.7-10.7L529.7,302.3z"/>
		</g>
		<path id="XMLID_181_" class="st92" d="M516.4,168.3c0,0,7.7,14.1-0.6,47.1c-6.1,24.1,12.1,80.3,12.1,80.3l-11.3,6.7
			c0,0-39.5-50.3-39-67.2C478,218.4,516.4,168.3,516.4,168.3z"/>
		
			<linearGradient id="XMLID_245_" gradientUnits="userSpaceOnUse" x1="455.3862" y1="231.8985" x2="523.1686" y2="231.8985" gradientTransform="matrix(0.9971 7.670000e-02 -7.670000e-02 0.9971 14.4186 -34.1358)">
			<stop  offset="0" style="stop-color:#00AABE"/>
			<stop  offset="1" style="stop-color:#028FA0"/>
		</linearGradient>
		<path id="XMLID_180_" class="st94" d="M516.4,168.3c0,0,11,27.3,1,40c-10,12.7-37.4,32.8-38.1,42.4c-0.7,9.6-7.3,51.6-7.3,51.6
			l-13-1c0,0-7.4-39-8.3-64.1c-1-26.5,27-60.5,27-60.5L516.4,168.3z"/>
		<g id="XMLID_176_">
			<g id="XMLID_179_">
				<path id="XMLID_794_" class="st95" d="M465.5,301.9c0-2.6,0.6-63.8,3.7-72.7c3.1-8.8,23.4-53.9,23.6-54.4l1,0.5
					c-0.2,0.5-20.5,45.5-23.6,54.3c-3.1,8.7-3.6,71.6-3.6,72.3L465.5,301.9z"/>
			</g>
		</g>
		
			<linearGradient id="XMLID_246_" gradientUnits="userSpaceOnUse" x1="449.8136" y1="167.4029" x2="517.1666" y2="167.4029" gradientTransform="matrix(0.9089 -0.4171 0.4171 0.9089 -32.2435 209.8282)">
			<stop  offset="0" style="stop-color:#F4BA38"/>
			<stop  offset="1" style="stop-color:#FFD349"/>
		</linearGradient>
		<path id="XMLID_162_" class="st96" d="M457.5,122.5l6.2-2.9c0,0,20.4,1.6,38.3,26.4c17.9,24.8,21,33.9,21,33.9
			s-15.3,24.9-63.7,22.6c0,0-9-42.9-1.2-70L457.5,122.5z"/>
		<g id="XMLID_14_">
			
				<linearGradient id="XMLID_248_" gradientUnits="userSpaceOnUse" x1="425.6067" y1="191.2683" x2="473.4644" y2="191.2683" gradientTransform="matrix(0.5884 -0.8085 0.8085 0.5884 59.3127 420.5328)">
				<stop  offset="0" style="stop-color:#FF911E"/>
				<stop  offset="1" style="stop-color:#FE931E;stop-opacity:0"/>
			</linearGradient>
			<path id="XMLID_105_" class="st97" d="M459.7,185.2C459.7,185.2,459.7,185.2,459.7,185.2c13.5-2.5,23.1-7.9,28.4-15.9
				c6.2-9.3,4.2-18.6,4.2-19c-0.1-0.5-0.6-0.8-1.1-0.7c0,0,0,0,0,0c-0.5,0.1-0.8,0.6-0.7,1.1c0,0.1,1.8,9-3.9,17.6
				c-5,7.5-14.1,12.6-27.1,15c-0.5,0.1-0.9,0.6-0.8,1.1C458.7,185,459.2,185.3,459.7,185.2z"/>
		</g>
		
			<linearGradient id="XMLID_249_" gradientUnits="userSpaceOnUse" x1="406.5176" y1="170.543" x2="423.4665" y2="170.543" gradientTransform="matrix(0.9905 0.1373 -0.1373 0.9905 27.8846 -49.6121)">
			<stop  offset="0" style="stop-color:#00AABE"/>
			<stop  offset="1" style="stop-color:#028FA0"/>
		</linearGradient>
		<path id="XMLID_9_" class="st98" d="M424.4,173.9c0,0-4.7-0.9-6.6-1.6s-1.5,1.5-0.3,1.8c1.3,0.3-10.1-1.9-10.2-0.4
			c-0.1,1.6,1.2,5.7,4.5,6.4c3.2,0.7,10.8,0.7,10.8,0.7L424.4,173.9z"/>
		
			<linearGradient id="XMLID_252_" gradientUnits="userSpaceOnUse" x1="405.4768" y1="171.1474" x2="480.1113" y2="171.1474" gradientTransform="matrix(0.5884 -0.8085 0.8085 0.5884 59.3127 420.5328)">
			<stop  offset="0" style="stop-color:#F4BA38"/>
			<stop  offset="1" style="stop-color:#FFD349"/>
		</linearGradient>
		<path id="XMLID_1_" class="st99" d="M491.3,145.3c0,0,0.3,24.9-17.3,34.7c-17.6,9.8-42.8,7.1-53.8,1.7l0.4-9.7
			c0,0,27-4.1,34.9-13.9c7.9-9.8,12.7-24.9,19.2-24.9C481.3,133.3,488.4,136.9,491.3,145.3z"/>
		<g id="XMLID_107_">
			<g id="XMLID_106_">
				
					<linearGradient id="XMLID_253_" gradientUnits="userSpaceOnUse" x1="474.6812" y1="124.8938" x2="488.4059" y2="124.8938" gradientTransform="matrix(0.9089 -0.4171 0.4171 0.9089 -32.2435 209.8282)">
					<stop  offset="0" style="stop-color:#00AABE"/>
					<stop  offset="1" style="stop-color:#028FA0"/>
				</linearGradient>
				<path id="XMLID_152_" class="st100" d="M450.4,123.4c0,0,6.8,5.5,7.7,9l5.6-12.9c0,0-5.3-3.6-6.2-6.6l-1.8,0.2L450.4,123.4z"/>
				
					<linearGradient id="XMLID_254_" gradientUnits="userSpaceOnUse" x1="462.3766" y1="113.8573" x2="484.6431" y2="113.8573" gradientTransform="matrix(0.9089 -0.4171 0.4171 0.9089 -32.2435 209.8282)">
					<stop  offset="0" style="stop-color:#00AABE"/>
					<stop  offset="1" style="stop-color:#028FA0"/>
				</linearGradient>
				<path id="XMLID_109_" class="st101" d="M436.5,118.4c0,0-1.2,2.5-0.6,2.9c0.6,0.5,1.2,0.8,3-0.2c0,0,9.8,8.9,14.5,5.9
					c7.8-5,1.7-18.8,0.4-18.5c-1.4,0.3-2.3,3.1-2.5,4.3c-0.2,1.2-0.9,2.5-1.8,0.2c-0.8-2.3-2.1-6.1-4-4.5
					c-1.9,1.6-10.6-5.2-12.2-1.4C431.8,111,436.5,118.4,436.5,118.4z"/>
			</g>
			<g id="XMLID_159_">
				<path class="st102" d="M436.7,103.6c-1.3-0.2-2.6-0.4-3.8,0.1c-1.2,0.5-2.1,1.9-1.5,3c0.2,0.4,0.5,0.7,0.5,1.2
					c0,0.6-0.7,1-1.1,1.6c-0.7,1,0.2,2.8,1.5,2.7c-0.5,0.5-0.6,1.3-0.3,1.9c0.4,0.7,1.6,0.5,2.1-0.2s0.7-1.5,1.2-2.2
					c0.5-0.7,1.5-1.2,2.1-0.6c0.3,0.2,0.4,0.6,0.6,0.8c1.2,1.2,3.3-1.2,4.6-0.3c0.4,0.3,0.6,0.9,1.2,1.1c1,0.3,1.8-1.3,2.8-1
					c0.5,0.1,0.7,0.7,1,1.1c0.9,1.5,2.9,2.2,4.5,1.5c1.2-0.5,2.6-1.5,3.4-0.6c0.2,0.3,0.3,0.7,0.4,1.1c0.6,1.6,2.9,2.1,4.3,1.2
					c1.5-0.9,2.1-2.7,2.1-4.4c-0.1-1.7-0.7-3.3-1.4-4.9c-0.4-1-0.8-2-1.7-2.6c-0.4-0.3-0.9-0.5-1.3-0.9c-1-0.9-0.8-2.5-1.6-3.5
					c-1.3-1.6-4.5-1.4-4.7-3.4c-0.1-0.7,0.3-1.6-0.2-2.2c-0.3-0.3-0.8-0.4-1.2-0.5c-5.6-0.6-11.4,0.8-16,3.9
					c-3.3,2.2-6.1,5.6-6.1,9.5c0.6,0,1.1,0,1.7,0c0.2,1.1-0.1,2.2,0.3,3.2c0.4,1,2.1,1.5,2.4,0.5"/>
			</g>
			<g id="XMLID_653_">
				<path class="st102" d="M431.3,111.3c-1.1,0.4-2.2-1.1-1.6-2.1c0.3-0.4,0.7-0.7,0.6-1.1c-0.1-0.4-0.5-0.5-0.8-0.7
					c-0.8-0.2-1.6-0.4-2.3-0.9c-0.7-0.4-1.3-1.2-1.2-2.1c0.2-1.7,2.9-2.1,3.5-3.7c0.2-0.4,0.1-0.9,0.3-1.4c0.1-0.5,0.5-0.9,0.8-1.2
					c1.8-2.1,3.8-3.9,6-5.4c0.6-0.4,1.3-0.8,2-0.8c0.5,0,1,0.2,1.6,0.3c1.8,0.2,3.6-0.9,5.2-0.2c0.5,0.2,0.9,0.6,1.4,0.6
					c0.7,0,1.1-0.7,1.7-0.9c0.8-0.2,1.7,0.4,2,1.2c0.3,0.8,0.2,1.7,0.1,2.6c0,0.3,0,0.7,0.2,0.9c0.2,0.1,0.4,0.2,0.6,0.2
					c0.9,0,1.8-0.2,2.8-0.1c0.9,0.1,1.9,0.7,2,1.6c0,0.2,0,0.5,0.1,0.7c0.4,0.7,1.7-0.1,2.3,0.5c0.3,0.3,0.3,0.7,0.3,1.1
					c0,1.3,0.6,2.4,1,3.6c0.4,1.2,0.8,2.5,0.4,3.7c-0.4,1.2-1.9,2.1-3,1.5c-1.1-0.6-1.6-2.4-2.8-2.3"/>
				<g>
					<path class="st102" d="M431.1,110.7c-1.3,0.3-0.7-1.2-0.5-1.6c0.2-0.3,0.4-0.6,0.3-1c-0.1-0.7-0.7-1-1.3-1.3
						c-1-0.4-3.9-0.9-2.9-2.7c0.4-0.7,1.4-1.1,2.1-1.6c0.5-0.4,1-0.8,1.2-1.5c0.2-0.5,0.1-1,0.3-1.5c0.3-0.7,0.9-1.3,1.5-1.9
						c0.8-0.9,1.7-1.7,2.6-2.5c1-0.9,2.3-2.1,3.6-2.5c1-0.3,2.3,0.3,3.4,0.1c1.4-0.2,2.7-0.7,4-0.1c0.7,0.3,1.3,0.6,2,0.3
						c0.7-0.3,0.9-0.7,1.6-0.6c1.1,0.2,1.1,1.4,1,2.4c-0.1,0.7-0.2,1.6,0.4,2.1c0.9,0.7,2.5,0,3.5,0.1c0.9,0.1,1.4,0.4,1.6,1.3
						c0.1,0.3,0.1,0.6,0.3,0.8c0.6,0.7,1.2,0.2,1.9,0.5c0.6,0.2,0.5,0.9,0.6,1.5c0.1,0.7,0.3,1.4,0.6,2c0.5,1.4,1.5,3.3,0.5,4.7
						c-0.4,0.7-1.3,1.1-2,0.6c-0.4-0.3-0.7-0.7-1-1.1c-0.6-0.7-1.1-1.2-2-1.2c-0.8,0-0.8,1.2,0,1.2c1,0.1,1.6,1.8,2.5,2.2
						c0.9,0.5,2,0.3,2.8-0.3c2.6-1.9,0.7-5.2,0-7.5c-0.3-0.9,0-2.5-0.9-3.1c-0.3-0.2-0.6-0.3-1-0.3c-0.2,0-0.6,0.1-0.8,0
						c-0.4-0.2-0.3-0.7-0.5-1c-0.4-0.9-1.4-1.4-2.3-1.6c-0.8-0.1-1.7,0.3-2.5,0.1c-0.5-0.1-0.4,0.3-0.7-0.4
						c-0.1-0.4,0.1-1.3,0.1-1.7c-0.1-1-0.6-2.1-1.6-2.5c-0.4-0.2-0.9-0.3-1.4-0.1c-1,0.3-1.1,1-2.3,0.6c-1.2-0.4-2.1-0.6-3.4-0.3
						c-0.9,0.2-1.8,0.4-2.7,0.2c-0.6-0.1-1.2-0.3-1.9-0.2c-1.3,0.3-2.4,1.2-3.3,2c-1.4,1.1-2.7,2.3-3.9,3.6c-0.4,0.5-0.9,1-1.3,1.5
						c-0.4,0.6-0.4,1.2-0.6,1.8c-0.3,1.2-1.6,1.6-2.5,2.4c-0.8,0.7-1.4,1.6-1.1,2.7c0.4,1.4,1.8,2,3.1,2.4c0.2,0.1,0.7,0.1,0.8,0.2
						c0.4,0.5-0.1,0.7-0.3,1.1c-0.2,0.4-0.2,0.9,0,1.3c0.4,1.1,1.4,1.6,2.4,1.4C432.2,111.8,431.9,110.5,431.1,110.7L431.1,110.7z"
						/>
				</g>
			</g>
			<g id="XMLID_660_">
				<path class="st102" d="M431,110.3c-0.6-1.6-1.3-3.2-1.9-4.8c-0.2-0.6-0.5-1.2-0.3-1.8c0.3-1.1,1.7-1.7,1.9-2.9
					c0.1-0.8-0.5-1.5-0.8-2.3c-0.5-1.4,0.3-3.2,1.7-3.8c1.2-0.5,2.6-0.2,3.7-0.7c0.7-0.3,1.2-0.9,1.6-1.5c1-1.2,2.1-2.4,3.5-3.1
					c1.4-0.6,3.3-0.5,4.3,0.7c0.3,0.3,0.5,0.7,0.8,1c1.3,1,3.3-0.9,4.9-0.4c1.6,0.6,1.5,3.2,3,4.1c0.7,0.4,1.6,0.4,2.5,0.5
					c2,0.3,3.5,2.3,3.5,4.3s-1.7,3.8-3.7,4.1"/>
				<g>
					<path class="st102" d="M431.7,110.1c-0.4-1-0.8-2-1.2-3c-0.4-1-1.4-2.6-0.8-3.6c0.7-1.3,2.1-1.8,1.6-3.5
						c-0.2-0.8-0.9-1.5-0.9-2.4c0-1.3,1-2.2,2.2-2.4c1-0.2,2-0.1,2.9-0.5c0.7-0.3,1.3-0.9,1.8-1.5c1.3-1.5,2.8-3.4,5-3.4
						c1.1,0,1.7,0.5,2.4,1.3c0.4,0.5,0.9,0.9,1.6,1c1.4,0.2,3.2-1.4,4.4-0.4c1,0.9,1,2.6,2.1,3.5c0.6,0.5,1.4,0.6,2.2,0.7
						c1.3,0.1,2.4,0.6,3.2,1.7c1.5,2.3-0.1,5-2.6,5.5c-0.8,0.1-0.5,1.4,0.3,1.2c4.1-0.8,5.5-6,2.2-8.6c-0.8-0.6-1.6-0.9-2.6-1
						c-1.5-0.2-2.2-0.4-2.8-1.8c-0.7-1.5-1.3-3-3.2-2.9c-0.8,0-1.6,0.5-2.4,0.6c-1.4,0.3-1.6-0.9-2.5-1.5c-1.6-1.1-3.8-0.8-5.3,0.3
						c-0.9,0.6-1.7,1.4-2.4,2.2c-0.4,0.4-0.7,0.9-1.1,1.3c-0.7,0.7-1.6,0.8-2.5,0.9c-1.9,0.2-3.5,0.9-4,2.9
						c-0.2,1.1,0.1,1.9,0.5,2.9c0.8,1.6-0.5,2-1.2,3.2c-0.5,0.9-0.3,1.9,0,2.8c0.6,1.6,1.3,3.2,1.9,4.8
						C430.7,111.2,431.9,110.9,431.7,110.1L431.7,110.1z"/>
				</g>
			</g>
			<g id="XMLID_667_">
				<path class="st102" d="M437.7,96.2c-0.9-0.5-2-0.4-2.9,0c-0.9,0.4-1.8,0.9-2.7,1.3c-0.5,0.2-1.1,0.3-1.6,0.4
					c-1.3,0.3-2.7,0.8-3.6,1.8c-0.9,1-1.3,2.6-0.5,3.7c0.3,0.3,0.6,0.6,0.7,1c0.2,0.5,0,1-0.1,1.5c0,1.2,1,2.3,2.2,2.6
					c1.2,0.3,2.4-0.1,3.5-0.7"/>
				<g>
					<path class="st102" d="M438,95.6c-1.8-1-3.6,0-5.3,0.8c-1.8,0.9-3.9,0.8-5.5,2c-1.4,1-2.3,2.8-1.7,4.5c0.1,0.4,0.4,0.7,0.6,1
						c0.1,0.2,0.3,0.3,0.4,0.5c0.1,0.3,0,0.7,0,1c-0.1,0.9,0.1,1.7,0.7,2.4c1.5,1.8,4,1.4,5.9,0.4c0.7-0.4,0.1-1.5-0.6-1.1
						c-0.9,0.5-2.1,0.9-3.2,0.6c-0.8-0.3-1.6-1-1.5-1.9c0-0.5,0.2-1,0.1-1.5c-0.1-0.4-0.3-0.8-0.6-1.1c-0.6-0.8-0.8-1.6-0.4-2.5
						c0.8-1.8,3.1-2.2,4.8-2.6c1-0.3,1.9-0.8,2.9-1.3c0.9-0.4,2-0.8,2.9-0.2C438.1,97.1,438.7,96,438,95.6L438,95.6z"/>
				</g>
			</g>
			<g id="XMLID_673_">
				<path class="st102" d="M427.9,104.4c0-0.3-0.5-0.3-0.7-0.1c-0.2,0.2-0.3,0.6-0.6,0.7c-0.1,0-0.2,0.1-0.2,0.2
					c0,0.1,0.2,0.2,0.2,0.1"/>
				<g>
					<path class="st102" d="M428.5,104.4c0-0.2,0-0.3-0.1-0.5c-0.1-0.2-0.3-0.3-0.5-0.4c-0.1,0-0.2-0.1-0.3-0.1
						c-0.1,0-0.2,0-0.3,0.1c-0.2,0.1-0.3,0.1-0.4,0.2c-0.1,0.1-0.2,0.2-0.2,0.3c-0.1,0.1-0.2,0.3-0.3,0.5c0,0,0.1-0.1,0.1-0.1
						c0,0-0.1,0.1-0.1,0.1c0,0,0.1-0.1,0.1-0.1c0,0-0.1,0.1-0.1,0.1c-0.1,0-0.2,0.1-0.2,0.2c-0.3,0.2-0.3,0.6-0.2,0.9
						c0.1,0.2,0.4,0.4,0.6,0.4c0.2,0,0.4-0.1,0.5-0.2c0.2-0.2,0.2-0.4,0.2-0.6c0-0.1-0.2-0.3-0.3-0.4c-0.1-0.1-0.3-0.1-0.5-0.1
						c-0.2,0-0.3,0.1-0.4,0.3c-0.1,0.2-0.1,0.3-0.1,0.5c0,0,0,0,0,0c0-0.1,0-0.1,0-0.2c0,0,0,0,0,0c0-0.1,0-0.1,0-0.2c0,0,0,0,0,0
						c0,0,0-0.1,0.1-0.1c0,0,0,0,0,0c0,0,0.1-0.1,0.1-0.1c0,0,0,0,0,0c0,0,0.1-0.1,0.1-0.1c0,0,0,0,0,0c0,0,0.1,0,0.1-0.1
						c0,0,0,0,0,0c0.1,0,0.1,0,0.2,0c0,0,0,0,0,0c0.1,0,0.1,0,0.2,0c0,0,0,0,0,0c0,0,0.1,0,0.1,0.1c0,0,0,0,0,0c0,0,0.1,0.1,0.1,0.1
						c0,0,0,0,0,0c0,0,0.1,0.1,0.1,0.1c0,0,0,0,0,0c0,0,0,0.1,0.1,0.1c0,0,0,0,0,0c0,0.1,0,0.1,0,0.2c0,0,0,0,0,0c0,0.1,0,0.1,0,0.2
						c0,0,0,0,0,0c0,0,0,0.1-0.1,0.1c0,0,0,0,0,0c0,0-0.1,0.1-0.1,0.1c0,0,0,0,0,0c0,0-0.1,0.1-0.1,0.1c0.1-0.1,0.2-0.1,0.2-0.1
						c0.2-0.1,0.3-0.2,0.4-0.4c0.1-0.2,0.2-0.3,0.3-0.5c0,0-0.1,0.1-0.1,0.1c0,0,0-0.1,0.1-0.1c0,0-0.1,0.1-0.1,0.1
						c0,0,0.1,0,0.1-0.1c0,0-0.1,0-0.1,0.1c0.1,0,0.1,0,0.2,0c-0.1,0-0.1,0-0.2,0c0,0,0.1,0,0.1,0c-0.1,0-0.1,0-0.2,0
						c0,0,0.1,0,0.1,0c0,0-0.1,0-0.1-0.1c0,0,0,0,0.1,0c0,0-0.1-0.1-0.1-0.1c0,0,0,0,0,0c0,0-0.1-0.1-0.1-0.1c0,0,0,0,0,0
						c0,0,0-0.1-0.1-0.1c0,0,0,0,0,0.1c0-0.1,0-0.1,0-0.2c0,0,0,0,0,0c0,0.2,0.1,0.3,0.2,0.4c0.1,0.1,0.3,0.2,0.4,0.2
						C428.2,105,428.5,104.8,428.5,104.4L428.5,104.4z"/>
				</g>
			</g>
			<g id="XMLID_685_">
				<path class="st102" d="M427.4,102.3c-1.5,0.9-2,3-1.1,4.5c0.6,1,1.8,1.7,2.2,2.8c0.3,0.7,0.3,1.5,0.4,2.2
					c0.4,2.1,2.5,3.8,4.6,3.8c0.7,0,1.5-0.2,1.8-0.9c0.2-0.5,0-1.1,0-1.7c0.1-1.1,1.3-1.8,1.6-2.8c0.2-1-0.5-2-1.3-2.6"/>
				<g>
					<path class="st102" d="M427.1,101.7c-1.6,1-2.3,3.1-1.6,4.9c0.4,1,1.2,1.6,1.9,2.4c0.9,1,0.7,2.2,1,3.3
						c0.5,1.9,2.2,3.4,4.1,3.8c0.9,0.2,2,0.2,2.7-0.3c0.4-0.3,0.7-0.6,0.8-1.1c0.1-0.6-0.1-1.2,0-1.7c0.3-1,1.4-1.6,1.6-2.7
						c0.2-1.2-0.5-2.4-1.5-3.1c-0.6-0.5-1.5,0.4-0.9,0.9c1,0.7,1.5,1.7,0.7,2.8c-0.6,0.8-1.2,1.4-1.2,2.4c0,0.5,0.3,1.2-0.3,1.5
						c-0.4,0.3-1,0.2-1.5,0.2c-1-0.2-1.9-0.7-2.6-1.5c-0.8-0.9-0.9-1.9-1-3c-0.2-1.1-0.7-2-1.5-2.8c-0.7-0.8-1.4-1.5-1.4-2.6
						c0-0.9,0.5-1.8,1.3-2.4C428.4,102.4,427.8,101.3,427.1,101.7L427.1,101.7z"/>
				</g>
			</g>
		</g>
		<g id="XMLID_123_">
			<linearGradient id="SVGID_17_" gradientUnits="userSpaceOnUse" x1="127.515" y1="147.1633" x2="152.5651" y2="141.8685">
				<stop  offset="0" style="stop-color:#F4BA38"/>
				<stop  offset="0.2815" style="stop-color:#F6C23B"/>
				<stop  offset="0.7214" style="stop-color:#FBD843"/>
				<stop  offset="1" style="stop-color:#FFEA49"/>
			</linearGradient>
			<path class="st103" d="M142.9,115.7c1.2,2.3,2.2,4.7,3.1,7.1c0.9,2.4,1.8,4.8,2.6,7.2c0.8,2.4,1.6,4.9,2.3,7.3l1,3.7l1,3.7
				l1.3,5.1l-5.6-0.6l-4.6-0.5l-4.6-0.6c-3.1-0.4-6.2-0.9-9.2-1.4l4.2-4.6c0.4,2.5,0.8,5.1,1.2,7.7c0.3,2.6,0.6,5.1,0.9,7.7
				c0.5,5.2,0.8,10.4,0.6,15.7c-2.4-4.8-4.2-9.7-5.8-14.6c-0.8-2.5-1.6-4.9-2.3-7.4c-0.7-2.5-1.4-5-2-7.5l-1.3-5.1l5.6,0.5
				c3.1,0.3,6.2,0.6,9.3,1l4.6,0.7l4.6,0.7l-4.2,4.6l-0.6-3.8l-0.5-3.8c-0.3-2.5-0.6-5.1-0.9-7.6c-0.2-2.5-0.4-5.1-0.5-7.7
				C142.9,120.9,142.8,118.3,142.9,115.7z"/>
		</g>
		<path id="XMLID_299_" class="st16" d="M314,81.8c0-8.9-8.3-16.1-18.5-16.1c-10.2,0-18.5,7.2-18.5,16.1c0,8.2,7,15,16.1,16
			c-0.3,1.6-1.1,3.5-2.9,5.4c0,0,6.3,0,9-5.6C307.7,96.1,314,89.6,314,81.8z"/>
		<g id="XMLID_151_" class="st6">
			<linearGradient id="XMLID_255_" gradientUnits="userSpaceOnUse" x1="284.6341" y1="82.9688" x2="290.6896" y2="82.9688">
				<stop  offset="0" style="stop-color:#00AABE"/>
				<stop  offset="1" style="stop-color:#028FA0"/>
			</linearGradient>
			<path id="XMLID_129_" class="st104" d="M290.7,83c0,1.7-1.4,3-3,3s-3-1.4-3-3c0-1.7,1.4-3,3-3S290.7,81.3,290.7,83z"/>
			<linearGradient id="XMLID_256_" gradientUnits="userSpaceOnUse" x1="292.4828" y1="82.9688" x2="298.5383" y2="82.9688">
				<stop  offset="0" style="stop-color:#00AABE"/>
				<stop  offset="1" style="stop-color:#028FA0"/>
			</linearGradient>
			<path id="XMLID_292_" class="st105" d="M298.5,83c0,1.7-1.4,3-3,3s-3-1.4-3-3c0-1.7,1.4-3,3-3S298.5,81.3,298.5,83z"/>
			<linearGradient id="XMLID_257_" gradientUnits="userSpaceOnUse" x1="300.3314" y1="82.9688" x2="306.387" y2="82.9688">
				<stop  offset="0" style="stop-color:#00AABE"/>
				<stop  offset="1" style="stop-color:#028FA0"/>
			</linearGradient>
			<path id="XMLID_301_" class="st106" d="M306.4,83c0,1.7-1.4,3-3,3c-1.7,0-3-1.4-3-3c0-1.7,1.4-3,3-3
				C305,79.9,306.4,81.3,306.4,83z"/>
		</g>
		<path id="XMLID_672_" class="st107" d="M300.8,95.7c0-8.9,8.3-16.1,18.5-16.1c10.2,0,18.5,7.2,18.5,16.1c0,8.2-7,15-16.1,16
			c0.3,1.6,1.1,3.5,2.9,5.4c0,0-6.3,0-9-5.6C307.2,110,300.8,103.5,300.8,95.7z"/>
		<g id="XMLID_310_" class="st6">
			
				<linearGradient id="XMLID_258_" gradientUnits="userSpaceOnUse" x1="364.0764" y1="96.7768" x2="370.1319" y2="96.7768" gradientTransform="matrix(-1 0 0 1 694.259 0)">
				<stop  offset="0" style="stop-color:#00AABE"/>
				<stop  offset="1" style="stop-color:#028FA0"/>
			</linearGradient>
			<path id="XMLID_670_" class="st108" d="M324.1,96.8c0,1.7,1.4,3,3,3c1.7,0,3-1.4,3-3c0-1.7-1.4-3-3-3
				C325.5,93.7,324.1,95.1,324.1,96.8z"/>
			
				<linearGradient id="XMLID_259_" gradientUnits="userSpaceOnUse" x1="371.9251" y1="96.7768" x2="377.9806" y2="96.7768" gradientTransform="matrix(-1 0 0 1 694.259 0)">
				<stop  offset="0" style="stop-color:#00AABE"/>
				<stop  offset="1" style="stop-color:#028FA0"/>
			</linearGradient>
			<path id="XMLID_669_" class="st109" d="M316.3,96.8c0,1.7,1.4,3,3,3c1.7,0,3-1.4,3-3c0-1.7-1.4-3-3-3
				C317.6,93.7,316.3,95.1,316.3,96.8z"/>
			
				<linearGradient id="XMLID_260_" gradientUnits="userSpaceOnUse" x1="379.7738" y1="96.7768" x2="385.8293" y2="96.7768" gradientTransform="matrix(-1 0 0 1 694.259 0)">
				<stop  offset="0" style="stop-color:#00AABE"/>
				<stop  offset="1" style="stop-color:#028FA0"/>
			</linearGradient>
			<path id="XMLID_609_" class="st110" d="M308.4,96.8c0,1.7,1.4,3,3,3c1.7,0,3-1.4,3-3c0-1.7-1.4-3-3-3
				C309.8,93.7,308.4,95.1,308.4,96.8z"/>
		</g>
		<g id="XMLID_308_">
			<g>
				<linearGradient id="SVGID_18_" gradientUnits="userSpaceOnUse" x1="72.0341" y1="218.1214" x2="76.9244" y2="218.1214">
					<stop  offset="0" style="stop-color:#028FA0"/>
					<stop  offset="1" style="stop-color:#028FA0"/>
				</linearGradient>
				<path class="st111" d="M74.5,220.7c3.3,0,3.3-5.1,0-5.1C71.2,215.6,71.2,220.7,74.5,220.7L74.5,220.7z"/>
			</g>
		</g>
		<g id="XMLID_309_">
			<g>
				<linearGradient id="SVGID_19_" gradientUnits="userSpaceOnUse" x1="105.5316" y1="146.8161" x2="106.6817" y2="146.8161">
					<stop  offset="0" style="stop-color:#028FA0"/>
					<stop  offset="1" style="stop-color:#028FA0"/>
				</linearGradient>
				<path class="st112" d="M104.1,151.9c0.3,0.1,0.7,0.1,1,0.2c1,0.3,1.9,0.3,2.9,0c0.9-0.3,1.7-0.7,2.4-1.4
					c0.3-0.4,0.6-0.7,0.9-1.1c0.5-0.9,0.7-1.8,0.7-2.8c0-0.8-0.1-1.5-0.5-2.1c-0.2-0.7-0.6-1.3-1.1-1.8c-0.7-0.7-1.5-1.1-2.4-1.4
					c-1-0.3-1.9-0.3-2.9,0c-0.3,0.1-0.7,0.1-1,0.2c-0.4,0.2-0.8,0.4-1.3,0.5c-0.6,0.3-1.1,0.8-1.5,1.4c-0.3,0.3-0.6,0.7-0.7,1.2
					c-0.3,0.6-0.5,1.3-0.5,2c0.1,0.5,0.1,0.9,0.2,1.4c0.2,0.4,0.4,0.8,0.5,1.3c0.3,0.6,0.8,1.1,1.4,1.5
					C102.8,151.4,103.4,151.8,104.1,151.9L104.1,151.9z"/>
			</g>
		</g>
		<g id="XMLID_737_">
			<g>
				<linearGradient id="SVGID_20_" gradientUnits="userSpaceOnUse" x1="328.4128" y1="164.0674" x2="333.4842" y2="164.0674">
					<stop  offset="0" style="stop-color:#028FA0"/>
					<stop  offset="1" style="stop-color:#028FA0"/>
				</linearGradient>
				<path class="st113" d="M330.9,166.7c3.4,0,3.4-5.2,0-5.2C327.6,161.4,327.6,166.7,330.9,166.7L330.9,166.7z"/>
			</g>
		</g>
		<g id="XMLID_738_">
			<g>
				<linearGradient id="SVGID_21_" gradientUnits="userSpaceOnUse" x1="381.1988" y1="145.3253" x2="383.056" y2="145.3253">
					<stop  offset="0" style="stop-color:#028FA0"/>
					<stop  offset="1" style="stop-color:#028FA0"/>
				</linearGradient>
				<path class="st114" d="M379,148.2c0.2,0.2,0.4,0.3,0.5,0.5c0.4,0.4,0.9,0.7,1.4,0.9c0.5,0.3,1.1,0.4,1.7,0.4
					c0.6,0,1.1-0.1,1.7-0.4c0.5-0.2,1-0.5,1.4-0.9c0.8-0.8,1.3-1.9,1.3-3.1c-0.1-0.4-0.1-0.8-0.2-1.1c-0.2-0.7-0.6-1.4-1.1-1.9
					c-0.2-0.2-0.3-0.4-0.5-0.5c-0.4-0.4-0.9-0.7-1.4-0.9c-0.5-0.3-1.1-0.4-1.7-0.4c-0.6,0-1.2,0.1-1.7,0.4c-0.5,0.2-1,0.5-1.4,0.9
					c-0.8,0.8-1.3,1.9-1.3,3.1c0.1,0.4,0.1,0.8,0.2,1.2C378.1,147,378.5,147.6,379,148.2L379,148.2z"/>
			</g>
		</g>
		<g id="XMLID_774_">
			<g>
				<linearGradient id="SVGID_22_" gradientUnits="userSpaceOnUse" x1="200.1396" y1="281.2111" x2="204.7582" y2="281.2111">
					<stop  offset="0" style="stop-color:#028FA0"/>
					<stop  offset="1" style="stop-color:#028FA0"/>
				</linearGradient>
				<path class="st115" d="M202.4,283.6c3.1,0,3.1-4.8,0-4.8C199.4,278.8,199.4,283.6,202.4,283.6L202.4,283.6z"/>
			</g>
		</g>
		<g id="XMLID_137_">
			<path id="XMLID_732_" class="st16" d="M449.7,41.5h-52.4c-1.3,0-2.3,1-2.3,2.3c0,1.3,1,2.3,2.3,2.3h52.4c1.3,0,2.3-1,2.3-2.3
				C452,42.5,451,41.5,449.7,41.5z"/>
			<path id="XMLID_731_" class="st16" d="M380.6,41.5h-10.2c-1.3,0-2.3,1-2.3,2.3s1,2.3,2.3,2.3h10.2c1.3,0,2.3-1,2.3-2.3
				S381.9,41.5,380.6,41.5z"/>
			<path id="XMLID_648_" class="st16" d="M425.1,59.8c0,1.3-1,2.3-2.3,2.3h-6.6c-1.3,0-2.3-1-2.3-2.3c0-1.3,1-2.3,2.3-2.3h6.6
				C424,57.5,425.1,58.5,425.1,59.8z M407,59.8c0,1.3-1,2.3-2.3,2.3h-11.5c-1.3,0-2.3-1-2.3-2.3c0-1.3,1-2.3,2.3-2.3h11.5
				C406,57.5,407,58.5,407,59.8z M384.1,59.8c0,1.3-1,2.3-2.3,2.3h-11.5c-1.3,0-2.3-1-2.3-2.3c0-1.3,1-2.3,2.3-2.3h11.5
				C383.1,57.5,384.1,58.5,384.1,59.8z"/>
		</g>
	</g>
</g>
<g id="DESIGNED_BY_FREEPIK">
</g>
</svg>
