<svg xmlns="http://www.w3.org/2000/svg" width="19.988" height="19.988" viewBox="0 0 19.988 19.988"><path d="M11.994,2a9.994,9.994,0,1,0,9.994,9.994A9.994,9.994,0,0,0,11.994,2ZM7.711,19.4V17.976a2.3,2.3,0,0,1,2.142-2.413h4.283a2.3,2.3,0,0,1,2.142,2.42v1.428a8.509,8.509,0,0,1-8.566,0Zm9.994-1.042v-.435a3.719,3.719,0,0,0-3.569-3.791H9.853a3.712,3.712,0,0,0-3.569,3.791h0v.421a8.566,8.566,0,1,1,11.422,0Z" transform="translate(-2 -2)"/><path d="M14.569,7a3.569,3.569,0,1,0,3.569,3.569A3.569,3.569,0,0,0,14.569,7Zm0,5.711a2.142,2.142,0,1,1,2.142-2.142A2.142,2.142,0,0,1,14.569,12.711Z" transform="translate(-4.575 -3.431)"/></svg>