<?xml version="1.0" encoding="utf-8"?>
<!-- Generator: Adobe Illustrator 24.1.0, SVG Export Plug-In . SVG Version: 6.00 Build 0)  -->
<svg version="1.1" id="Layer_1" xmlns="http://www.w3.org/2000/svg" xmlns:xlink="http://www.w3.org/1999/xlink" x="0px" y="0px"
	 viewBox="0 0 262.8 108" style="enable-background:new 0 0 262.8 108;" xml:space="preserve">
<style type="text/css">
	.st0{fill:#6E7C7C;}
	.st1{fill:#00BED6;}
</style>
<g>
	<path class="st0" d="M84.98,20.95c3.77,0,7.21,0.73,10.31,2.19c3.1,1.46,5.69,3.43,7.77,5.92c2.08,2.49,3.57,5.41,4.47,8.75
		c0.9,3.35,1.03,6.94,0.4,10.78c-0.34,2.06-0.89,4.06-1.63,5.98l-0.14,0.21H78.62L76.55,43.9H94.3c-0.5-2.99-1.75-5.44-3.74-7.37
		c-1.99-1.92-4.56-2.88-7.69-2.88c-1.92,0-3.8,0.39-5.64,1.17s-3.49,1.83-4.95,3.14c-1.46,1.31-2.7,2.87-3.71,4.68
		c-1.01,1.81-1.7,3.78-2.05,5.9c-0.27,1.63-0.23,3.32,0.12,5.05c0.35,1.74,1.01,3.32,1.99,4.73c0.97,1.42,2.24,2.61,3.78,3.56
		s3.39,1.44,5.53,1.44c1.92,0,3.73-0.27,5.42-0.8c1.69-0.53,3.4-1.72,5.13-3.58l0.12-0.11l0.2,0.11l11.48,5.45l-0.25,0.22
		c-3.16,3.59-6.88,6.39-11.16,8.4c-4.28,2.01-8.63,3.01-13.04,3.01c-3.84,0-7.34-0.71-10.48-2.13c-3.14-1.42-5.75-3.38-7.83-5.87
		c-2.08-2.49-3.57-5.41-4.47-8.75c-0.9-3.34-1.04-6.9-0.41-10.67c0.64-3.84,1.96-7.44,3.98-10.78c2.01-3.34,4.47-6.26,7.38-8.75
		c2.9-2.49,6.17-4.46,9.79-5.92C77.4,21.68,81.14,20.95,84.98,20.95z"/>
	<path class="st0" d="M135.46,0.45l-12.42,74.72h-14.2l12.52-74.72H135.46z"/>
	<path class="st0" d="M165.04,20.95c3.84,0,7.31,0.73,10.42,2.19c3.1,1.46,5.69,3.43,7.77,5.92c2.08,2.49,3.57,5.41,4.47,8.75
		c0.9,3.35,1.04,6.9,0.41,10.67c-0.63,3.77-1.95,7.33-3.96,10.67c-2.02,3.35-4.47,6.26-7.38,8.75c-2.91,2.49-6.15,4.47-9.74,5.92
		c-3.59,1.46-7.3,2.19-11.14,2.19s-7.32-0.73-10.42-2.19c-3.1-1.46-5.69-3.43-7.77-5.92c-2.08-2.49-3.57-5.41-4.47-8.75
		c-0.9-3.34-1.04-6.9-0.41-10.67c0.63-3.77,1.95-7.33,3.96-10.67c2.01-3.34,4.47-6.26,7.38-8.75c2.9-2.49,6.15-4.46,9.74-5.92
		C157.48,21.68,161.2,20.95,165.04,20.95z M157.99,63.32c1.78,0,3.5-0.39,5.16-1.17c1.66-0.78,3.19-1.87,4.6-3.26
		c1.41-1.39,2.6-2.99,3.57-4.8c0.98-1.81,1.64-3.79,2-5.92c0.33-1.99,0.31-3.9-0.07-5.71c-0.38-1.81-1.04-3.38-1.99-4.7
		c-0.96-1.32-2.13-2.36-3.53-3.15c-1.4-0.78-2.99-1.17-4.77-1.17c-1.78,0-3.52,0.39-5.21,1.17c-1.7,0.78-3.24,1.83-4.63,3.15
		c-1.39,1.32-2.58,2.88-3.56,4.7c-0.98,1.81-1.63,3.72-1.96,5.71c-0.35,2.13-0.35,4.11,0.03,5.92c0.37,1.81,1.03,3.42,1.98,4.8
		c0.94,1.39,2.13,2.47,3.57,3.26C154.61,62.93,156.22,63.32,157.99,63.32z"/>
	<g>
		<polygon class="st0" points="245.55,35.57 245.64,35.68 247.94,21.8 194.68,21.8 192.76,33.33 225.43,33.33 191.42,58.46 
			214.43,58.46 		"/>
		<polygon class="st1" points="261.65,69.14 242.7,52.71 241.02,62.47 187.61,62.48 187.61,62.5 185.42,75.17 238.84,75.17 
			237.02,85.71 		"/>
		<polygon class="st0" points="45.66,21.8 27.19,57.01 30.5,74.41 60.82,21.8 		"/>
		<polygon class="st0" points="16.4,21.91 16.41,21.8 1.15,21.8 13.91,75.17 26.53,75.17 		"/>
	</g>
	<g>
		<g>
			<path class="st0" d="M141.98,96.37c-0.19-0.7-0.56-2-2.57-2c-1.16,0-2.87,0.78-2.87,4.05c0,2.08,0.82,3.96,2.87,3.96
				c1.34,0,2.28-0.76,2.57-2.18h2.42c-0.48,2.52-2.13,4.28-5.04,4.28c-3.09,0-5.3-2.08-5.3-6.09c0-4.05,2.34-6.12,5.33-6.12
				c3.47,0,4.88,2.39,5.01,4.1H141.98z"/>
			<path class="st0" d="M147.72,97.67v-3.1h3.02c1.42,0,1.7,0.9,1.7,1.52c0,1.15-0.61,1.58-1.87,1.58H147.72z M145.34,104.17h2.37
				v-4.54h2.5c1.79,0,1.89,0.61,1.89,2.2c0,1.19,0.1,1.79,0.26,2.34h2.68v-0.31c-0.52-0.19-0.52-0.61-0.52-2.31
				c0-2.16-0.52-2.52-1.47-2.94c1.15-0.39,1.79-1.49,1.79-2.76c0-1-0.56-3.28-3.65-3.28h-5.86V104.17z"/>
			<path class="st0" d="M158,98.37c0-3.25,1.84-4.05,3.15-4.05c1.31,0,3.15,0.81,3.15,4.05c0,3.25-1.84,4.05-3.15,4.05
				C159.85,102.42,158,101.61,158,98.37z M155.58,98.37c0,5.44,4.04,6.1,5.57,6.1c1.53,0,5.57-0.66,5.57-6.1
				c0-5.44-4.04-6.1-5.57-6.1C159.62,92.26,155.58,92.93,155.58,98.37z"/>
			<path class="st0" d="M166.8,92.57h2.58c1.49,6.35,1.63,7.15,1.84,8.48h0.03c0.21-1.21,0.39-2.39,1.62-8.48h2.57
				c1.36,6.36,1.47,6.98,1.73,8.48h0.03c0.19-1.1,0.39-2.1,1.89-8.48h2.45l-3.26,11.59h-2.33c-1.2-5.68-1.41-6.82-1.79-9.04h-0.03
				c-0.36,2.23-0.55,3.07-1.79,9.04h-2.26L166.8,92.57z"/>
			<path class="st0" d="M184.99,102.07h5.77v2.1h-8.19V92.57h2.42V102.07z"/>
			<path class="st0" d="M200.51,94.62h-6.15v2.44h5.65v2.05h-5.65v3h6.43v2.05h-8.8V92.57h8.53V94.62z"/>
			<path class="st0" d="M208.02,104.17h-2.42v-4.38l-4-7.22h2.86l2.41,5.04l2.29-5.04h2.74l-3.87,7.25V104.17z"/>
			<path class="st0" d="M214.14,93.67c0,0.51-0.36,0.85-0.79,0.85v0c-0.44,0-0.79-0.34-0.79-0.85c0-0.51,0.35-0.85,0.79-0.85
				C213.78,92.83,214.14,93.17,214.14,93.67z M213.17,93.77h0.12l0.27,0.5h0.3l-0.3-0.52c0.16-0.01,0.29-0.09,0.29-0.31
				c0-0.27-0.18-0.36-0.49-0.36h-0.44v1.19h0.25V93.77z M213.17,93.57v-0.28h0.18c0.1,0,0.23,0.01,0.23,0.13
				c0,0.13-0.07,0.15-0.18,0.15H213.17z M214.46,93.67c0-0.7-0.52-1.1-1.11-1.1c-0.59,0-1.11,0.4-1.11,1.1c0,0.7,0.52,1.1,1.11,1.1
				C213.94,94.78,214.46,94.37,214.46,93.67z"/>
		</g>
		<g>
			<path class="st0" d="M53.44,104.17v-11.1h4.08c0.66,0,1.17,0.03,1.51,0.1s0.66,0.17,0.93,0.32c0.45,0.25,0.8,0.61,1.04,1.09
				c0.24,0.48,0.36,1.05,0.36,1.7c0,0.62-0.12,1.16-0.36,1.64c-0.24,0.47-0.59,0.85-1.05,1.13c-0.27,0.16-0.58,0.27-0.94,0.34
				c-0.36,0.07-0.95,0.1-1.77,0.1h-2.29v4.68H53.44z M54.94,98.15h2.53c0.88,0,1.49-0.14,1.84-0.42c0.35-0.28,0.52-0.76,0.52-1.45
				c0-0.66-0.17-1.13-0.52-1.42s-0.92-0.43-1.73-0.43h-2.64V98.15z"/>
			<path class="st0" d="M61.44,100.12c0-1.35,0.34-2.4,1.01-3.16c0.68-0.75,1.62-1.13,2.84-1.13c1.23,0,2.18,0.38,2.86,1.13
				s1.02,1.8,1.02,3.16s-0.34,2.41-1.01,3.17c-0.68,0.75-1.62,1.13-2.84,1.13c-1.23,0-2.18-0.38-2.86-1.13
				C61.78,102.54,61.44,101.48,61.44,100.12z M62.83,100.12c0,1,0.21,1.76,0.64,2.29c0.43,0.53,1.04,0.79,1.84,0.79
				c0.79,0,1.4-0.26,1.82-0.79c0.42-0.53,0.63-1.29,0.63-2.29c0-0.99-0.21-1.76-0.63-2.29c-0.42-0.53-1.03-0.79-1.82-0.79
				c-0.8,0-1.42,0.26-1.85,0.79S62.83,99.12,62.83,100.12z"/>
			<path class="st0" d="M71.5,104.17l-2.41-8.07h1.41l1.71,6.17l1.59-6.17h1.57l1.57,6.17l1.77-6.17h1.39l-2.46,8.07h-1.37
				l-1.7-6.22l-1.71,6.22H71.5z"/>
			<path class="st0" d="M86.04,101.56h1.34c-0.15,0.89-0.53,1.59-1.16,2.1c-0.63,0.51-1.42,0.77-2.37,0.77c-1.12,0-2-0.38-2.65-1.13
				s-0.97-1.78-0.97-3.08c0-1.38,0.32-2.45,0.96-3.22s1.53-1.16,2.66-1.16c1.16,0,2.06,0.36,2.69,1.07
				c0.64,0.71,0.95,1.72,0.95,3.02c0,0.17,0,0.29,0,0.37c0,0.08-0.01,0.16-0.02,0.23h-5.82c0.02,0.85,0.23,1.51,0.63,1.97
				c0.41,0.46,0.97,0.7,1.69,0.7c0.55,0,1.01-0.14,1.37-0.43C85.7,102.49,85.93,102.08,86.04,101.56z M81.64,99.4h4.43
				c0-0.75-0.2-1.33-0.57-1.74c-0.38-0.41-0.91-0.61-1.6-0.61c-0.67,0-1.19,0.2-1.58,0.6C81.93,98.04,81.7,98.63,81.64,99.4z"/>
			<path class="st0" d="M88.77,104.17V96.1h1.31v1.45c0.22-0.54,0.51-0.95,0.88-1.22c0.37-0.27,0.82-0.4,1.36-0.4
				c0.1,0,0.17,0,0.22,0c0.05,0,0.09,0.01,0.14,0.02v1.43c-0.04,0-0.08-0.01-0.12-0.01c-0.04,0-0.11,0-0.2,0
				c-0.72,0-1.27,0.2-1.65,0.59c-0.38,0.39-0.57,0.97-0.57,1.72v4.49H88.77z"/>
			<path class="st0" d="M98.93,101.56h1.34c-0.15,0.89-0.53,1.59-1.16,2.1c-0.63,0.51-1.42,0.77-2.37,0.77c-1.12,0-2-0.38-2.65-1.13
				s-0.97-1.78-0.97-3.08c0-1.38,0.32-2.45,0.96-3.22s1.53-1.16,2.66-1.16c1.16,0,2.06,0.36,2.69,1.07
				c0.64,0.71,0.95,1.72,0.95,3.02c0,0.17,0,0.29,0,0.37c0,0.08-0.01,0.16-0.02,0.23h-5.82c0.02,0.85,0.23,1.51,0.63,1.97
				c0.41,0.46,0.97,0.7,1.69,0.7c0.55,0,1.01-0.14,1.37-0.43C98.6,102.49,98.83,102.08,98.93,101.56z M94.53,99.4h4.43
				c0-0.75-0.2-1.33-0.57-1.74c-0.38-0.41-0.91-0.61-1.6-0.61c-0.67,0-1.19,0.2-1.58,0.6C94.82,98.04,94.6,98.63,94.53,99.4z"/>
			<path class="st0" d="M108.75,93.07v11.1h-1.31v-1.02c-0.35,0.42-0.74,0.74-1.18,0.95s-0.92,0.32-1.45,0.32
				c-1.07,0-1.93-0.39-2.57-1.16c-0.64-0.77-0.96-1.8-0.96-3.1c0-1.32,0.32-2.37,0.96-3.15c0.64-0.78,1.5-1.17,2.57-1.17
				c0.56,0,1.06,0.1,1.5,0.31c0.43,0.21,0.81,0.52,1.13,0.94v-4.02H108.75z M107.48,100.08c0-1-0.2-1.75-0.61-2.26
				c-0.4-0.51-1-0.76-1.8-0.76c-0.76,0-1.35,0.28-1.77,0.83c-0.42,0.55-0.63,1.34-0.63,2.36c0,0.92,0.21,1.64,0.64,2.17
				c0.43,0.53,1.02,0.79,1.77,0.79c0.76,0,1.35-0.27,1.76-0.81C107.27,101.85,107.48,101.08,107.48,100.08z"/>
			<path class="st0" d="M114.5,104.17v-11.1h1.33v4.15c0.31-0.46,0.69-0.8,1.13-1.04s0.94-0.35,1.49-0.35
				c1.07,0,1.93,0.39,2.58,1.18c0.65,0.78,0.97,1.83,0.97,3.15c0,1.3-0.32,2.33-0.96,3.1c-0.64,0.77-1.5,1.16-2.57,1.16
				c-0.57,0-1.06-0.1-1.49-0.31c-0.42-0.21-0.8-0.53-1.14-0.96v1.02H114.5z M115.78,100.08c0,1,0.21,1.78,0.62,2.32
				c0.41,0.54,1,0.81,1.76,0.81c0.74,0,1.33-0.26,1.76-0.79c0.43-0.53,0.64-1.25,0.64-2.17c0-1.02-0.21-1.81-0.62-2.36
				c-0.41-0.56-1-0.83-1.77-0.83c-0.8,0-1.4,0.25-1.8,0.76C115.98,98.32,115.78,99.07,115.78,100.08z"/>
			<path class="st0" d="M128.04,96.1h1.51l-3.4,9.32c-0.32,0.88-0.65,1.45-0.97,1.73c-0.33,0.27-0.8,0.41-1.42,0.41
				c-0.14,0-0.27-0.01-0.4-0.03c-0.13-0.02-0.27-0.05-0.4-0.09v-1.3c0.14,0.04,0.27,0.07,0.4,0.09c0.13,0.02,0.26,0.03,0.39,0.03
				c0.26,0,0.47-0.05,0.63-0.16s0.28-0.27,0.37-0.5l0.35-0.96l-3.06-8.53h1.51l2.24,6.53L128.04,96.1z"/>
		</g>
	</g>
</g>
</svg>
